<?xml version="1.0" encoding="UTF-8"?>
<svg xmlns="http://www.w3.org/2000/svg" xmlns:xlink="http://www.w3.org/1999/xlink" width="600pt" height="600pt" viewBox="0 0 600 600" version="1.1">
<g id="surface1">
<path style="fill:none;stroke-width:0.003;stroke-linecap:butt;stroke-linejoin:miter;stroke:rgb(70%,30%,30%);stroke-opacity:0.6;stroke-miterlimit:10;" d="M 0.719069 0.0260872 L 0.899961 0.0260872 L 0.899961 0.206979 L 0.719069 0.206979 L 0.719069 0.0260872 " transform="matrix(600,0,0,600,0,0)"/>
<path style="fill:none;stroke-width:0.003;stroke-linecap:butt;stroke-linejoin:miter;stroke:rgb(70%,30%,30%);stroke-opacity:0.6;stroke-miterlimit:10;" d="M 0.825091 0.569896 L 0.96722 0.569896 L 0.96722 0.712031 L 0.825091 0.712031 L 0.825091 0.569896 " transform="matrix(600,0,0,600,0,0)"/>
<path style="fill:none;stroke-width:0.003;stroke-linecap:butt;stroke-linejoin:miter;stroke:rgb(70%,30%,30%);stroke-opacity:0.6;stroke-miterlimit:10;" d="M 0.310677 0.784525 L 0.418919 0.784525 L 0.418919 0.892767 L 0.310677 0.892767 L 0.310677 0.784525 " transform="matrix(600,0,0,600,0,0)"/>
<path style="fill:none;stroke-width:0.003;stroke-linecap:butt;stroke-linejoin:miter;stroke:rgb(70%,30%,30%);stroke-opacity:0.6;stroke-miterlimit:10;" d="M 0.0235677 0.737585 L 0.200534 0.737585 L 0.200534 0.914557 L 0.0235677 0.914557 L 0.0235677 0.737585 " transform="matrix(600,0,0,600,0,0)"/>
<path style="fill:none;stroke-width:0.003;stroke-linecap:butt;stroke-linejoin:miter;stroke:rgb(30%,70%,30%);stroke-opacity:0.6;stroke-miterlimit:10;" d="M 0.147279 0.638444 C 0.147279 0.643965 0.142799 0.648444 0.137279 0.648444 C 0.131751 0.648444 0.127279 0.643965 0.127279 0.638444 C 0.127279 0.632917 0.131751 0.628444 0.137279 0.628444 C 0.142799 0.628444 0.147279 0.632917 0.147279 0.638444 " transform="matrix(600,0,0,600,0,0)"/>
<path style="fill:none;stroke-width:0.003;stroke-linecap:butt;stroke-linejoin:miter;stroke:rgb(30%,70%,30%);stroke-opacity:0.6;stroke-miterlimit:10;" d="M 0.627188 0.461452 C 0.627188 0.466973 0.622708 0.471452 0.617188 0.471452 C 0.611667 0.471452 0.607187 0.466973 0.607187 0.461452 C 0.607187 0.455931 0.611667 0.451452 0.617188 0.451452 C 0.622708 0.451452 0.627188 0.455931 0.627188 0.461452 " transform="matrix(600,0,0,600,0,0)"/>
<path style="fill:none;stroke-width:0.003;stroke-linecap:butt;stroke-linejoin:miter;stroke:rgb(30%,70%,30%);stroke-opacity:0.6;stroke-miterlimit:10;" d="M 0.962747 0.183021 C 0.962747 0.188542 0.958268 0.193021 0.952747 0.193021 C 0.94722 0.193021 0.942747 0.188542 0.942747 0.183021 C 0.942747 0.1775 0.94722 0.173021 0.952747 0.173021 C 0.958268 0.173021 0.962747 0.1775 0.962747 0.183021 " transform="matrix(600,0,0,600,0,0)"/>
<path style="fill:none;stroke-width:0.003;stroke-linecap:butt;stroke-linejoin:miter;stroke:rgb(30%,70%,30%);stroke-opacity:0.6;stroke-miterlimit:10;" d="M 0.61265 0.121335 C 0.61265 0.126855 0.608171 0.131335 0.60265 0.131335 C 0.597129 0.131335 0.59265 0.126855 0.59265 0.121335 C 0.59265 0.115807 0.597129 0.111335 0.60265 0.111335 C 0.608171 0.111335 0.61265 0.115807 0.61265 0.121335 " transform="matrix(600,0,0,600,0,0)"/>
<path style="fill:none;stroke-width:0.003;stroke-linecap:butt;stroke-linejoin:miter;stroke:rgb(30%,70%,30%);stroke-opacity:0.6;stroke-miterlimit:10;" d="M 0.522793 0.825964 C 0.522793 0.831484 0.518314 0.835964 0.512793 0.835964 C 0.507266 0.835964 0.502793 0.831484 0.502793 0.825964 C 0.502793 0.820443 0.507266 0.815964 0.512793 0.815964 C 0.518314 0.815964 0.522793 0.820443 0.522793 0.825964 " transform="matrix(600,0,0,600,0,0)"/>
<path style="fill:none;stroke-width:0.003;stroke-linecap:butt;stroke-linejoin:miter;stroke:rgb(30%,70%,30%);stroke-opacity:0.6;stroke-miterlimit:10;" d="M 0.87974 0.835801 C 0.87974 0.841322 0.87526 0.845801 0.86974 0.845801 C 0.864219 0.845801 0.85974 0.841322 0.85974 0.835801 C 0.85974 0.830273 0.864219 0.825801 0.86974 0.825801 C 0.87526 0.825801 0.87974 0.830273 0.87974 0.835801 " transform="matrix(600,0,0,600,0,0)"/>
<path style="fill:none;stroke-width:0.003;stroke-linecap:butt;stroke-linejoin:miter;stroke:rgb(30%,70%,30%);stroke-opacity:0.6;stroke-miterlimit:10;" d="M 0.242533 0.160749 C 0.242533 0.16627 0.238053 0.170749 0.232533 0.170749 C 0.227012 0.170749 0.222533 0.16627 0.222533 0.160749 C 0.222533 0.155221 0.227012 0.150749 0.232533 0.150749 C 0.238053 0.150749 0.242533 0.155221 0.242533 0.160749 " transform="matrix(600,0,0,600,0,0)"/>
<path style="fill:none;stroke-width:0.003;stroke-linecap:butt;stroke-linejoin:miter;stroke:rgb(30%,70%,30%);stroke-opacity:0.6;stroke-miterlimit:10;" d="M 0.179349 0.312572 C 0.179349 0.318092 0.174876 0.322572 0.169349 0.322572 C 0.163828 0.322572 0.159349 0.318092 0.159349 0.312572 C 0.159349 0.307051 0.163828 0.302572 0.169349 0.302572 C 0.174876 0.302572 0.179349 0.307051 0.179349 0.312572 " transform="matrix(600,0,0,600,0,0)"/>
<path style="fill:none;stroke-width:0.003;stroke-linecap:butt;stroke-linejoin:miter;stroke:rgb(30%,70%,30%);stroke-opacity:0.6;stroke-miterlimit:10;" d="M 0.82972 0.462585 C 0.82972 0.468105 0.825247 0.472585 0.81972 0.472585 C 0.814199 0.472585 0.80972 0.468105 0.80972 0.462585 C 0.80972 0.457064 0.814199 0.452585 0.81972 0.452585 C 0.825247 0.452585 0.82972 0.457064 0.82972 0.462585 " transform="matrix(600,0,0,600,0,0)"/>
<path style="fill:none;stroke-width:0.003;stroke-linecap:butt;stroke-linejoin:miter;stroke:rgb(30%,70%,30%);stroke-opacity:0.6;stroke-miterlimit:10;" d="M 0.989258 0.885964 C 0.989258 0.891491 0.984779 0.895964 0.979258 0.895964 C 0.973737 0.895964 0.969258 0.891491 0.969258 0.885964 C 0.969258 0.880443 0.973737 0.875964 0.979258 0.875964 C 0.984779 0.875964 0.989258 0.880443 0.989258 0.885964 " transform="matrix(600,0,0,600,0,0)"/>
<path style="fill:none;stroke-width:0.001;stroke-linecap:butt;stroke-linejoin:miter;stroke:rgb(10%,10%,10%);stroke-opacity:0.6;stroke-miterlimit:10;" d="M 0.310677 0.784525 L 0.200534 0.737585 " transform="matrix(600,0,0,600,0,0)"/>
<path style="fill:none;stroke-width:0.001;stroke-linecap:butt;stroke-linejoin:miter;stroke:rgb(10%,10%,10%);stroke-opacity:0.6;stroke-miterlimit:10;" d="M 0.899961 0.206979 L 0.719069 0.206979 " transform="matrix(600,0,0,600,0,0)"/>
<path style="fill:none;stroke-width:0.001;stroke-linecap:butt;stroke-linejoin:miter;stroke:rgb(10%,10%,10%);stroke-opacity:0.6;stroke-miterlimit:10;" d="M 0.60265 0.121335 L 0.719069 0.0260872 " transform="matrix(600,0,0,600,0,0)"/>
<path style="fill:none;stroke-width:0.001;stroke-linecap:butt;stroke-linejoin:miter;stroke:rgb(10%,10%,10%);stroke-opacity:0.6;stroke-miterlimit:10;" d="M 0.0235677 0.737585 L 0.200534 0.737585 " transform="matrix(600,0,0,600,0,0)"/>
<path style="fill:none;stroke-width:0.001;stroke-linecap:butt;stroke-linejoin:miter;stroke:rgb(10%,10%,10%);stroke-opacity:0.6;stroke-miterlimit:10;" d="M 0.60265 0.121335 L 0.719069 0.206979 " transform="matrix(600,0,0,600,0,0)"/>
<path style="fill:none;stroke-width:0.001;stroke-linecap:butt;stroke-linejoin:miter;stroke:rgb(10%,10%,10%);stroke-opacity:0.6;stroke-miterlimit:10;" d="M 0.86974 0.835801 L 0.96722 0.712031 " transform="matrix(600,0,0,600,0,0)"/>
<path style="fill:none;stroke-width:0.001;stroke-linecap:butt;stroke-linejoin:miter;stroke:rgb(10%,10%,10%);stroke-opacity:0.6;stroke-miterlimit:10;" d="M 0.81972 0.462585 L 0.899961 0.206979 " transform="matrix(600,0,0,600,0,0)"/>
<path style="fill:none;stroke-width:0.001;stroke-linecap:butt;stroke-linejoin:miter;stroke:rgb(10%,10%,10%);stroke-opacity:0.6;stroke-miterlimit:10;" d="M 0.81972 0.462585 L 0.96722 0.569896 " transform="matrix(600,0,0,600,0,0)"/>
<path style="fill:none;stroke-width:0.001;stroke-linecap:butt;stroke-linejoin:miter;stroke:rgb(10%,10%,10%);stroke-opacity:0.6;stroke-miterlimit:10;" d="M 0.617188 0.461452 L 0.60265 0.121335 " transform="matrix(600,0,0,600,0,0)"/>
<path style="fill:none;stroke-width:0.001;stroke-linecap:butt;stroke-linejoin:miter;stroke:rgb(10%,10%,10%);stroke-opacity:0.6;stroke-miterlimit:10;" d="M 0.952747 0.183021 L 0.899961 0.0260872 " transform="matrix(600,0,0,600,0,0)"/>
<path style="fill:none;stroke-width:0.001;stroke-linecap:butt;stroke-linejoin:miter;stroke:rgb(10%,10%,10%);stroke-opacity:0.6;stroke-miterlimit:10;" d="M 0.137279 0.638444 L 0.200534 0.737585 " transform="matrix(600,0,0,600,0,0)"/>
<path style="fill:none;stroke-width:0.001;stroke-linecap:butt;stroke-linejoin:miter;stroke:rgb(10%,10%,10%);stroke-opacity:0.6;stroke-miterlimit:10;" d="M 0.310677 0.784525 L 0.418919 0.784525 " transform="matrix(600,0,0,600,0,0)"/>
<path style="fill:none;stroke-width:0.001;stroke-linecap:butt;stroke-linejoin:miter;stroke:rgb(10%,10%,10%);stroke-opacity:0.6;stroke-miterlimit:10;" d="M 0.86974 0.835801 L 0.979258 0.885964 " transform="matrix(600,0,0,600,0,0)"/>
<path style="fill:none;stroke-width:0.001;stroke-linecap:butt;stroke-linejoin:miter;stroke:rgb(10%,10%,10%);stroke-opacity:0.6;stroke-miterlimit:10;" d="M 0.310677 0.892767 L 0.200534 0.914557 " transform="matrix(600,0,0,600,0,0)"/>
<path style="fill:none;stroke-width:0.001;stroke-linecap:butt;stroke-linejoin:miter;stroke:rgb(10%,10%,10%);stroke-opacity:0.6;stroke-miterlimit:10;" d="M 0.512793 0.825964 L 0.825091 0.712031 " transform="matrix(600,0,0,600,0,0)"/>
<path style="fill:none;stroke-width:0.001;stroke-linecap:butt;stroke-linejoin:miter;stroke:rgb(10%,10%,10%);stroke-opacity:0.6;stroke-miterlimit:10;" d="M 0.200534 0.737585 L 0.200534 0.914557 " transform="matrix(600,0,0,600,0,0)"/>
<path style="fill:none;stroke-width:0.001;stroke-linecap:butt;stroke-linejoin:miter;stroke:rgb(10%,10%,10%);stroke-opacity:0.6;stroke-miterlimit:10;" d="M 0.825091 0.569896 L 0.96722 0.569896 " transform="matrix(600,0,0,600,0,0)"/>
<path style="fill:none;stroke-width:0.001;stroke-linecap:butt;stroke-linejoin:miter;stroke:rgb(10%,10%,10%);stroke-opacity:0.6;stroke-miterlimit:10;" d="M 0.0235677 0.737585 L 0.0235677 0.914557 " transform="matrix(600,0,0,600,0,0)"/>
<path style="fill:none;stroke-width:0.001;stroke-linecap:butt;stroke-linejoin:miter;stroke:rgb(10%,10%,10%);stroke-opacity:0.6;stroke-miterlimit:10;" d="M 0.512793 0.825964 L 0.418919 0.892767 " transform="matrix(600,0,0,600,0,0)"/>
<path style="fill:none;stroke-width:0.001;stroke-linecap:butt;stroke-linejoin:miter;stroke:rgb(10%,10%,10%);stroke-opacity:0.6;stroke-miterlimit:10;" d="M 0.137279 0.638444 L 0.169349 0.312572 " transform="matrix(600,0,0,600,0,0)"/>
<path style="fill:none;stroke-width:0.001;stroke-linecap:butt;stroke-linejoin:miter;stroke:rgb(10%,10%,10%);stroke-opacity:0.6;stroke-miterlimit:10;" d="M 0.979258 0.885964 L 0.96722 0.712031 " transform="matrix(600,0,0,600,0,0)"/>
<path style="fill:none;stroke-width:0.001;stroke-linecap:butt;stroke-linejoin:miter;stroke:rgb(10%,10%,10%);stroke-opacity:0.6;stroke-miterlimit:10;" d="M 0.81972 0.462585 L 0.825091 0.569896 " transform="matrix(600,0,0,600,0,0)"/>
<path style="fill:none;stroke-width:0.001;stroke-linecap:butt;stroke-linejoin:miter;stroke:rgb(10%,10%,10%);stroke-opacity:0.6;stroke-miterlimit:10;" d="M 0.719069 0.0260872 L 0.899961 0.0260872 " transform="matrix(600,0,0,600,0,0)"/>
<path style="fill:none;stroke-width:0.001;stroke-linecap:butt;stroke-linejoin:miter;stroke:rgb(10%,10%,10%);stroke-opacity:0.6;stroke-miterlimit:10;" d="M 0.418919 0.784525 L 0.418919 0.892767 " transform="matrix(600,0,0,600,0,0)"/>
<path style="fill:none;stroke-width:0.001;stroke-linecap:butt;stroke-linejoin:miter;stroke:rgb(10%,10%,10%);stroke-opacity:0.6;stroke-miterlimit:10;" d="M 0.617188 0.461452 L 0.81972 0.462585 " transform="matrix(600,0,0,600,0,0)"/>
<path style="fill:none;stroke-width:0.001;stroke-linecap:butt;stroke-linejoin:miter;stroke:rgb(10%,10%,10%);stroke-opacity:0.6;stroke-miterlimit:10;" d="M 0.617188 0.461452 L 0.825091 0.569896 " transform="matrix(600,0,0,600,0,0)"/>
<path style="fill:none;stroke-width:0.001;stroke-linecap:butt;stroke-linejoin:miter;stroke:rgb(10%,10%,10%);stroke-opacity:0.6;stroke-miterlimit:10;" d="M 0.137279 0.638444 L 0.418919 0.784525 " transform="matrix(600,0,0,600,0,0)"/>
<path style="fill:none;stroke-width:0.001;stroke-linecap:butt;stroke-linejoin:miter;stroke:rgb(10%,10%,10%);stroke-opacity:0.6;stroke-miterlimit:10;" d="M 0.137279 0.638444 L 0.0235677 0.737585 " transform="matrix(600,0,0,600,0,0)"/>
<path style="fill:none;stroke-width:0.001;stroke-linecap:butt;stroke-linejoin:miter;stroke:rgb(10%,10%,10%);stroke-opacity:0.6;stroke-miterlimit:10;" d="M 0.617188 0.461452 L 0.825091 0.712031 " transform="matrix(600,0,0,600,0,0)"/>
<path style="fill:none;stroke-width:0.001;stroke-linecap:butt;stroke-linejoin:miter;stroke:rgb(10%,10%,10%);stroke-opacity:0.6;stroke-miterlimit:10;" d="M 0.232533 0.160749 L 0.169349 0.312572 " transform="matrix(600,0,0,600,0,0)"/>
<path style="fill:none;stroke-width:0.001;stroke-linecap:butt;stroke-linejoin:miter;stroke:rgb(10%,10%,10%);stroke-opacity:0.6;stroke-miterlimit:10;" d="M 0.96722 0.569896 L 0.96722 0.712031 " transform="matrix(600,0,0,600,0,0)"/>
<path style="fill:none;stroke-width:0.001;stroke-linecap:butt;stroke-linejoin:miter;stroke:rgb(10%,10%,10%);stroke-opacity:0.6;stroke-miterlimit:10;" d="M 0.200534 0.914557 L 0.0235677 0.914557 " transform="matrix(600,0,0,600,0,0)"/>
<path style="fill:none;stroke-width:0.001;stroke-linecap:butt;stroke-linejoin:miter;stroke:rgb(10%,10%,10%);stroke-opacity:0.6;stroke-miterlimit:10;" d="M 0.310677 0.784525 L 0.310677 0.892767 " transform="matrix(600,0,0,600,0,0)"/>
<path style="fill:none;stroke-width:0.001;stroke-linecap:butt;stroke-linejoin:miter;stroke:rgb(10%,10%,10%);stroke-opacity:0.6;stroke-miterlimit:10;" d="M 0.310677 0.784525 L 0.200534 0.914557 " transform="matrix(600,0,0,600,0,0)"/>
<path style="fill:none;stroke-width:0.001;stroke-linecap:butt;stroke-linejoin:miter;stroke:rgb(10%,10%,10%);stroke-opacity:0.6;stroke-miterlimit:10;" d="M 0.418919 0.892767 L 0.310677 0.892767 " transform="matrix(600,0,0,600,0,0)"/>
<path style="fill:none;stroke-width:0.001;stroke-linecap:butt;stroke-linejoin:miter;stroke:rgb(10%,10%,10%);stroke-opacity:0.6;stroke-miterlimit:10;" d="M 0.418919 0.892767 L 0.200534 0.914557 " transform="matrix(600,0,0,600,0,0)"/>
<path style="fill:none;stroke-width:0.001;stroke-linecap:butt;stroke-linejoin:miter;stroke:rgb(10%,10%,10%);stroke-opacity:0.6;stroke-miterlimit:10;" d="M 0.512793 0.825964 L 0.418919 0.784525 " transform="matrix(600,0,0,600,0,0)"/>
<path style="fill:none;stroke-width:0.001;stroke-linecap:butt;stroke-linejoin:miter;stroke:rgb(10%,10%,10%);stroke-opacity:0.6;stroke-miterlimit:10;" d="M 0.825091 0.569896 L 0.825091 0.712031 " transform="matrix(600,0,0,600,0,0)"/>
<path style="fill:none;stroke-width:0.001;stroke-linecap:butt;stroke-linejoin:miter;stroke:rgb(10%,10%,10%);stroke-opacity:0.6;stroke-miterlimit:10;" d="M 0.86974 0.835801 L 0.825091 0.712031 " transform="matrix(600,0,0,600,0,0)"/>
<path style="fill:none;stroke-width:0.001;stroke-linecap:butt;stroke-linejoin:miter;stroke:rgb(10%,10%,10%);stroke-opacity:0.6;stroke-miterlimit:10;" d="M 0.719069 0.0260872 L 0.719069 0.206979 " transform="matrix(600,0,0,600,0,0)"/>
<path style="fill:none;stroke-width:0.001;stroke-linecap:butt;stroke-linejoin:miter;stroke:rgb(10%,10%,10%);stroke-opacity:0.6;stroke-miterlimit:10;" d="M 0.979258 0.885964 L 0.96722 0.569896 " transform="matrix(600,0,0,600,0,0)"/>
<path style="fill:none;stroke-width:0.001;stroke-linecap:butt;stroke-linejoin:miter;stroke:rgb(10%,10%,10%);stroke-opacity:0.6;stroke-miterlimit:10;" d="M 0.899961 0.0260872 L 0.899961 0.206979 " transform="matrix(600,0,0,600,0,0)"/>
<path style="fill:none;stroke-width:0.001;stroke-linecap:butt;stroke-linejoin:miter;stroke:rgb(10%,10%,10%);stroke-opacity:0.6;stroke-miterlimit:10;" d="M 0.952747 0.183021 L 0.899961 0.206979 " transform="matrix(600,0,0,600,0,0)"/>
<path style="fill:none;stroke-width:0.001;stroke-linecap:butt;stroke-linejoin:miter;stroke:rgb(10%,10%,10%);stroke-opacity:0.6;stroke-miterlimit:10;" d="M 0.617188 0.461452 L 0.719069 0.206979 " transform="matrix(600,0,0,600,0,0)"/>
<path style="fill:none;stroke-width:0.001;stroke-linecap:butt;stroke-linejoin:miter;stroke:rgb(10%,10%,10%);stroke-opacity:0.6;stroke-miterlimit:10;" d="M 0.81972 0.462585 L 0.719069 0.206979 " transform="matrix(600,0,0,600,0,0)"/>
<path style="fill:none;stroke-width:0.001;stroke-linecap:butt;stroke-linejoin:miter;stroke:rgb(10%,10%,10%);stroke-opacity:0.6;stroke-miterlimit:10;" d="M 0.137279 0.638444 L 0.310677 0.784525 " transform="matrix(600,0,0,600,0,0)"/>
<path style="fill:none;stroke-width:0.001;stroke-linecap:butt;stroke-linejoin:miter;stroke:rgb(10%,10%,10%);stroke-opacity:0.6;stroke-miterlimit:10;" d="M 0.96722 0.712031 L 0.825091 0.712031 " transform="matrix(600,0,0,600,0,0)"/>
<path style="fill:none;stroke-width:0.003;stroke-linecap:butt;stroke-linejoin:miter;stroke:rgb(10%,10%,70%);stroke-opacity:0.6;stroke-miterlimit:10;" d="M 0.98222 0.569896 C 0.98222 0.578184 0.975508 0.584896 0.96722 0.584896 C 0.958939 0.584896 0.95222 0.578184 0.95222 0.569896 C 0.95222 0.561615 0.958939 0.554896 0.96722 0.554896 C 0.975508 0.554896 0.98222 0.561615 0.98222 0.569896 " transform="matrix(600,0,0,600,0,0)"/>
<path style="fill:none;stroke-width:0.003;stroke-linecap:butt;stroke-linejoin:miter;stroke:rgb(10%,10%,70%);stroke-opacity:0.6;stroke-miterlimit:10;" d="M 0.734069 0.206979 C 0.734069 0.21526 0.72735 0.221979 0.719069 0.221979 C 0.710781 0.221979 0.704069 0.21526 0.704069 0.206979 C 0.704069 0.198698 0.710781 0.191979 0.719069 0.191979 C 0.72735 0.191979 0.734069 0.198698 0.734069 0.206979 " transform="matrix(600,0,0,600,0,0)"/>
<path style="fill:none;stroke-width:0.003;stroke-linecap:butt;stroke-linejoin:miter;stroke:rgb(70%,10%,10%);stroke-opacity:0.6;stroke-miterlimit:10;" d="M 0.252533 0.160749 C 0.252533 0.17179 0.243574 0.180749 0.232533 0.180749 C 0.221484 0.180749 0.212533 0.17179 0.212533 0.160749 C 0.212533 0.149701 0.221484 0.140749 0.232533 0.140749 C 0.243574 0.140749 0.252533 0.149701 0.252533 0.160749 " transform="matrix(600,0,0,600,0,0)"/>
<path style="fill:none;stroke-width:0.003;stroke-linecap:butt;stroke-linejoin:miter;stroke:rgb(70%,10%,10%);stroke-opacity:0.6;stroke-miterlimit:10;" d="M 0.252533 0.160749 C 0.252533 0.17179 0.243574 0.180749 0.232533 0.180749 C 0.221484 0.180749 0.212533 0.17179 0.212533 0.160749 C 0.212533 0.149701 0.221484 0.140749 0.232533 0.140749 C 0.243574 0.140749 0.252533 0.149701 0.252533 0.160749 " transform="matrix(600,0,0,600,0,0)"/>
</g>
</svg>
