<?xml version="1.0" encoding="UTF-8"?>
<svg xmlns="http://www.w3.org/2000/svg" xmlns:xlink="http://www.w3.org/1999/xlink" width="600pt" height="600pt" viewBox="0 0 600 600" version="1.1">
<g id="surface1">
<path style="fill:none;stroke-width:0.003;stroke-linecap:butt;stroke-linejoin:miter;stroke:rgb(70%,30%,30%);stroke-opacity:0.6;stroke-miterlimit:10;" d="M 0.494622 0.552467 L 0.773867 0.552467 L 0.773867 0.831712 L 0.494622 0.831712 L 0.494622 0.552467 " transform="matrix(600,0,0,600,0,0)"/>
<path style="fill:none;stroke-width:0.003;stroke-linecap:butt;stroke-linejoin:miter;stroke:rgb(70%,30%,30%);stroke-opacity:0.6;stroke-miterlimit:10;" d="M 0.286361 0.852454 L 0.389076 0.852454 L 0.389076 0.955169 L 0.286361 0.955169 L 0.286361 0.852454 " transform="matrix(600,0,0,600,0,0)"/>
<path style="fill:none;stroke-width:0.003;stroke-linecap:butt;stroke-linejoin:miter;stroke:rgb(70%,30%,30%);stroke-opacity:0.6;stroke-miterlimit:10;" d="M 0.171328 0.260221 L 0.350202 0.260221 L 0.350202 0.439089 L 0.171328 0.439089 L 0.171328 0.260221 " transform="matrix(600,0,0,600,0,0)"/>
<path style="fill:none;stroke-width:0.003;stroke-linecap:butt;stroke-linejoin:miter;stroke:rgb(30%,70%,30%);stroke-opacity:0.6;stroke-miterlimit:10;" d="M 0.910462 0.338861 C 0.910462 0.344382 0.905983 0.348861 0.900462 0.348861 C 0.894941 0.348861 0.890462 0.344382 0.890462 0.338861 C 0.890462 0.333333 0.894941 0.328861 0.900462 0.328861 C 0.905983 0.328861 0.910462 0.333333 0.910462 0.338861 " transform="matrix(600,0,0,600,0,0)"/>
<path style="fill:none;stroke-width:0.003;stroke-linecap:butt;stroke-linejoin:miter;stroke:rgb(30%,70%,30%);stroke-opacity:0.6;stroke-miterlimit:10;" d="M 0.438822 0.62513 C 0.438822 0.630651 0.434349 0.63513 0.428822 0.63513 C 0.423301 0.63513 0.418822 0.630651 0.418822 0.62513 C 0.418822 0.619609 0.423301 0.61513 0.428822 0.61513 C 0.434349 0.61513 0.438822 0.619609 0.438822 0.62513 " transform="matrix(600,0,0,600,0,0)"/>
<path style="fill:none;stroke-width:0.003;stroke-linecap:butt;stroke-linejoin:miter;stroke:rgb(30%,70%,30%);stroke-opacity:0.6;stroke-miterlimit:10;" d="M 0.809473 0.492272 C 0.809473 0.497793 0.804993 0.502272 0.799473 0.502272 C 0.793952 0.502272 0.789473 0.497793 0.789473 0.492272 C 0.789473 0.486751 0.793952 0.482272 0.799473 0.482272 C 0.804993 0.482272 0.809473 0.486751 0.809473 0.492272 " transform="matrix(600,0,0,600,0,0)"/>
<path style="fill:none;stroke-width:0.003;stroke-linecap:butt;stroke-linejoin:miter;stroke:rgb(30%,70%,30%);stroke-opacity:0.6;stroke-miterlimit:10;" d="M 0.0998372 0.571745 C 0.0998372 0.577266 0.0953581 0.581745 0.0898372 0.581745 C 0.0843164 0.581745 0.0798372 0.577266 0.0798372 0.571745 C 0.0798372 0.566224 0.0843164 0.561745 0.0898372 0.561745 C 0.0953581 0.561745 0.0998372 0.566224 0.0998372 0.571745 " transform="matrix(600,0,0,600,0,0)"/>
<path style="fill:none;stroke-width:0.003;stroke-linecap:butt;stroke-linejoin:miter;stroke:rgb(30%,70%,30%);stroke-opacity:0.6;stroke-miterlimit:10;" d="M 0.0543945 0.102637 C 0.0543945 0.108158 0.0499154 0.112637 0.0443945 0.112637 C 0.0388737 0.112637 0.0343945 0.108158 0.0343945 0.102637 C 0.0343945 0.0971094 0.0388737 0.0926367 0.0443945 0.0926367 C 0.0499154 0.0926367 0.0543945 0.0971094 0.0543945 0.102637 " transform="matrix(600,0,0,600,0,0)"/>
<path style="fill:none;stroke-width:0.003;stroke-linecap:butt;stroke-linejoin:miter;stroke:rgb(30%,70%,30%);stroke-opacity:0.6;stroke-miterlimit:10;" d="M 0.20653 0.68957 C 0.20653 0.695091 0.202051 0.69957 0.19653 0.69957 C 0.191009 0.69957 0.18653 0.695091 0.18653 0.68957 C 0.18653 0.684049 0.191009 0.67957 0.19653 0.67957 C 0.202051 0.67957 0.20653 0.684049 0.20653 0.68957 " transform="matrix(600,0,0,600,0,0)"/>
<path style="fill:none;stroke-width:0.003;stroke-linecap:butt;stroke-linejoin:miter;stroke:rgb(30%,70%,30%);stroke-opacity:0.6;stroke-miterlimit:10;" d="M 0.180085 0.125345 C 0.180085 0.130866 0.175605 0.135345 0.170085 0.135345 C 0.164557 0.135345 0.160085 0.130866 0.160085 0.125345 C 0.160085 0.119818 0.164557 0.115345 0.170085 0.115345 C 0.175605 0.115345 0.180085 0.119818 0.180085 0.125345 " transform="matrix(600,0,0,600,0,0)"/>
<path style="fill:none;stroke-width:0.003;stroke-linecap:butt;stroke-linejoin:miter;stroke:rgb(30%,70%,30%);stroke-opacity:0.6;stroke-miterlimit:10;" d="M 0.0428776 0.701667 C 0.0428776 0.707194 0.0383984 0.711667 0.0328776 0.711667 C 0.0273568 0.711667 0.0228776 0.707194 0.0228776 0.701667 C 0.0228776 0.696146 0.0273568 0.691667 0.0328776 0.691667 C 0.0383984 0.691667 0.0428776 0.696146 0.0428776 0.701667 " transform="matrix(600,0,0,600,0,0)"/>
<path style="fill:none;stroke-width:0.003;stroke-linecap:butt;stroke-linejoin:miter;stroke:rgb(30%,70%,30%);stroke-opacity:0.6;stroke-miterlimit:10;" d="M 0.861934 0.225273 C 0.861934 0.230794 0.857454 0.235273 0.851934 0.235273 C 0.846406 0.235273 0.841934 0.230794 0.841934 0.225273 C 0.841934 0.219753 0.846406 0.215273 0.851934 0.215273 C 0.857454 0.215273 0.861934 0.219753 0.861934 0.225273 " transform="matrix(600,0,0,600,0,0)"/>
<path style="fill:none;stroke-width:0.003;stroke-linecap:butt;stroke-linejoin:miter;stroke:rgb(30%,70%,30%);stroke-opacity:0.6;stroke-miterlimit:10;" d="M 0.252819 0.0227214 C 0.252819 0.0282422 0.24834 0.0327214 0.242819 0.0327214 C 0.237298 0.0327214 0.232819 0.0282422 0.232819 0.0227214 C 0.232819 0.0172005 0.237298 0.0127214 0.242819 0.0127214 C 0.24834 0.0127214 0.252819 0.0172005 0.252819 0.0227214 " transform="matrix(600,0,0,600,0,0)"/>
<path style="fill:none;stroke-width:0.001;stroke-linecap:butt;stroke-linejoin:miter;stroke:rgb(10%,10%,10%);stroke-opacity:0.6;stroke-miterlimit:10;" d="M 0.170085 0.125345 L 0.171328 0.260221 " transform="matrix(600,0,0,600,0,0)"/>
<path style="fill:none;stroke-width:0.001;stroke-linecap:butt;stroke-linejoin:miter;stroke:rgb(10%,10%,10%);stroke-opacity:0.6;stroke-miterlimit:10;" d="M 0.0443945 0.102637 L 0.242819 0.0227214 " transform="matrix(600,0,0,600,0,0)"/>
<path style="fill:none;stroke-width:0.001;stroke-linecap:butt;stroke-linejoin:miter;stroke:rgb(10%,10%,10%);stroke-opacity:0.6;stroke-miterlimit:10;" d="M 0.0898372 0.571745 L 0.0328776 0.701667 " transform="matrix(600,0,0,600,0,0)"/>
<path style="fill:none;stroke-width:0.001;stroke-linecap:butt;stroke-linejoin:miter;stroke:rgb(10%,10%,10%);stroke-opacity:0.6;stroke-miterlimit:10;" d="M 0.0443945 0.102637 L 0.170085 0.125345 " transform="matrix(600,0,0,600,0,0)"/>
<path style="fill:none;stroke-width:0.001;stroke-linecap:butt;stroke-linejoin:miter;stroke:rgb(10%,10%,10%);stroke-opacity:0.6;stroke-miterlimit:10;" d="M 0.773867 0.831712 L 0.494622 0.831712 " transform="matrix(600,0,0,600,0,0)"/>
<path style="fill:none;stroke-width:0.001;stroke-linecap:butt;stroke-linejoin:miter;stroke:rgb(10%,10%,10%);stroke-opacity:0.6;stroke-miterlimit:10;" d="M 0.19653 0.68957 L 0.0328776 0.701667 " transform="matrix(600,0,0,600,0,0)"/>
<path style="fill:none;stroke-width:0.001;stroke-linecap:butt;stroke-linejoin:miter;stroke:rgb(10%,10%,10%);stroke-opacity:0.6;stroke-miterlimit:10;" d="M 0.900462 0.338861 L 0.799473 0.492272 " transform="matrix(600,0,0,600,0,0)"/>
<path style="fill:none;stroke-width:0.001;stroke-linecap:butt;stroke-linejoin:miter;stroke:rgb(10%,10%,10%);stroke-opacity:0.6;stroke-miterlimit:10;" d="M 0.0443945 0.102637 L 0.171328 0.260221 " transform="matrix(600,0,0,600,0,0)"/>
<path style="fill:none;stroke-width:0.001;stroke-linecap:butt;stroke-linejoin:miter;stroke:rgb(10%,10%,10%);stroke-opacity:0.6;stroke-miterlimit:10;" d="M 0.900462 0.338861 L 0.851934 0.225273 " transform="matrix(600,0,0,600,0,0)"/>
<path style="fill:none;stroke-width:0.001;stroke-linecap:butt;stroke-linejoin:miter;stroke:rgb(10%,10%,10%);stroke-opacity:0.6;stroke-miterlimit:10;" d="M 0.799473 0.492272 L 0.773867 0.552467 " transform="matrix(600,0,0,600,0,0)"/>
<path style="fill:none;stroke-width:0.001;stroke-linecap:butt;stroke-linejoin:miter;stroke:rgb(10%,10%,10%);stroke-opacity:0.6;stroke-miterlimit:10;" d="M 0.799473 0.492272 L 0.851934 0.225273 " transform="matrix(600,0,0,600,0,0)"/>
<path style="fill:none;stroke-width:0.001;stroke-linecap:butt;stroke-linejoin:miter;stroke:rgb(10%,10%,10%);stroke-opacity:0.6;stroke-miterlimit:10;" d="M 0.428822 0.62513 L 0.389076 0.852454 " transform="matrix(600,0,0,600,0,0)"/>
<path style="fill:none;stroke-width:0.001;stroke-linecap:butt;stroke-linejoin:miter;stroke:rgb(10%,10%,10%);stroke-opacity:0.6;stroke-miterlimit:10;" d="M 0.171328 0.260221 L 0.350202 0.260221 " transform="matrix(600,0,0,600,0,0)"/>
<path style="fill:none;stroke-width:0.001;stroke-linecap:butt;stroke-linejoin:miter;stroke:rgb(10%,10%,10%);stroke-opacity:0.6;stroke-miterlimit:10;" d="M 0.286361 0.852454 L 0.389076 0.852454 " transform="matrix(600,0,0,600,0,0)"/>
<path style="fill:none;stroke-width:0.001;stroke-linecap:butt;stroke-linejoin:miter;stroke:rgb(10%,10%,10%);stroke-opacity:0.6;stroke-miterlimit:10;" d="M 0.0898372 0.571745 L 0.171328 0.439089 " transform="matrix(600,0,0,600,0,0)"/>
<path style="fill:none;stroke-width:0.001;stroke-linecap:butt;stroke-linejoin:miter;stroke:rgb(10%,10%,10%);stroke-opacity:0.6;stroke-miterlimit:10;" d="M 0.19653 0.68957 L 0.171328 0.439089 " transform="matrix(600,0,0,600,0,0)"/>
<path style="fill:none;stroke-width:0.001;stroke-linecap:butt;stroke-linejoin:miter;stroke:rgb(10%,10%,10%);stroke-opacity:0.6;stroke-miterlimit:10;" d="M 0.494622 0.552467 L 0.773867 0.552467 " transform="matrix(600,0,0,600,0,0)"/>
<path style="fill:none;stroke-width:0.001;stroke-linecap:butt;stroke-linejoin:miter;stroke:rgb(10%,10%,10%);stroke-opacity:0.6;stroke-miterlimit:10;" d="M 0.242819 0.0227214 L 0.350202 0.260221 " transform="matrix(600,0,0,600,0,0)"/>
<path style="fill:none;stroke-width:0.001;stroke-linecap:butt;stroke-linejoin:miter;stroke:rgb(10%,10%,10%);stroke-opacity:0.6;stroke-miterlimit:10;" d="M 0.428822 0.62513 L 0.19653 0.68957 " transform="matrix(600,0,0,600,0,0)"/>
<path style="fill:none;stroke-width:0.001;stroke-linecap:butt;stroke-linejoin:miter;stroke:rgb(10%,10%,10%);stroke-opacity:0.6;stroke-miterlimit:10;" d="M 0.799473 0.492272 L 0.494622 0.552467 " transform="matrix(600,0,0,600,0,0)"/>
<path style="fill:none;stroke-width:0.001;stroke-linecap:butt;stroke-linejoin:miter;stroke:rgb(10%,10%,10%);stroke-opacity:0.6;stroke-miterlimit:10;" d="M 0.350202 0.260221 L 0.350202 0.439089 " transform="matrix(600,0,0,600,0,0)"/>
<path style="fill:none;stroke-width:0.001;stroke-linecap:butt;stroke-linejoin:miter;stroke:rgb(10%,10%,10%);stroke-opacity:0.6;stroke-miterlimit:10;" d="M 0.428822 0.62513 L 0.286361 0.852454 " transform="matrix(600,0,0,600,0,0)"/>
<path style="fill:none;stroke-width:0.001;stroke-linecap:butt;stroke-linejoin:miter;stroke:rgb(10%,10%,10%);stroke-opacity:0.6;stroke-miterlimit:10;" d="M 0.428822 0.62513 L 0.350202 0.439089 " transform="matrix(600,0,0,600,0,0)"/>
<path style="fill:none;stroke-width:0.001;stroke-linecap:butt;stroke-linejoin:miter;stroke:rgb(10%,10%,10%);stroke-opacity:0.6;stroke-miterlimit:10;" d="M 0.494622 0.831712 L 0.389076 0.955169 " transform="matrix(600,0,0,600,0,0)"/>
<path style="fill:none;stroke-width:0.001;stroke-linecap:butt;stroke-linejoin:miter;stroke:rgb(10%,10%,10%);stroke-opacity:0.6;stroke-miterlimit:10;" d="M 0.494622 0.552467 L 0.350202 0.439089 " transform="matrix(600,0,0,600,0,0)"/>
<path style="fill:none;stroke-width:0.001;stroke-linecap:butt;stroke-linejoin:miter;stroke:rgb(10%,10%,10%);stroke-opacity:0.6;stroke-miterlimit:10;" d="M 0.389076 0.852454 L 0.389076 0.955169 " transform="matrix(600,0,0,600,0,0)"/>
<path style="fill:none;stroke-width:0.001;stroke-linecap:butt;stroke-linejoin:miter;stroke:rgb(10%,10%,10%);stroke-opacity:0.6;stroke-miterlimit:10;" d="M 0.171328 0.260221 L 0.171328 0.439089 " transform="matrix(600,0,0,600,0,0)"/>
<path style="fill:none;stroke-width:0.001;stroke-linecap:butt;stroke-linejoin:miter;stroke:rgb(10%,10%,10%);stroke-opacity:0.6;stroke-miterlimit:10;" d="M 0.170085 0.125345 L 0.350202 0.260221 " transform="matrix(600,0,0,600,0,0)"/>
<path style="fill:none;stroke-width:0.001;stroke-linecap:butt;stroke-linejoin:miter;stroke:rgb(10%,10%,10%);stroke-opacity:0.6;stroke-miterlimit:10;" d="M 0.0898372 0.571745 L 0.19653 0.68957 " transform="matrix(600,0,0,600,0,0)"/>
<path style="fill:none;stroke-width:0.001;stroke-linecap:butt;stroke-linejoin:miter;stroke:rgb(10%,10%,10%);stroke-opacity:0.6;stroke-miterlimit:10;" d="M 0.350202 0.439089 L 0.171328 0.439089 " transform="matrix(600,0,0,600,0,0)"/>
<path style="fill:none;stroke-width:0.001;stroke-linecap:butt;stroke-linejoin:miter;stroke:rgb(10%,10%,10%);stroke-opacity:0.6;stroke-miterlimit:10;" d="M 0.286361 0.852454 L 0.286361 0.955169 " transform="matrix(600,0,0,600,0,0)"/>
<path style="fill:none;stroke-width:0.001;stroke-linecap:butt;stroke-linejoin:miter;stroke:rgb(10%,10%,10%);stroke-opacity:0.6;stroke-miterlimit:10;" d="M 0.19653 0.68957 L 0.286361 0.852454 " transform="matrix(600,0,0,600,0,0)"/>
<path style="fill:none;stroke-width:0.001;stroke-linecap:butt;stroke-linejoin:miter;stroke:rgb(10%,10%,10%);stroke-opacity:0.6;stroke-miterlimit:10;" d="M 0.494622 0.552467 L 0.494622 0.831712 " transform="matrix(600,0,0,600,0,0)"/>
<path style="fill:none;stroke-width:0.001;stroke-linecap:butt;stroke-linejoin:miter;stroke:rgb(10%,10%,10%);stroke-opacity:0.6;stroke-miterlimit:10;" d="M 0.773867 0.552467 L 0.773867 0.831712 " transform="matrix(600,0,0,600,0,0)"/>
<path style="fill:none;stroke-width:0.001;stroke-linecap:butt;stroke-linejoin:miter;stroke:rgb(10%,10%,10%);stroke-opacity:0.6;stroke-miterlimit:10;" d="M 0.19653 0.68957 L 0.350202 0.439089 " transform="matrix(600,0,0,600,0,0)"/>
<path style="fill:none;stroke-width:0.001;stroke-linecap:butt;stroke-linejoin:miter;stroke:rgb(10%,10%,10%);stroke-opacity:0.6;stroke-miterlimit:10;" d="M 0.428822 0.62513 L 0.494622 0.831712 " transform="matrix(600,0,0,600,0,0)"/>
<path style="fill:none;stroke-width:0.001;stroke-linecap:butt;stroke-linejoin:miter;stroke:rgb(10%,10%,10%);stroke-opacity:0.6;stroke-miterlimit:10;" d="M 0.799473 0.492272 L 0.773867 0.831712 " transform="matrix(600,0,0,600,0,0)"/>
<path style="fill:none;stroke-width:0.001;stroke-linecap:butt;stroke-linejoin:miter;stroke:rgb(10%,10%,10%);stroke-opacity:0.6;stroke-miterlimit:10;" d="M 0.428822 0.62513 L 0.494622 0.552467 " transform="matrix(600,0,0,600,0,0)"/>
<path style="fill:none;stroke-width:0.001;stroke-linecap:butt;stroke-linejoin:miter;stroke:rgb(10%,10%,10%);stroke-opacity:0.6;stroke-miterlimit:10;" d="M 0.494622 0.552467 L 0.350202 0.260221 " transform="matrix(600,0,0,600,0,0)"/>
<path style="fill:none;stroke-width:0.001;stroke-linecap:butt;stroke-linejoin:miter;stroke:rgb(10%,10%,10%);stroke-opacity:0.6;stroke-miterlimit:10;" d="M 0.494622 0.831712 L 0.389076 0.852454 " transform="matrix(600,0,0,600,0,0)"/>
<path style="fill:none;stroke-width:0.001;stroke-linecap:butt;stroke-linejoin:miter;stroke:rgb(10%,10%,10%);stroke-opacity:0.6;stroke-miterlimit:10;" d="M 0.170085 0.125345 L 0.242819 0.0227214 " transform="matrix(600,0,0,600,0,0)"/>
<path style="fill:none;stroke-width:0.001;stroke-linecap:butt;stroke-linejoin:miter;stroke:rgb(10%,10%,10%);stroke-opacity:0.6;stroke-miterlimit:10;" d="M 0.389076 0.955169 L 0.286361 0.955169 " transform="matrix(600,0,0,600,0,0)"/>
<path style="fill:none;stroke-width:0.001;stroke-linecap:butt;stroke-linejoin:miter;stroke:rgb(10%,10%,10%);stroke-opacity:0.6;stroke-miterlimit:10;" d="M 0.0328776 0.701667 L 0.286361 0.852454 " transform="matrix(600,0,0,600,0,0)"/>
<path style="fill:none;stroke-width:0.003;stroke-linecap:butt;stroke-linejoin:miter;stroke:rgb(10%,10%,70%);stroke-opacity:0.6;stroke-miterlimit:10;" d="M 0.365202 0.439089 C 0.365202 0.44737 0.358483 0.454089 0.350202 0.454089 C 0.341914 0.454089 0.335202 0.44737 0.335202 0.439089 C 0.335202 0.430801 0.341914 0.424089 0.350202 0.424089 C 0.358483 0.424089 0.365202 0.430801 0.365202 0.439089 " transform="matrix(600,0,0,600,0,0)"/>
<path style="fill:none;stroke-width:0.003;stroke-linecap:butt;stroke-linejoin:miter;stroke:rgb(10%,10%,70%);stroke-opacity:0.6;stroke-miterlimit:10;" d="M 0.443822 0.62513 C 0.443822 0.633411 0.437109 0.64013 0.428822 0.64013 C 0.42054 0.64013 0.413822 0.633411 0.413822 0.62513 C 0.413822 0.616849 0.42054 0.61013 0.428822 0.61013 C 0.437109 0.61013 0.443822 0.616849 0.443822 0.62513 " transform="matrix(600,0,0,600,0,0)"/>
<path style="fill:none;stroke-width:0.003;stroke-linecap:butt;stroke-linejoin:miter;stroke:rgb(10%,10%,70%);stroke-opacity:0.6;stroke-miterlimit:10;" d="M 0.21153 0.68957 C 0.21153 0.697852 0.204818 0.70457 0.19653 0.70457 C 0.188249 0.70457 0.18153 0.697852 0.18153 0.68957 C 0.18153 0.681283 0.188249 0.67457 0.19653 0.67457 C 0.204818 0.67457 0.21153 0.681283 0.21153 0.68957 " transform="matrix(600,0,0,600,0,0)"/>
<path style="fill:none;stroke-width:0.003;stroke-linecap:butt;stroke-linejoin:miter;stroke:rgb(10%,10%,70%);stroke-opacity:0.6;stroke-miterlimit:10;" d="M 0.509622 0.552467 C 0.509622 0.560755 0.50291 0.567467 0.494622 0.567467 C 0.486341 0.567467 0.479622 0.560755 0.479622 0.552467 C 0.479622 0.544186 0.486341 0.537467 0.494622 0.537467 C 0.50291 0.537467 0.509622 0.544186 0.509622 0.552467 " transform="matrix(600,0,0,600,0,0)"/>
<path style="fill:none;stroke-width:0.003;stroke-linecap:butt;stroke-linejoin:miter;stroke:rgb(10%,10%,70%);stroke-opacity:0.6;stroke-miterlimit:10;" d="M 0.365202 0.260221 C 0.365202 0.268503 0.358483 0.275221 0.350202 0.275221 C 0.341914 0.275221 0.335202 0.268503 0.335202 0.260221 C 0.335202 0.251934 0.341914 0.245221 0.350202 0.245221 C 0.358483 0.245221 0.365202 0.251934 0.365202 0.260221 " transform="matrix(600,0,0,600,0,0)"/>
<path style="fill:none;stroke-width:0.003;stroke-linecap:butt;stroke-linejoin:miter;stroke:rgb(10%,10%,70%);stroke-opacity:0.6;stroke-miterlimit:10;" d="M 0.186328 0.439089 C 0.186328 0.44737 0.179616 0.454089 0.171328 0.454089 C 0.163047 0.454089 0.156328 0.44737 0.156328 0.439089 C 0.156328 0.430801 0.163047 0.424089 0.171328 0.424089 C 0.179616 0.424089 0.186328 0.430801 0.186328 0.439089 " transform="matrix(600,0,0,600,0,0)"/>
<path style="fill:none;stroke-width:0.003;stroke-linecap:butt;stroke-linejoin:miter;stroke:rgb(70%,10%,10%);stroke-opacity:0.6;stroke-miterlimit:10;" d="M 0.370202 0.439089 C 0.370202 0.450137 0.361243 0.459089 0.350202 0.459089 C 0.339154 0.459089 0.330202 0.450137 0.330202 0.439089 C 0.330202 0.42804 0.339154 0.419089 0.350202 0.419089 C 0.361243 0.419089 0.370202 0.42804 0.370202 0.439089 " transform="matrix(600,0,0,600,0,0)"/>
<path style="fill:none;stroke-width:0.003;stroke-linecap:butt;stroke-linejoin:miter;stroke:rgb(70%,10%,10%);stroke-opacity:0.6;stroke-miterlimit:10;" d="M 0.793867 0.831712 C 0.793867 0.842754 0.784909 0.851712 0.773867 0.851712 C 0.762819 0.851712 0.753867 0.842754 0.753867 0.831712 C 0.753867 0.820664 0.762819 0.811712 0.773867 0.811712 C 0.784909 0.811712 0.793867 0.820664 0.793867 0.831712 " transform="matrix(600,0,0,600,0,0)"/>
<path style="fill:none;stroke-width:0.003;stroke-linecap:butt;stroke-linejoin:miter;stroke:rgb(70%,10%,70%);stroke-opacity:0.6;stroke-miterlimit:10;" d="M 0.798867 0.831712 C 0.798867 0.845514 0.787669 0.856712 0.773867 0.856712 C 0.760059 0.856712 0.748867 0.845514 0.748867 0.831712 C 0.748867 0.817904 0.760059 0.806712 0.773867 0.806712 C 0.787669 0.806712 0.798867 0.817904 0.798867 0.831712 " transform="matrix(600,0,0,600,0,0)"/>
<path style="fill:none;stroke-width:0.003;stroke-linecap:butt;stroke-linejoin:miter;stroke:rgb(70%,10%,70%);stroke-opacity:0.6;stroke-miterlimit:10;" d="M 0.798867 0.831712 C 0.798867 0.845514 0.787669 0.856712 0.773867 0.856712 C 0.760059 0.856712 0.748867 0.845514 0.748867 0.831712 C 0.748867 0.817904 0.760059 0.806712 0.773867 0.806712 C 0.787669 0.806712 0.798867 0.817904 0.798867 0.831712 " transform="matrix(600,0,0,600,0,0)"/>
</g>
</svg>
