<?xml version="1.0" encoding="UTF-8"?>
<svg xmlns="http://www.w3.org/2000/svg" xmlns:xlink="http://www.w3.org/1999/xlink" width="600" height="600" viewBox="0 0 600 600">
<path fill="none" stroke-width="0.003" stroke-linecap="butt" stroke-linejoin="miter" stroke="rgb(70%, 30%, 30%)" stroke-opacity="0.6" stroke-miterlimit="10" d="M 0.494622 0.552467 L 0.773867 0.552467 L 0.773867 0.831712 L 0.494622 0.831712 L 0.494622 0.552467 " transform="matrix(600, 0, 0, 600, 0, 0)"/>
<path fill="none" stroke-width="0.003" stroke-linecap="butt" stroke-linejoin="miter" stroke="rgb(70%, 30%, 30%)" stroke-opacity="0.6" stroke-miterlimit="10" d="M 0.286361 0.852454 L 0.389076 0.852454 L 0.389076 0.955169 L 0.286361 0.955169 L 0.286361 0.852454 " transform="matrix(600, 0, 0, 600, 0, 0)"/>
<path fill="none" stroke-width="0.003" stroke-linecap="butt" stroke-linejoin="miter" stroke="rgb(30%, 70%, 30%)" stroke-opacity="0.6" stroke-miterlimit="10" d="M 0.46041 0.214479 C 0.46041 0.22 0.455938 0.224479 0.45041 0.224479 C 0.444889 0.224479 0.44041 0.22 0.44041 0.214479 C 0.44041 0.208958 0.444889 0.204479 0.45041 0.204479 C 0.455938 0.204479 0.46041 0.208958 0.46041 0.214479 " transform="matrix(600, 0, 0, 600, 0, 0)"/>
<path fill="none" stroke-width="0.003" stroke-linecap="butt" stroke-linejoin="miter" stroke="rgb(30%, 70%, 30%)" stroke-opacity="0.6" stroke-miterlimit="10" d="M 0.348861 0.428822 C 0.348861 0.434349 0.344382 0.438822 0.338861 0.438822 C 0.333333 0.438822 0.328861 0.434349 0.328861 0.428822 C 0.328861 0.423301 0.333333 0.418822 0.338861 0.418822 C 0.344382 0.418822 0.348861 0.423301 0.348861 0.428822 " transform="matrix(600, 0, 0, 600, 0, 0)"/>
<path fill="none" stroke-width="0.001" stroke-linecap="butt" stroke-linejoin="miter" stroke="rgb(10%, 10%, 10%)" stroke-opacity="0.6" stroke-miterlimit="10" d="M 0.773867 0.552467 L 0.773867 0.831712 " transform="matrix(600, 0, 0, 600, 0, 0)"/>
<path fill="none" stroke-width="0.001" stroke-linecap="butt" stroke-linejoin="miter" stroke="rgb(10%, 10%, 10%)" stroke-opacity="0.6" stroke-miterlimit="10" d="M 0.494622 0.831712 L 0.389076 0.852454 " transform="matrix(600, 0, 0, 600, 0, 0)"/>
<path fill="none" stroke-width="0.001" stroke-linecap="butt" stroke-linejoin="miter" stroke="rgb(10%, 10%, 10%)" stroke-opacity="0.6" stroke-miterlimit="10" d="M 0.45041 0.214479 L 0.494622 0.552467 " transform="matrix(600, 0, 0, 600, 0, 0)"/>
<path fill="none" stroke-width="0.001" stroke-linecap="butt" stroke-linejoin="miter" stroke="rgb(10%, 10%, 10%)" stroke-opacity="0.6" stroke-miterlimit="10" d="M 0.389076 0.955169 L 0.286361 0.955169 " transform="matrix(600, 0, 0, 600, 0, 0)"/>
<path fill="none" stroke-width="0.001" stroke-linecap="butt" stroke-linejoin="miter" stroke="rgb(10%, 10%, 10%)" stroke-opacity="0.6" stroke-miterlimit="10" d="M 0.494622 0.552467 L 0.494622 0.831712 " transform="matrix(600, 0, 0, 600, 0, 0)"/>
<path fill="none" stroke-width="0.001" stroke-linecap="butt" stroke-linejoin="miter" stroke="rgb(10%, 10%, 10%)" stroke-opacity="0.6" stroke-miterlimit="10" d="M 0.773867 0.831712 L 0.494622 0.831712 " transform="matrix(600, 0, 0, 600, 0, 0)"/>
<path fill="none" stroke-width="0.001" stroke-linecap="butt" stroke-linejoin="miter" stroke="rgb(10%, 10%, 10%)" stroke-opacity="0.6" stroke-miterlimit="10" d="M 0.45041 0.214479 L 0.338861 0.428822 " transform="matrix(600, 0, 0, 600, 0, 0)"/>
<path fill="none" stroke-width="0.001" stroke-linecap="butt" stroke-linejoin="miter" stroke="rgb(10%, 10%, 10%)" stroke-opacity="0.6" stroke-miterlimit="10" d="M 0.338861 0.428822 L 0.494622 0.552467 " transform="matrix(600, 0, 0, 600, 0, 0)"/>
<path fill="none" stroke-width="0.001" stroke-linecap="butt" stroke-linejoin="miter" stroke="rgb(10%, 10%, 10%)" stroke-opacity="0.6" stroke-miterlimit="10" d="M 0.494622 0.552467 L 0.389076 0.852454 " transform="matrix(600, 0, 0, 600, 0, 0)"/>
<path fill="none" stroke-width="0.001" stroke-linecap="butt" stroke-linejoin="miter" stroke="rgb(10%, 10%, 10%)" stroke-opacity="0.6" stroke-miterlimit="10" d="M 0.286361 0.852454 L 0.389076 0.852454 " transform="matrix(600, 0, 0, 600, 0, 0)"/>
<path fill="none" stroke-width="0.001" stroke-linecap="butt" stroke-linejoin="miter" stroke="rgb(10%, 10%, 10%)" stroke-opacity="0.6" stroke-miterlimit="10" d="M 0.494622 0.831712 L 0.389076 0.955169 " transform="matrix(600, 0, 0, 600, 0, 0)"/>
<path fill="none" stroke-width="0.001" stroke-linecap="butt" stroke-linejoin="miter" stroke="rgb(10%, 10%, 10%)" stroke-opacity="0.6" stroke-miterlimit="10" d="M 0.494622 0.552467 L 0.773867 0.552467 " transform="matrix(600, 0, 0, 600, 0, 0)"/>
<path fill="none" stroke-width="0.001" stroke-linecap="butt" stroke-linejoin="miter" stroke="rgb(10%, 10%, 10%)" stroke-opacity="0.6" stroke-miterlimit="10" d="M 0.286361 0.852454 L 0.286361 0.955169 " transform="matrix(600, 0, 0, 600, 0, 0)"/>
<path fill="none" stroke-width="0.001" stroke-linecap="butt" stroke-linejoin="miter" stroke="rgb(10%, 10%, 10%)" stroke-opacity="0.6" stroke-miterlimit="10" d="M 0.389076 0.852454 L 0.389076 0.955169 " transform="matrix(600, 0, 0, 600, 0, 0)"/>
<path fill="none" stroke-width="0.003" stroke-linecap="butt" stroke-linejoin="miter" stroke="rgb(10%, 10%, 70%)" stroke-opacity="0.6" stroke-miterlimit="10" d="M 0.404076 0.852454 C 0.404076 0.860742 0.397357 0.867454 0.389076 0.867454 C 0.380788 0.867454 0.374076 0.860742 0.374076 0.852454 C 0.374076 0.844173 0.380788 0.837454 0.389076 0.837454 C 0.397357 0.837454 0.404076 0.844173 0.404076 0.852454 " transform="matrix(600, 0, 0, 600, 0, 0)"/>
<path fill="none" stroke-width="0.003" stroke-linecap="butt" stroke-linejoin="miter" stroke="rgb(70%, 10%, 10%)" stroke-opacity="0.6" stroke-miterlimit="10" d="M 0.409076 0.955169 C 0.409076 0.966217 0.400117 0.975169 0.389076 0.975169 C 0.378027 0.975169 0.369076 0.966217 0.369076 0.955169 C 0.369076 0.944128 0.378027 0.935169 0.389076 0.935169 C 0.400117 0.935169 0.409076 0.944128 0.409076 0.955169 " transform="matrix(600, 0, 0, 600, 0, 0)"/>
</svg>
