<?xml version="1.0" encoding="UTF-8"?>
<svg xmlns="http://www.w3.org/2000/svg" xmlns:xlink="http://www.w3.org/1999/xlink" width="600" height="600" viewBox="0 0 600 600">
<path fill="none" stroke-width="0.003" stroke-linecap="butt" stroke-linejoin="miter" stroke="rgb(70%, 30%, 30%)" stroke-opacity="0.6" stroke-miterlimit="10" d="M 0.494622 0.552467 L 0.773867 0.552467 L 0.773867 0.831712 L 0.494622 0.831712 L 0.494622 0.552467 " transform="matrix(600, 0, 0, 600, 0, 0)"/>
<path fill="none" stroke-width="0.003" stroke-linecap="butt" stroke-linejoin="miter" stroke="rgb(70%, 30%, 30%)" stroke-opacity="0.6" stroke-miterlimit="10" d="M 0.286361 0.852454 L 0.389076 0.852454 L 0.389076 0.955169 L 0.286361 0.955169 L 0.286361 0.852454 " transform="matrix(600, 0, 0, 600, 0, 0)"/>
<path fill="none" stroke-width="0.003" stroke-linecap="butt" stroke-linejoin="miter" stroke="rgb(70%, 30%, 30%)" stroke-opacity="0.6" stroke-miterlimit="10" d="M 0.171328 0.260221 L 0.350202 0.260221 L 0.350202 0.439089 L 0.171328 0.439089 L 0.171328 0.260221 " transform="matrix(600, 0, 0, 600, 0, 0)"/>
<path fill="none" stroke-width="0.003" stroke-linecap="butt" stroke-linejoin="miter" stroke="rgb(70%, 30%, 30%)" stroke-opacity="0.6" stroke-miterlimit="10" d="M 0.517077 0.0316602 L 0.615 0.0316602 L 0.615 0.129583 L 0.517077 0.129583 L 0.517077 0.0316602 " transform="matrix(600, 0, 0, 600, 0, 0)"/>
<path fill="none" stroke-width="0.003" stroke-linecap="butt" stroke-linejoin="miter" stroke="rgb(70%, 30%, 30%)" stroke-opacity="0.6" stroke-miterlimit="10" d="M 0.171152 0.623542 L 0.271947 0.623542 L 0.271947 0.724336 L 0.171152 0.724336 L 0.171152 0.623542 " transform="matrix(600, 0, 0, 600, 0, 0)"/>
<path fill="none" stroke-width="0.003" stroke-linecap="butt" stroke-linejoin="miter" stroke="rgb(30%, 70%, 30%)" stroke-opacity="0.6" stroke-miterlimit="10" d="M 0.180085 0.125345 C 0.180085 0.130866 0.175605 0.135345 0.170085 0.135345 C 0.164557 0.135345 0.160085 0.130866 0.160085 0.125345 C 0.160085 0.119818 0.164557 0.115345 0.170085 0.115345 C 0.175605 0.115345 0.180085 0.119818 0.180085 0.125345 " transform="matrix(600, 0, 0, 600, 0, 0)"/>
<path fill="none" stroke-width="0.003" stroke-linecap="butt" stroke-linejoin="miter" stroke="rgb(30%, 70%, 30%)" stroke-opacity="0.6" stroke-miterlimit="10" d="M 0.0428776 0.701667 C 0.0428776 0.707194 0.0383984 0.711667 0.0328776 0.711667 C 0.0273568 0.711667 0.0228776 0.707194 0.0228776 0.701667 C 0.0228776 0.696146 0.0273568 0.691667 0.0328776 0.691667 C 0.0383984 0.691667 0.0428776 0.696146 0.0428776 0.701667 " transform="matrix(600, 0, 0, 600, 0, 0)"/>
<path fill="none" stroke-width="0.003" stroke-linecap="butt" stroke-linejoin="miter" stroke="rgb(30%, 70%, 30%)" stroke-opacity="0.6" stroke-miterlimit="10" d="M 0.861934 0.225273 C 0.861934 0.230794 0.857454 0.235273 0.851934 0.235273 C 0.846406 0.235273 0.841934 0.230794 0.841934 0.225273 C 0.841934 0.219753 0.846406 0.215273 0.851934 0.215273 C 0.857454 0.215273 0.861934 0.219753 0.861934 0.225273 " transform="matrix(600, 0, 0, 600, 0, 0)"/>
<path fill="none" stroke-width="0.001" stroke-linecap="butt" stroke-linejoin="miter" stroke="rgb(10%, 10%, 10%)" stroke-opacity="0.6" stroke-miterlimit="10" d="M 0.494622 0.831712 L 0.271947 0.724336 " transform="matrix(600, 0, 0, 600, 0, 0)"/>
<path fill="none" stroke-width="0.001" stroke-linecap="butt" stroke-linejoin="miter" stroke="rgb(10%, 10%, 10%)" stroke-opacity="0.6" stroke-miterlimit="10" d="M 0.494622 0.552467 L 0.773867 0.552467 " transform="matrix(600, 0, 0, 600, 0, 0)"/>
<path fill="none" stroke-width="0.001" stroke-linecap="butt" stroke-linejoin="miter" stroke="rgb(10%, 10%, 10%)" stroke-opacity="0.6" stroke-miterlimit="10" d="M 0.350202 0.260221 L 0.350202 0.439089 " transform="matrix(600, 0, 0, 600, 0, 0)"/>
<path fill="none" stroke-width="0.001" stroke-linecap="butt" stroke-linejoin="miter" stroke="rgb(10%, 10%, 10%)" stroke-opacity="0.6" stroke-miterlimit="10" d="M 0.271947 0.724336 L 0.171152 0.724336 " transform="matrix(600, 0, 0, 600, 0, 0)"/>
<path fill="none" stroke-width="0.001" stroke-linecap="butt" stroke-linejoin="miter" stroke="rgb(10%, 10%, 10%)" stroke-opacity="0.6" stroke-miterlimit="10" d="M 0.494622 0.552467 L 0.350202 0.439089 " transform="matrix(600, 0, 0, 600, 0, 0)"/>
<path fill="none" stroke-width="0.001" stroke-linecap="butt" stroke-linejoin="miter" stroke="rgb(10%, 10%, 10%)" stroke-opacity="0.6" stroke-miterlimit="10" d="M 0.171328 0.439089 L 0.171152 0.623542 " transform="matrix(600, 0, 0, 600, 0, 0)"/>
<path fill="none" stroke-width="0.001" stroke-linecap="butt" stroke-linejoin="miter" stroke="rgb(10%, 10%, 10%)" stroke-opacity="0.6" stroke-miterlimit="10" d="M 0.389076 0.852454 L 0.389076 0.955169 " transform="matrix(600, 0, 0, 600, 0, 0)"/>
<path fill="none" stroke-width="0.001" stroke-linecap="butt" stroke-linejoin="miter" stroke="rgb(10%, 10%, 10%)" stroke-opacity="0.6" stroke-miterlimit="10" d="M 0.615 0.129583 L 0.517077 0.129583 " transform="matrix(600, 0, 0, 600, 0, 0)"/>
<path fill="none" stroke-width="0.001" stroke-linecap="butt" stroke-linejoin="miter" stroke="rgb(10%, 10%, 10%)" stroke-opacity="0.6" stroke-miterlimit="10" d="M 0.171328 0.260221 L 0.171328 0.439089 " transform="matrix(600, 0, 0, 600, 0, 0)"/>
<path fill="none" stroke-width="0.001" stroke-linecap="butt" stroke-linejoin="miter" stroke="rgb(10%, 10%, 10%)" stroke-opacity="0.6" stroke-miterlimit="10" d="M 0.389076 0.852454 L 0.271947 0.724336 " transform="matrix(600, 0, 0, 600, 0, 0)"/>
<path fill="none" stroke-width="0.001" stroke-linecap="butt" stroke-linejoin="miter" stroke="rgb(10%, 10%, 10%)" stroke-opacity="0.6" stroke-miterlimit="10" d="M 0.170085 0.125345 L 0.171328 0.260221 " transform="matrix(600, 0, 0, 600, 0, 0)"/>
<path fill="none" stroke-width="0.001" stroke-linecap="butt" stroke-linejoin="miter" stroke="rgb(10%, 10%, 10%)" stroke-opacity="0.6" stroke-miterlimit="10" d="M 0.350202 0.439089 L 0.171328 0.439089 " transform="matrix(600, 0, 0, 600, 0, 0)"/>
<path fill="none" stroke-width="0.001" stroke-linecap="butt" stroke-linejoin="miter" stroke="rgb(10%, 10%, 10%)" stroke-opacity="0.6" stroke-miterlimit="10" d="M 0.851934 0.225273 L 0.615 0.129583 " transform="matrix(600, 0, 0, 600, 0, 0)"/>
<path fill="none" stroke-width="0.001" stroke-linecap="butt" stroke-linejoin="miter" stroke="rgb(10%, 10%, 10%)" stroke-opacity="0.6" stroke-miterlimit="10" d="M 0.350202 0.439089 L 0.271947 0.623542 " transform="matrix(600, 0, 0, 600, 0, 0)"/>
<path fill="none" stroke-width="0.001" stroke-linecap="butt" stroke-linejoin="miter" stroke="rgb(10%, 10%, 10%)" stroke-opacity="0.6" stroke-miterlimit="10" d="M 0.494622 0.831712 L 0.389076 0.852454 " transform="matrix(600, 0, 0, 600, 0, 0)"/>
<path fill="none" stroke-width="0.001" stroke-linecap="butt" stroke-linejoin="miter" stroke="rgb(10%, 10%, 10%)" stroke-opacity="0.6" stroke-miterlimit="10" d="M 0.286361 0.852454 L 0.286361 0.955169 " transform="matrix(600, 0, 0, 600, 0, 0)"/>
<path fill="none" stroke-width="0.001" stroke-linecap="butt" stroke-linejoin="miter" stroke="rgb(10%, 10%, 10%)" stroke-opacity="0.6" stroke-miterlimit="10" d="M 0.773867 0.552467 L 0.773867 0.831712 " transform="matrix(600, 0, 0, 600, 0, 0)"/>
<path fill="none" stroke-width="0.001" stroke-linecap="butt" stroke-linejoin="miter" stroke="rgb(10%, 10%, 10%)" stroke-opacity="0.6" stroke-miterlimit="10" d="M 0.286361 0.852454 L 0.171152 0.724336 " transform="matrix(600, 0, 0, 600, 0, 0)"/>
<path fill="none" stroke-width="0.001" stroke-linecap="butt" stroke-linejoin="miter" stroke="rgb(10%, 10%, 10%)" stroke-opacity="0.6" stroke-miterlimit="10" d="M 0.773867 0.831712 L 0.494622 0.831712 " transform="matrix(600, 0, 0, 600, 0, 0)"/>
<path fill="none" stroke-width="0.001" stroke-linecap="butt" stroke-linejoin="miter" stroke="rgb(10%, 10%, 10%)" stroke-opacity="0.6" stroke-miterlimit="10" d="M 0.350202 0.260221 L 0.517077 0.0316602 " transform="matrix(600, 0, 0, 600, 0, 0)"/>
<path fill="none" stroke-width="0.001" stroke-linecap="butt" stroke-linejoin="miter" stroke="rgb(10%, 10%, 10%)" stroke-opacity="0.6" stroke-miterlimit="10" d="M 0.494622 0.552467 L 0.494622 0.831712 " transform="matrix(600, 0, 0, 600, 0, 0)"/>
<path fill="none" stroke-width="0.001" stroke-linecap="butt" stroke-linejoin="miter" stroke="rgb(10%, 10%, 10%)" stroke-opacity="0.6" stroke-miterlimit="10" d="M 0.494622 0.552467 L 0.350202 0.260221 " transform="matrix(600, 0, 0, 600, 0, 0)"/>
<path fill="none" stroke-width="0.001" stroke-linecap="butt" stroke-linejoin="miter" stroke="rgb(10%, 10%, 10%)" stroke-opacity="0.6" stroke-miterlimit="10" d="M 0.350202 0.260221 L 0.517077 0.129583 " transform="matrix(600, 0, 0, 600, 0, 0)"/>
<path fill="none" stroke-width="0.001" stroke-linecap="butt" stroke-linejoin="miter" stroke="rgb(10%, 10%, 10%)" stroke-opacity="0.6" stroke-miterlimit="10" d="M 0.494622 0.552467 L 0.271947 0.724336 " transform="matrix(600, 0, 0, 600, 0, 0)"/>
<path fill="none" stroke-width="0.001" stroke-linecap="butt" stroke-linejoin="miter" stroke="rgb(10%, 10%, 10%)" stroke-opacity="0.6" stroke-miterlimit="10" d="M 0.494622 0.831712 L 0.389076 0.955169 " transform="matrix(600, 0, 0, 600, 0, 0)"/>
<path fill="none" stroke-width="0.001" stroke-linecap="butt" stroke-linejoin="miter" stroke="rgb(10%, 10%, 10%)" stroke-opacity="0.6" stroke-miterlimit="10" d="M 0.389076 0.955169 L 0.286361 0.955169 " transform="matrix(600, 0, 0, 600, 0, 0)"/>
<path fill="none" stroke-width="0.001" stroke-linecap="butt" stroke-linejoin="miter" stroke="rgb(10%, 10%, 10%)" stroke-opacity="0.6" stroke-miterlimit="10" d="M 0.851934 0.225273 L 0.773867 0.552467 " transform="matrix(600, 0, 0, 600, 0, 0)"/>
<path fill="none" stroke-width="0.001" stroke-linecap="butt" stroke-linejoin="miter" stroke="rgb(10%, 10%, 10%)" stroke-opacity="0.6" stroke-miterlimit="10" d="M 0.171152 0.623542 L 0.271947 0.623542 " transform="matrix(600, 0, 0, 600, 0, 0)"/>
<path fill="none" stroke-width="0.001" stroke-linecap="butt" stroke-linejoin="miter" stroke="rgb(10%, 10%, 10%)" stroke-opacity="0.6" stroke-miterlimit="10" d="M 0.851934 0.225273 L 0.615 0.0316602 " transform="matrix(600, 0, 0, 600, 0, 0)"/>
<path fill="none" stroke-width="0.001" stroke-linecap="butt" stroke-linejoin="miter" stroke="rgb(10%, 10%, 10%)" stroke-opacity="0.6" stroke-miterlimit="10" d="M 0.0328776 0.701667 L 0.171328 0.439089 " transform="matrix(600, 0, 0, 600, 0, 0)"/>
<path fill="none" stroke-width="0.001" stroke-linecap="butt" stroke-linejoin="miter" stroke="rgb(10%, 10%, 10%)" stroke-opacity="0.6" stroke-miterlimit="10" d="M 0.517077 0.0316602 L 0.615 0.0316602 " transform="matrix(600, 0, 0, 600, 0, 0)"/>
<path fill="none" stroke-width="0.001" stroke-linecap="butt" stroke-linejoin="miter" stroke="rgb(10%, 10%, 10%)" stroke-opacity="0.6" stroke-miterlimit="10" d="M 0.286361 0.852454 L 0.271947 0.724336 " transform="matrix(600, 0, 0, 600, 0, 0)"/>
<path fill="none" stroke-width="0.001" stroke-linecap="butt" stroke-linejoin="miter" stroke="rgb(10%, 10%, 10%)" stroke-opacity="0.6" stroke-miterlimit="10" d="M 0.271947 0.623542 L 0.271947 0.724336 " transform="matrix(600, 0, 0, 600, 0, 0)"/>
<path fill="none" stroke-width="0.001" stroke-linecap="butt" stroke-linejoin="miter" stroke="rgb(10%, 10%, 10%)" stroke-opacity="0.6" stroke-miterlimit="10" d="M 0.494622 0.552467 L 0.271947 0.623542 " transform="matrix(600, 0, 0, 600, 0, 0)"/>
<path fill="none" stroke-width="0.001" stroke-linecap="butt" stroke-linejoin="miter" stroke="rgb(10%, 10%, 10%)" stroke-opacity="0.6" stroke-miterlimit="10" d="M 0.171328 0.439089 L 0.271947 0.623542 " transform="matrix(600, 0, 0, 600, 0, 0)"/>
<path fill="none" stroke-width="0.001" stroke-linecap="butt" stroke-linejoin="miter" stroke="rgb(10%, 10%, 10%)" stroke-opacity="0.6" stroke-miterlimit="10" d="M 0.170085 0.125345 L 0.350202 0.260221 " transform="matrix(600, 0, 0, 600, 0, 0)"/>
<path fill="none" stroke-width="0.001" stroke-linecap="butt" stroke-linejoin="miter" stroke="rgb(10%, 10%, 10%)" stroke-opacity="0.6" stroke-miterlimit="10" d="M 0.171328 0.260221 L 0.350202 0.260221 " transform="matrix(600, 0, 0, 600, 0, 0)"/>
<path fill="none" stroke-width="0.001" stroke-linecap="butt" stroke-linejoin="miter" stroke="rgb(10%, 10%, 10%)" stroke-opacity="0.6" stroke-miterlimit="10" d="M 0.171152 0.623542 L 0.171152 0.724336 " transform="matrix(600, 0, 0, 600, 0, 0)"/>
<path fill="none" stroke-width="0.001" stroke-linecap="butt" stroke-linejoin="miter" stroke="rgb(10%, 10%, 10%)" stroke-opacity="0.6" stroke-miterlimit="10" d="M 0.286361 0.852454 L 0.389076 0.852454 " transform="matrix(600, 0, 0, 600, 0, 0)"/>
<path fill="none" stroke-width="0.001" stroke-linecap="butt" stroke-linejoin="miter" stroke="rgb(10%, 10%, 10%)" stroke-opacity="0.6" stroke-miterlimit="10" d="M 0.286361 0.955169 L 0.171152 0.724336 " transform="matrix(600, 0, 0, 600, 0, 0)"/>
<path fill="none" stroke-width="0.001" stroke-linecap="butt" stroke-linejoin="miter" stroke="rgb(10%, 10%, 10%)" stroke-opacity="0.6" stroke-miterlimit="10" d="M 0.0328776 0.701667 L 0.171152 0.623542 " transform="matrix(600, 0, 0, 600, 0, 0)"/>
<path fill="none" stroke-width="0.001" stroke-linecap="butt" stroke-linejoin="miter" stroke="rgb(10%, 10%, 10%)" stroke-opacity="0.6" stroke-miterlimit="10" d="M 0.517077 0.0316602 L 0.517077 0.129583 " transform="matrix(600, 0, 0, 600, 0, 0)"/>
<path fill="none" stroke-width="0.001" stroke-linecap="butt" stroke-linejoin="miter" stroke="rgb(10%, 10%, 10%)" stroke-opacity="0.6" stroke-miterlimit="10" d="M 0.615 0.0316602 L 0.615 0.129583 " transform="matrix(600, 0, 0, 600, 0, 0)"/>
<path fill="none" stroke-width="0.001" stroke-linecap="butt" stroke-linejoin="miter" stroke="rgb(10%, 10%, 10%)" stroke-opacity="0.6" stroke-miterlimit="10" d="M 0.0328776 0.701667 L 0.171152 0.724336 " transform="matrix(600, 0, 0, 600, 0, 0)"/>
<path fill="none" stroke-width="0.003" stroke-linecap="butt" stroke-linejoin="miter" stroke="rgb(10%, 10%, 70%)" stroke-opacity="0.6" stroke-miterlimit="10" d="M 0.0478776 0.701667 C 0.0478776 0.709954 0.0411589 0.716667 0.0328776 0.716667 C 0.0245964 0.716667 0.0178776 0.709954 0.0178776 0.701667 C 0.0178776 0.693385 0.0245964 0.686667 0.0328776 0.686667 C 0.0411589 0.686667 0.0478776 0.693385 0.0478776 0.701667 " transform="matrix(600, 0, 0, 600, 0, 0)"/>
<path fill="none" stroke-width="0.003" stroke-linecap="butt" stroke-linejoin="miter" stroke="rgb(10%, 10%, 70%)" stroke-opacity="0.6" stroke-miterlimit="10" d="M 0.185085 0.125345 C 0.185085 0.133626 0.178366 0.140345 0.170085 0.140345 C 0.161797 0.140345 0.155085 0.133626 0.155085 0.125345 C 0.155085 0.117057 0.161797 0.110345 0.170085 0.110345 C 0.178366 0.110345 0.185085 0.117057 0.185085 0.125345 " transform="matrix(600, 0, 0, 600, 0, 0)"/>
<path fill="none" stroke-width="0.003" stroke-linecap="butt" stroke-linejoin="miter" stroke="rgb(70%, 10%, 10%)" stroke-opacity="0.6" stroke-miterlimit="10" d="M 0.306361 0.852454 C 0.306361 0.863503 0.297402 0.872454 0.286361 0.872454 C 0.275313 0.872454 0.266361 0.863503 0.266361 0.852454 C 0.266361 0.841413 0.275313 0.832454 0.286361 0.832454 C 0.297402 0.832454 0.306361 0.841413 0.306361 0.852454 " transform="matrix(600, 0, 0, 600, 0, 0)"/>
<path fill="none" stroke-width="0.003" stroke-linecap="butt" stroke-linejoin="miter" stroke="rgb(70%, 10%, 10%)" stroke-opacity="0.6" stroke-miterlimit="10" d="M 0.306361 0.852454 C 0.306361 0.863503 0.297402 0.872454 0.286361 0.872454 C 0.275313 0.872454 0.266361 0.863503 0.266361 0.852454 C 0.266361 0.841413 0.275313 0.832454 0.286361 0.832454 C 0.297402 0.832454 0.306361 0.841413 0.306361 0.852454 " transform="matrix(600, 0, 0, 600, 0, 0)"/>
</svg>
