<?xml version="1.0" encoding="UTF-8"?>
<svg xmlns="http://www.w3.org/2000/svg" xmlns:xlink="http://www.w3.org/1999/xlink" width="600" height="600" viewBox="0 0 600 600">
<path fill="none" stroke-width="0.003" stroke-linecap="butt" stroke-linejoin="miter" stroke="rgb(70%, 30%, 30%)" stroke-opacity="0.6" stroke-miterlimit="10" d="M 0.494622 0.552467 L 0.773867 0.552467 L 0.773867 0.831712 L 0.494622 0.831712 L 0.494622 0.552467 " transform="matrix(600, 0, 0, 600, 0, 0)"/>
<path fill="none" stroke-width="0.003" stroke-linecap="butt" stroke-linejoin="miter" stroke="rgb(70%, 30%, 30%)" stroke-opacity="0.6" stroke-miterlimit="10" d="M 0.286361 0.852454 L 0.389076 0.852454 L 0.389076 0.955169 L 0.286361 0.955169 L 0.286361 0.852454 " transform="matrix(600, 0, 0, 600, 0, 0)"/>
<path fill="none" stroke-width="0.003" stroke-linecap="butt" stroke-linejoin="miter" stroke="rgb(70%, 30%, 30%)" stroke-opacity="0.6" stroke-miterlimit="10" d="M 0.171328 0.260221 L 0.350202 0.260221 L 0.350202 0.439089 L 0.171328 0.439089 L 0.171328 0.260221 " transform="matrix(600, 0, 0, 600, 0, 0)"/>
<path fill="none" stroke-width="0.003" stroke-linecap="butt" stroke-linejoin="miter" stroke="rgb(70%, 30%, 30%)" stroke-opacity="0.6" stroke-miterlimit="10" d="M 0.517077 0.0316602 L 0.615 0.0316602 L 0.615 0.129583 L 0.517077 0.129583 L 0.517077 0.0316602 " transform="matrix(600, 0, 0, 600, 0, 0)"/>
<path fill="none" stroke-width="0.003" stroke-linecap="butt" stroke-linejoin="miter" stroke="rgb(70%, 30%, 30%)" stroke-opacity="0.6" stroke-miterlimit="10" d="M 0.171152 0.623542 L 0.271947 0.623542 L 0.271947 0.724336 L 0.171152 0.724336 L 0.171152 0.623542 " transform="matrix(600, 0, 0, 600, 0, 0)"/>
<path fill="none" stroke-width="0.003" stroke-linecap="butt" stroke-linejoin="miter" stroke="rgb(70%, 30%, 30%)" stroke-opacity="0.6" stroke-miterlimit="10" d="M 0.591426 0.275827 L 0.674284 0.275827 L 0.674284 0.358685 L 0.591426 0.358685 L 0.591426 0.275827 " transform="matrix(600, 0, 0, 600, 0, 0)"/>
<path fill="none" stroke-width="0.003" stroke-linecap="butt" stroke-linejoin="miter" stroke="rgb(70%, 30%, 30%)" stroke-opacity="0.6" stroke-miterlimit="10" d="M 0.791139 0.00179036 L 0.8964 0.00179036 L 0.8964 0.107051 L 0.791139 0.107051 L 0.791139 0.00179036 " transform="matrix(600, 0, 0, 600, 0, 0)"/>
<path fill="none" stroke-width="0.003" stroke-linecap="butt" stroke-linejoin="miter" stroke="rgb(70%, 30%, 30%)" stroke-opacity="0.6" stroke-miterlimit="10" d="M 0.024707 0.199922 L 0.11446 0.199922 L 0.11446 0.289674 L 0.024707 0.289674 L 0.024707 0.199922 " transform="matrix(600, 0, 0, 600, 0, 0)"/>
<path fill="none" stroke-width="0.003" stroke-linecap="butt" stroke-linejoin="miter" stroke="rgb(30%, 70%, 30%)" stroke-opacity="0.6" stroke-miterlimit="10" d="M 0.0433073 0.663242 C 0.0433073 0.668763 0.0388346 0.673242 0.0333073 0.673242 C 0.0277865 0.673242 0.0233073 0.668763 0.0233073 0.663242 C 0.0233073 0.657715 0.0277865 0.653242 0.0333073 0.653242 C 0.0388346 0.653242 0.0433073 0.657715 0.0433073 0.663242 " transform="matrix(600, 0, 0, 600, 0, 0)"/>
<path fill="none" stroke-width="0.003" stroke-linecap="butt" stroke-linejoin="miter" stroke="rgb(30%, 70%, 30%)" stroke-opacity="0.6" stroke-miterlimit="10" d="M 0.325853 0.133516 C 0.325853 0.139036 0.321374 0.143516 0.315853 0.143516 C 0.310326 0.143516 0.305853 0.139036 0.305853 0.133516 C 0.305853 0.127995 0.310326 0.123516 0.315853 0.123516 C 0.321374 0.123516 0.325853 0.127995 0.325853 0.133516 " transform="matrix(600, 0, 0, 600, 0, 0)"/>
<path fill="none" stroke-width="0.003" stroke-linecap="butt" stroke-linejoin="miter" stroke="rgb(30%, 70%, 30%)" stroke-opacity="0.6" stroke-miterlimit="10" d="M 0.233639 0.203587 C 0.233639 0.209108 0.229167 0.213587 0.223639 0.213587 C 0.218118 0.213587 0.213639 0.209108 0.213639 0.203587 C 0.213639 0.19806 0.218118 0.193587 0.223639 0.193587 C 0.229167 0.193587 0.233639 0.19806 0.233639 0.203587 " transform="matrix(600, 0, 0, 600, 0, 0)"/>
<path fill="none" stroke-width="0.003" stroke-linecap="butt" stroke-linejoin="miter" stroke="rgb(30%, 70%, 30%)" stroke-opacity="0.6" stroke-miterlimit="10" d="M 0.655013 0.449551 C 0.655013 0.455072 0.650534 0.459551 0.645013 0.459551 C 0.639486 0.459551 0.635013 0.455072 0.635013 0.449551 C 0.635013 0.444023 0.639486 0.439551 0.645013 0.439551 C 0.650534 0.439551 0.655013 0.444023 0.655013 0.449551 " transform="matrix(600, 0, 0, 600, 0, 0)"/>
<path fill="none" stroke-width="0.003" stroke-linecap="butt" stroke-linejoin="miter" stroke="rgb(30%, 70%, 30%)" stroke-opacity="0.6" stroke-miterlimit="10" d="M 0.850143 0.900651 C 0.850143 0.906178 0.845664 0.910651 0.840143 0.910651 C 0.834622 0.910651 0.830143 0.906178 0.830143 0.900651 C 0.830143 0.89513 0.834622 0.890651 0.840143 0.890651 C 0.845664 0.890651 0.850143 0.89513 0.850143 0.900651 " transform="matrix(600, 0, 0, 600, 0, 0)"/>
<path fill="none" stroke-width="0.003" stroke-linecap="butt" stroke-linejoin="miter" stroke="rgb(30%, 70%, 30%)" stroke-opacity="0.6" stroke-miterlimit="10" d="M 0.880944 0.375768 C 0.880944 0.381296 0.876471 0.385768 0.870944 0.385768 C 0.865423 0.385768 0.860944 0.381296 0.860944 0.375768 C 0.860944 0.370247 0.865423 0.365768 0.870944 0.365768 C 0.876471 0.365768 0.880944 0.370247 0.880944 0.375768 " transform="matrix(600, 0, 0, 600, 0, 0)"/>
<path fill="none" stroke-width="0.001" stroke-linecap="butt" stroke-linejoin="miter" stroke="rgb(10%, 10%, 10%)" stroke-opacity="0.6" stroke-miterlimit="10" d="M 0.350202 0.260221 L 0.517077 0.129583 " transform="matrix(600, 0, 0, 600, 0, 0)"/>
<path fill="none" stroke-width="0.001" stroke-linecap="butt" stroke-linejoin="miter" stroke="rgb(10%, 10%, 10%)" stroke-opacity="0.6" stroke-miterlimit="10" d="M 0.350202 0.439089 L 0.591426 0.358685 " transform="matrix(600, 0, 0, 600, 0, 0)"/>
<path fill="none" stroke-width="0.001" stroke-linecap="butt" stroke-linejoin="miter" stroke="rgb(10%, 10%, 10%)" stroke-opacity="0.6" stroke-miterlimit="10" d="M 0.773867 0.831712 L 0.494622 0.831712 " transform="matrix(600, 0, 0, 600, 0, 0)"/>
<path fill="none" stroke-width="0.001" stroke-linecap="butt" stroke-linejoin="miter" stroke="rgb(10%, 10%, 10%)" stroke-opacity="0.6" stroke-miterlimit="10" d="M 0.024707 0.199922 L 0.024707 0.289674 " transform="matrix(600, 0, 0, 600, 0, 0)"/>
<path fill="none" stroke-width="0.001" stroke-linecap="butt" stroke-linejoin="miter" stroke="rgb(10%, 10%, 10%)" stroke-opacity="0.6" stroke-miterlimit="10" d="M 0.870944 0.375768 L 0.674284 0.358685 " transform="matrix(600, 0, 0, 600, 0, 0)"/>
<path fill="none" stroke-width="0.001" stroke-linecap="butt" stroke-linejoin="miter" stroke="rgb(10%, 10%, 10%)" stroke-opacity="0.6" stroke-miterlimit="10" d="M 0.315853 0.133516 L 0.350202 0.260221 " transform="matrix(600, 0, 0, 600, 0, 0)"/>
<path fill="none" stroke-width="0.001" stroke-linecap="butt" stroke-linejoin="miter" stroke="rgb(10%, 10%, 10%)" stroke-opacity="0.6" stroke-miterlimit="10" d="M 0.517077 0.0316602 L 0.615 0.0316602 " transform="matrix(600, 0, 0, 600, 0, 0)"/>
<path fill="none" stroke-width="0.001" stroke-linecap="butt" stroke-linejoin="miter" stroke="rgb(10%, 10%, 10%)" stroke-opacity="0.6" stroke-miterlimit="10" d="M 0.773867 0.552467 L 0.674284 0.358685 " transform="matrix(600, 0, 0, 600, 0, 0)"/>
<path fill="none" stroke-width="0.001" stroke-linecap="butt" stroke-linejoin="miter" stroke="rgb(10%, 10%, 10%)" stroke-opacity="0.6" stroke-miterlimit="10" d="M 0.645013 0.449551 L 0.494622 0.552467 " transform="matrix(600, 0, 0, 600, 0, 0)"/>
<path fill="none" stroke-width="0.001" stroke-linecap="butt" stroke-linejoin="miter" stroke="rgb(10%, 10%, 10%)" stroke-opacity="0.6" stroke-miterlimit="10" d="M 0.171328 0.260221 L 0.350202 0.260221 " transform="matrix(600, 0, 0, 600, 0, 0)"/>
<path fill="none" stroke-width="0.001" stroke-linecap="butt" stroke-linejoin="miter" stroke="rgb(10%, 10%, 10%)" stroke-opacity="0.6" stroke-miterlimit="10" d="M 0.171328 0.439089 L 0.271947 0.623542 " transform="matrix(600, 0, 0, 600, 0, 0)"/>
<path fill="none" stroke-width="0.001" stroke-linecap="butt" stroke-linejoin="miter" stroke="rgb(10%, 10%, 10%)" stroke-opacity="0.6" stroke-miterlimit="10" d="M 0.350202 0.260221 L 0.350202 0.439089 " transform="matrix(600, 0, 0, 600, 0, 0)"/>
<path fill="none" stroke-width="0.001" stroke-linecap="butt" stroke-linejoin="miter" stroke="rgb(10%, 10%, 10%)" stroke-opacity="0.6" stroke-miterlimit="10" d="M 0.517077 0.0316602 L 0.517077 0.129583 " transform="matrix(600, 0, 0, 600, 0, 0)"/>
<path fill="none" stroke-width="0.001" stroke-linecap="butt" stroke-linejoin="miter" stroke="rgb(10%, 10%, 10%)" stroke-opacity="0.6" stroke-miterlimit="10" d="M 0.315853 0.133516 L 0.11446 0.199922 " transform="matrix(600, 0, 0, 600, 0, 0)"/>
<path fill="none" stroke-width="0.001" stroke-linecap="butt" stroke-linejoin="miter" stroke="rgb(10%, 10%, 10%)" stroke-opacity="0.6" stroke-miterlimit="10" d="M 0.517077 0.0316602 L 0.791139 0.00179036 " transform="matrix(600, 0, 0, 600, 0, 0)"/>
<path fill="none" stroke-width="0.001" stroke-linecap="butt" stroke-linejoin="miter" stroke="rgb(10%, 10%, 10%)" stroke-opacity="0.6" stroke-miterlimit="10" d="M 0.171328 0.260221 L 0.171328 0.439089 " transform="matrix(600, 0, 0, 600, 0, 0)"/>
<path fill="none" stroke-width="0.001" stroke-linecap="butt" stroke-linejoin="miter" stroke="rgb(10%, 10%, 10%)" stroke-opacity="0.6" stroke-miterlimit="10" d="M 0.615 0.129583 L 0.791139 0.107051 " transform="matrix(600, 0, 0, 600, 0, 0)"/>
<path fill="none" stroke-width="0.001" stroke-linecap="butt" stroke-linejoin="miter" stroke="rgb(10%, 10%, 10%)" stroke-opacity="0.6" stroke-miterlimit="10" d="M 0.494622 0.831712 L 0.389076 0.955169 " transform="matrix(600, 0, 0, 600, 0, 0)"/>
<path fill="none" stroke-width="0.001" stroke-linecap="butt" stroke-linejoin="miter" stroke="rgb(10%, 10%, 10%)" stroke-opacity="0.6" stroke-miterlimit="10" d="M 0.171328 0.260221 L 0.11446 0.199922 " transform="matrix(600, 0, 0, 600, 0, 0)"/>
<path fill="none" stroke-width="0.001" stroke-linecap="butt" stroke-linejoin="miter" stroke="rgb(10%, 10%, 10%)" stroke-opacity="0.6" stroke-miterlimit="10" d="M 0.870944 0.375768 L 0.8964 0.107051 " transform="matrix(600, 0, 0, 600, 0, 0)"/>
<path fill="none" stroke-width="0.001" stroke-linecap="butt" stroke-linejoin="miter" stroke="rgb(10%, 10%, 10%)" stroke-opacity="0.6" stroke-miterlimit="10" d="M 0.350202 0.439089 L 0.171328 0.439089 " transform="matrix(600, 0, 0, 600, 0, 0)"/>
<path fill="none" stroke-width="0.001" stroke-linecap="butt" stroke-linejoin="miter" stroke="rgb(10%, 10%, 10%)" stroke-opacity="0.6" stroke-miterlimit="10" d="M 0.389076 0.955169 L 0.286361 0.955169 " transform="matrix(600, 0, 0, 600, 0, 0)"/>
<path fill="none" stroke-width="0.001" stroke-linecap="butt" stroke-linejoin="miter" stroke="rgb(10%, 10%, 10%)" stroke-opacity="0.6" stroke-miterlimit="10" d="M 0.870944 0.375768 L 0.773867 0.552467 " transform="matrix(600, 0, 0, 600, 0, 0)"/>
<path fill="none" stroke-width="0.001" stroke-linecap="butt" stroke-linejoin="miter" stroke="rgb(10%, 10%, 10%)" stroke-opacity="0.6" stroke-miterlimit="10" d="M 0.171152 0.623542 L 0.271947 0.623542 " transform="matrix(600, 0, 0, 600, 0, 0)"/>
<path fill="none" stroke-width="0.001" stroke-linecap="butt" stroke-linejoin="miter" stroke="rgb(10%, 10%, 10%)" stroke-opacity="0.6" stroke-miterlimit="10" d="M 0.615 0.129583 L 0.591426 0.275827 " transform="matrix(600, 0, 0, 600, 0, 0)"/>
<path fill="none" stroke-width="0.001" stroke-linecap="butt" stroke-linejoin="miter" stroke="rgb(10%, 10%, 10%)" stroke-opacity="0.6" stroke-miterlimit="10" d="M 0.645013 0.449551 L 0.674284 0.358685 " transform="matrix(600, 0, 0, 600, 0, 0)"/>
<path fill="none" stroke-width="0.001" stroke-linecap="butt" stroke-linejoin="miter" stroke="rgb(10%, 10%, 10%)" stroke-opacity="0.6" stroke-miterlimit="10" d="M 0.286361 0.852454 L 0.271947 0.724336 " transform="matrix(600, 0, 0, 600, 0, 0)"/>
<path fill="none" stroke-width="0.001" stroke-linecap="butt" stroke-linejoin="miter" stroke="rgb(10%, 10%, 10%)" stroke-opacity="0.6" stroke-miterlimit="10" d="M 0.315853 0.133516 L 0.517077 0.129583 " transform="matrix(600, 0, 0, 600, 0, 0)"/>
<path fill="none" stroke-width="0.001" stroke-linecap="butt" stroke-linejoin="miter" stroke="rgb(10%, 10%, 10%)" stroke-opacity="0.6" stroke-miterlimit="10" d="M 0.494622 0.552467 L 0.591426 0.358685 " transform="matrix(600, 0, 0, 600, 0, 0)"/>
<path fill="none" stroke-width="0.001" stroke-linecap="butt" stroke-linejoin="miter" stroke="rgb(10%, 10%, 10%)" stroke-opacity="0.6" stroke-miterlimit="10" d="M 0.171152 0.623542 L 0.171152 0.724336 " transform="matrix(600, 0, 0, 600, 0, 0)"/>
<path fill="none" stroke-width="0.001" stroke-linecap="butt" stroke-linejoin="miter" stroke="rgb(10%, 10%, 10%)" stroke-opacity="0.6" stroke-miterlimit="10" d="M 0.271947 0.623542 L 0.271947 0.724336 " transform="matrix(600, 0, 0, 600, 0, 0)"/>
<path fill="none" stroke-width="0.001" stroke-linecap="butt" stroke-linejoin="miter" stroke="rgb(10%, 10%, 10%)" stroke-opacity="0.6" stroke-miterlimit="10" d="M 0.615 0.0316602 L 0.615 0.129583 " transform="matrix(600, 0, 0, 600, 0, 0)"/>
<path fill="none" stroke-width="0.001" stroke-linecap="butt" stroke-linejoin="miter" stroke="rgb(10%, 10%, 10%)" stroke-opacity="0.6" stroke-miterlimit="10" d="M 0.674284 0.275827 L 0.791139 0.107051 " transform="matrix(600, 0, 0, 600, 0, 0)"/>
<path fill="none" stroke-width="0.001" stroke-linecap="butt" stroke-linejoin="miter" stroke="rgb(10%, 10%, 10%)" stroke-opacity="0.6" stroke-miterlimit="10" d="M 0.271947 0.724336 L 0.171152 0.724336 " transform="matrix(600, 0, 0, 600, 0, 0)"/>
<path fill="none" stroke-width="0.001" stroke-linecap="butt" stroke-linejoin="miter" stroke="rgb(10%, 10%, 10%)" stroke-opacity="0.6" stroke-miterlimit="10" d="M 0.0333073 0.663242 L 0.171152 0.724336 " transform="matrix(600, 0, 0, 600, 0, 0)"/>
<path fill="none" stroke-width="0.001" stroke-linecap="butt" stroke-linejoin="miter" stroke="rgb(10%, 10%, 10%)" stroke-opacity="0.6" stroke-miterlimit="10" d="M 0.615 0.129583 L 0.517077 0.129583 " transform="matrix(600, 0, 0, 600, 0, 0)"/>
<path fill="none" stroke-width="0.001" stroke-linecap="butt" stroke-linejoin="miter" stroke="rgb(10%, 10%, 10%)" stroke-opacity="0.6" stroke-miterlimit="10" d="M 0.223639 0.203587 L 0.350202 0.260221 " transform="matrix(600, 0, 0, 600, 0, 0)"/>
<path fill="none" stroke-width="0.001" stroke-linecap="butt" stroke-linejoin="miter" stroke="rgb(10%, 10%, 10%)" stroke-opacity="0.6" stroke-miterlimit="10" d="M 0.791139 0.00179036 L 0.8964 0.00179036 " transform="matrix(600, 0, 0, 600, 0, 0)"/>
<path fill="none" stroke-width="0.001" stroke-linecap="butt" stroke-linejoin="miter" stroke="rgb(10%, 10%, 10%)" stroke-opacity="0.6" stroke-miterlimit="10" d="M 0.350202 0.439089 L 0.271947 0.623542 " transform="matrix(600, 0, 0, 600, 0, 0)"/>
<path fill="none" stroke-width="0.001" stroke-linecap="butt" stroke-linejoin="miter" stroke="rgb(10%, 10%, 10%)" stroke-opacity="0.6" stroke-miterlimit="10" d="M 0.591426 0.275827 L 0.674284 0.275827 " transform="matrix(600, 0, 0, 600, 0, 0)"/>
<path fill="none" stroke-width="0.001" stroke-linecap="butt" stroke-linejoin="miter" stroke="rgb(10%, 10%, 10%)" stroke-opacity="0.6" stroke-miterlimit="10" d="M 0.645013 0.449551 L 0.773867 0.552467 " transform="matrix(600, 0, 0, 600, 0, 0)"/>
<path fill="none" stroke-width="0.001" stroke-linecap="butt" stroke-linejoin="miter" stroke="rgb(10%, 10%, 10%)" stroke-opacity="0.6" stroke-miterlimit="10" d="M 0.494622 0.552467 L 0.271947 0.724336 " transform="matrix(600, 0, 0, 600, 0, 0)"/>
<path fill="none" stroke-width="0.001" stroke-linecap="butt" stroke-linejoin="miter" stroke="rgb(10%, 10%, 10%)" stroke-opacity="0.6" stroke-miterlimit="10" d="M 0.8964 0.00179036 L 0.8964 0.107051 " transform="matrix(600, 0, 0, 600, 0, 0)"/>
<path fill="none" stroke-width="0.001" stroke-linecap="butt" stroke-linejoin="miter" stroke="rgb(10%, 10%, 10%)" stroke-opacity="0.6" stroke-miterlimit="10" d="M 0.674284 0.275827 L 0.674284 0.358685 " transform="matrix(600, 0, 0, 600, 0, 0)"/>
<path fill="none" stroke-width="0.001" stroke-linecap="butt" stroke-linejoin="miter" stroke="rgb(10%, 10%, 10%)" stroke-opacity="0.6" stroke-miterlimit="10" d="M 0.315853 0.133516 L 0.517077 0.0316602 " transform="matrix(600, 0, 0, 600, 0, 0)"/>
<path fill="none" stroke-width="0.001" stroke-linecap="butt" stroke-linejoin="miter" stroke="rgb(10%, 10%, 10%)" stroke-opacity="0.6" stroke-miterlimit="10" d="M 0.171328 0.439089 L 0.11446 0.289674 " transform="matrix(600, 0, 0, 600, 0, 0)"/>
<path fill="none" stroke-width="0.001" stroke-linecap="butt" stroke-linejoin="miter" stroke="rgb(10%, 10%, 10%)" stroke-opacity="0.6" stroke-miterlimit="10" d="M 0.791139 0.00179036 L 0.791139 0.107051 " transform="matrix(600, 0, 0, 600, 0, 0)"/>
<path fill="none" stroke-width="0.001" stroke-linecap="butt" stroke-linejoin="miter" stroke="rgb(10%, 10%, 10%)" stroke-opacity="0.6" stroke-miterlimit="10" d="M 0.615 0.0316602 L 0.791139 0.107051 " transform="matrix(600, 0, 0, 600, 0, 0)"/>
<path fill="none" stroke-width="0.001" stroke-linecap="butt" stroke-linejoin="miter" stroke="rgb(10%, 10%, 10%)" stroke-opacity="0.6" stroke-miterlimit="10" d="M 0.223639 0.203587 L 0.11446 0.199922 " transform="matrix(600, 0, 0, 600, 0, 0)"/>
<path fill="none" stroke-width="0.001" stroke-linecap="butt" stroke-linejoin="miter" stroke="rgb(10%, 10%, 10%)" stroke-opacity="0.6" stroke-miterlimit="10" d="M 0.350202 0.260221 L 0.591426 0.358685 " transform="matrix(600, 0, 0, 600, 0, 0)"/>
<path fill="none" stroke-width="0.001" stroke-linecap="butt" stroke-linejoin="miter" stroke="rgb(10%, 10%, 10%)" stroke-opacity="0.6" stroke-miterlimit="10" d="M 0.591426 0.275827 L 0.591426 0.358685 " transform="matrix(600, 0, 0, 600, 0, 0)"/>
<path fill="none" stroke-width="0.001" stroke-linecap="butt" stroke-linejoin="miter" stroke="rgb(10%, 10%, 10%)" stroke-opacity="0.6" stroke-miterlimit="10" d="M 0.840143 0.900651 L 0.773867 0.831712 " transform="matrix(600, 0, 0, 600, 0, 0)"/>
<path fill="none" stroke-width="0.001" stroke-linecap="butt" stroke-linejoin="miter" stroke="rgb(10%, 10%, 10%)" stroke-opacity="0.6" stroke-miterlimit="10" d="M 0.315853 0.133516 L 0.223639 0.203587 " transform="matrix(600, 0, 0, 600, 0, 0)"/>
<path fill="none" stroke-width="0.001" stroke-linecap="butt" stroke-linejoin="miter" stroke="rgb(10%, 10%, 10%)" stroke-opacity="0.6" stroke-miterlimit="10" d="M 0.674284 0.358685 L 0.591426 0.358685 " transform="matrix(600, 0, 0, 600, 0, 0)"/>
<path fill="none" stroke-width="0.001" stroke-linecap="butt" stroke-linejoin="miter" stroke="rgb(10%, 10%, 10%)" stroke-opacity="0.6" stroke-miterlimit="10" d="M 0.870944 0.375768 L 0.674284 0.275827 " transform="matrix(600, 0, 0, 600, 0, 0)"/>
<path fill="none" stroke-width="0.001" stroke-linecap="butt" stroke-linejoin="miter" stroke="rgb(10%, 10%, 10%)" stroke-opacity="0.6" stroke-miterlimit="10" d="M 0.0333073 0.663242 L 0.171152 0.623542 " transform="matrix(600, 0, 0, 600, 0, 0)"/>
<path fill="none" stroke-width="0.001" stroke-linecap="butt" stroke-linejoin="miter" stroke="rgb(10%, 10%, 10%)" stroke-opacity="0.6" stroke-miterlimit="10" d="M 0.286361 0.955169 L 0.171152 0.724336 " transform="matrix(600, 0, 0, 600, 0, 0)"/>
<path fill="none" stroke-width="0.001" stroke-linecap="butt" stroke-linejoin="miter" stroke="rgb(10%, 10%, 10%)" stroke-opacity="0.6" stroke-miterlimit="10" d="M 0.517077 0.129583 L 0.591426 0.275827 " transform="matrix(600, 0, 0, 600, 0, 0)"/>
<path fill="none" stroke-width="0.001" stroke-linecap="butt" stroke-linejoin="miter" stroke="rgb(10%, 10%, 10%)" stroke-opacity="0.6" stroke-miterlimit="10" d="M 0.171328 0.439089 L 0.171152 0.623542 " transform="matrix(600, 0, 0, 600, 0, 0)"/>
<path fill="none" stroke-width="0.001" stroke-linecap="butt" stroke-linejoin="miter" stroke="rgb(10%, 10%, 10%)" stroke-opacity="0.6" stroke-miterlimit="10" d="M 0.286361 0.852454 L 0.171152 0.724336 " transform="matrix(600, 0, 0, 600, 0, 0)"/>
<path fill="none" stroke-width="0.001" stroke-linecap="butt" stroke-linejoin="miter" stroke="rgb(10%, 10%, 10%)" stroke-opacity="0.6" stroke-miterlimit="10" d="M 0.389076 0.852454 L 0.271947 0.724336 " transform="matrix(600, 0, 0, 600, 0, 0)"/>
<path fill="none" stroke-width="0.001" stroke-linecap="butt" stroke-linejoin="miter" stroke="rgb(10%, 10%, 10%)" stroke-opacity="0.6" stroke-miterlimit="10" d="M 0.315853 0.133516 L 0.024707 0.199922 " transform="matrix(600, 0, 0, 600, 0, 0)"/>
<path fill="none" stroke-width="0.001" stroke-linecap="butt" stroke-linejoin="miter" stroke="rgb(10%, 10%, 10%)" stroke-opacity="0.6" stroke-miterlimit="10" d="M 0.11446 0.199922 L 0.11446 0.289674 " transform="matrix(600, 0, 0, 600, 0, 0)"/>
<path fill="none" stroke-width="0.001" stroke-linecap="butt" stroke-linejoin="miter" stroke="rgb(10%, 10%, 10%)" stroke-opacity="0.6" stroke-miterlimit="10" d="M 0.494622 0.831712 L 0.389076 0.852454 " transform="matrix(600, 0, 0, 600, 0, 0)"/>
<path fill="none" stroke-width="0.001" stroke-linecap="butt" stroke-linejoin="miter" stroke="rgb(10%, 10%, 10%)" stroke-opacity="0.6" stroke-miterlimit="10" d="M 0.11446 0.289674 L 0.024707 0.289674 " transform="matrix(600, 0, 0, 600, 0, 0)"/>
<path fill="none" stroke-width="0.001" stroke-linecap="butt" stroke-linejoin="miter" stroke="rgb(10%, 10%, 10%)" stroke-opacity="0.6" stroke-miterlimit="10" d="M 0.0333073 0.663242 L 0.171328 0.439089 " transform="matrix(600, 0, 0, 600, 0, 0)"/>
<path fill="none" stroke-width="0.001" stroke-linecap="butt" stroke-linejoin="miter" stroke="rgb(10%, 10%, 10%)" stroke-opacity="0.6" stroke-miterlimit="10" d="M 0.223639 0.203587 L 0.171328 0.260221 " transform="matrix(600, 0, 0, 600, 0, 0)"/>
<path fill="none" stroke-width="0.001" stroke-linecap="butt" stroke-linejoin="miter" stroke="rgb(10%, 10%, 10%)" stroke-opacity="0.6" stroke-miterlimit="10" d="M 0.615 0.0316602 L 0.791139 0.00179036 " transform="matrix(600, 0, 0, 600, 0, 0)"/>
<path fill="none" stroke-width="0.001" stroke-linecap="butt" stroke-linejoin="miter" stroke="rgb(10%, 10%, 10%)" stroke-opacity="0.6" stroke-miterlimit="10" d="M 0.8964 0.107051 L 0.791139 0.107051 " transform="matrix(600, 0, 0, 600, 0, 0)"/>
<path fill="none" stroke-width="0.001" stroke-linecap="butt" stroke-linejoin="miter" stroke="rgb(10%, 10%, 10%)" stroke-opacity="0.6" stroke-miterlimit="10" d="M 0.350202 0.260221 L 0.591426 0.275827 " transform="matrix(600, 0, 0, 600, 0, 0)"/>
<path fill="none" stroke-width="0.001" stroke-linecap="butt" stroke-linejoin="miter" stroke="rgb(10%, 10%, 10%)" stroke-opacity="0.6" stroke-miterlimit="10" d="M 0.494622 0.552467 L 0.271947 0.623542 " transform="matrix(600, 0, 0, 600, 0, 0)"/>
<path fill="none" stroke-width="0.001" stroke-linecap="butt" stroke-linejoin="miter" stroke="rgb(10%, 10%, 10%)" stroke-opacity="0.6" stroke-miterlimit="10" d="M 0.286361 0.852454 L 0.389076 0.852454 " transform="matrix(600, 0, 0, 600, 0, 0)"/>
<path fill="none" stroke-width="0.001" stroke-linecap="butt" stroke-linejoin="miter" stroke="rgb(10%, 10%, 10%)" stroke-opacity="0.6" stroke-miterlimit="10" d="M 0.171328 0.260221 L 0.11446 0.289674 " transform="matrix(600, 0, 0, 600, 0, 0)"/>
<path fill="none" stroke-width="0.001" stroke-linecap="butt" stroke-linejoin="miter" stroke="rgb(10%, 10%, 10%)" stroke-opacity="0.6" stroke-miterlimit="10" d="M 0.870944 0.375768 L 0.791139 0.107051 " transform="matrix(600, 0, 0, 600, 0, 0)"/>
<path fill="none" stroke-width="0.001" stroke-linecap="butt" stroke-linejoin="miter" stroke="rgb(10%, 10%, 10%)" stroke-opacity="0.6" stroke-miterlimit="10" d="M 0.494622 0.552467 L 0.773867 0.552467 " transform="matrix(600, 0, 0, 600, 0, 0)"/>
<path fill="none" stroke-width="0.001" stroke-linecap="butt" stroke-linejoin="miter" stroke="rgb(10%, 10%, 10%)" stroke-opacity="0.6" stroke-miterlimit="10" d="M 0.494622 0.552467 L 0.350202 0.439089 " transform="matrix(600, 0, 0, 600, 0, 0)"/>
<path fill="none" stroke-width="0.001" stroke-linecap="butt" stroke-linejoin="miter" stroke="rgb(10%, 10%, 10%)" stroke-opacity="0.6" stroke-miterlimit="10" d="M 0.615 0.129583 L 0.674284 0.275827 " transform="matrix(600, 0, 0, 600, 0, 0)"/>
<path fill="none" stroke-width="0.001" stroke-linecap="butt" stroke-linejoin="miter" stroke="rgb(10%, 10%, 10%)" stroke-opacity="0.6" stroke-miterlimit="10" d="M 0.024707 0.199922 L 0.11446 0.199922 " transform="matrix(600, 0, 0, 600, 0, 0)"/>
<path fill="none" stroke-width="0.001" stroke-linecap="butt" stroke-linejoin="miter" stroke="rgb(10%, 10%, 10%)" stroke-opacity="0.6" stroke-miterlimit="10" d="M 0.286361 0.852454 L 0.286361 0.955169 " transform="matrix(600, 0, 0, 600, 0, 0)"/>
<path fill="none" stroke-width="0.001" stroke-linecap="butt" stroke-linejoin="miter" stroke="rgb(10%, 10%, 10%)" stroke-opacity="0.6" stroke-miterlimit="10" d="M 0.645013 0.449551 L 0.591426 0.358685 " transform="matrix(600, 0, 0, 600, 0, 0)"/>
<path fill="none" stroke-width="0.001" stroke-linecap="butt" stroke-linejoin="miter" stroke="rgb(10%, 10%, 10%)" stroke-opacity="0.6" stroke-miterlimit="10" d="M 0.389076 0.852454 L 0.389076 0.955169 " transform="matrix(600, 0, 0, 600, 0, 0)"/>
<path fill="none" stroke-width="0.001" stroke-linecap="butt" stroke-linejoin="miter" stroke="rgb(10%, 10%, 10%)" stroke-opacity="0.6" stroke-miterlimit="10" d="M 0.494622 0.831712 L 0.271947 0.724336 " transform="matrix(600, 0, 0, 600, 0, 0)"/>
<path fill="none" stroke-width="0.001" stroke-linecap="butt" stroke-linejoin="miter" stroke="rgb(10%, 10%, 10%)" stroke-opacity="0.6" stroke-miterlimit="10" d="M 0.171328 0.439089 L 0.024707 0.289674 " transform="matrix(600, 0, 0, 600, 0, 0)"/>
<path fill="none" stroke-width="0.001" stroke-linecap="butt" stroke-linejoin="miter" stroke="rgb(10%, 10%, 10%)" stroke-opacity="0.6" stroke-miterlimit="10" d="M 0.494622 0.552467 L 0.494622 0.831712 " transform="matrix(600, 0, 0, 600, 0, 0)"/>
<path fill="none" stroke-width="0.001" stroke-linecap="butt" stroke-linejoin="miter" stroke="rgb(10%, 10%, 10%)" stroke-opacity="0.6" stroke-miterlimit="10" d="M 0.773867 0.552467 L 0.773867 0.831712 " transform="matrix(600, 0, 0, 600, 0, 0)"/>
<path fill="none" stroke-width="0.003" stroke-linecap="butt" stroke-linejoin="miter" stroke="rgb(10%, 10%, 70%)" stroke-opacity="0.6" stroke-miterlimit="10" d="M 0.186152 0.724336 C 0.186152 0.732624 0.179434 0.739336 0.171152 0.739336 C 0.162871 0.739336 0.156152 0.732624 0.156152 0.724336 C 0.156152 0.716055 0.162871 0.709336 0.171152 0.709336 C 0.179434 0.709336 0.186152 0.716055 0.186152 0.724336 " transform="matrix(600, 0, 0, 600, 0, 0)"/>
<path fill="none" stroke-width="0.003" stroke-linecap="butt" stroke-linejoin="miter" stroke="rgb(10%, 10%, 70%)" stroke-opacity="0.6" stroke-miterlimit="10" d="M 0.606426 0.358685 C 0.606426 0.366966 0.599714 0.373685 0.591426 0.373685 C 0.583145 0.373685 0.576426 0.366966 0.576426 0.358685 C 0.576426 0.350397 0.583145 0.343685 0.591426 0.343685 C 0.599714 0.343685 0.606426 0.350397 0.606426 0.358685 " transform="matrix(600, 0, 0, 600, 0, 0)"/>
<path fill="none" stroke-width="0.003" stroke-linecap="butt" stroke-linejoin="miter" stroke="rgb(70%, 10%, 10%)" stroke-opacity="0.6" stroke-miterlimit="10" d="M 0.537077 0.0316602 C 0.537077 0.0427083 0.528125 0.0516602 0.517077 0.0516602 C 0.506035 0.0516602 0.497077 0.0427083 0.497077 0.0316602 C 0.497077 0.020612 0.506035 0.0116602 0.517077 0.0116602 C 0.528125 0.0116602 0.537077 0.020612 0.537077 0.0316602 " transform="matrix(600, 0, 0, 600, 0, 0)"/>
<path fill="none" stroke-width="0.003" stroke-linecap="butt" stroke-linejoin="miter" stroke="rgb(70%, 10%, 10%)" stroke-opacity="0.6" stroke-miterlimit="10" d="M 0.537077 0.0316602 C 0.537077 0.0427083 0.528125 0.0516602 0.517077 0.0516602 C 0.506035 0.0516602 0.497077 0.0427083 0.497077 0.0316602 C 0.497077 0.020612 0.506035 0.0116602 0.517077 0.0116602 C 0.528125 0.0116602 0.537077 0.020612 0.537077 0.0316602 " transform="matrix(600, 0, 0, 600, 0, 0)"/>
</svg>
