<?xml version="1.0" encoding="UTF-8"?>
<svg xmlns="http://www.w3.org/2000/svg" xmlns:xlink="http://www.w3.org/1999/xlink" width="600pt" height="600pt" viewBox="0 0 600 600" version="1.1">
<g id="surface1">
<path style="fill:none;stroke-width:0.003;stroke-linecap:butt;stroke-linejoin:miter;stroke:rgb(70%,30%,30%);stroke-opacity:0.6;stroke-miterlimit:10;" d="M 0.494622 0.552467 L 0.773867 0.552467 L 0.773867 0.831712 L 0.494622 0.831712 L 0.494622 0.552467 " transform="matrix(600,0,0,600,0,0)"/>
<path style="fill:none;stroke-width:0.003;stroke-linecap:butt;stroke-linejoin:miter;stroke:rgb(70%,30%,30%);stroke-opacity:0.6;stroke-miterlimit:10;" d="M 0.286361 0.852454 L 0.389076 0.852454 L 0.389076 0.955169 L 0.286361 0.955169 L 0.286361 0.852454 " transform="matrix(600,0,0,600,0,0)"/>
<path style="fill:none;stroke-width:0.003;stroke-linecap:butt;stroke-linejoin:miter;stroke:rgb(70%,30%,30%);stroke-opacity:0.6;stroke-miterlimit:10;" d="M 0.171328 0.260221 L 0.350202 0.260221 L 0.350202 0.439089 L 0.171328 0.439089 L 0.171328 0.260221 " transform="matrix(600,0,0,600,0,0)"/>
<path style="fill:none;stroke-width:0.003;stroke-linecap:butt;stroke-linejoin:miter;stroke:rgb(70%,30%,30%);stroke-opacity:0.6;stroke-miterlimit:10;" d="M 0.517077 0.0316602 L 0.615 0.0316602 L 0.615 0.129583 L 0.517077 0.129583 L 0.517077 0.0316602 " transform="matrix(600,0,0,600,0,0)"/>
<path style="fill:none;stroke-width:0.003;stroke-linecap:butt;stroke-linejoin:miter;stroke:rgb(70%,30%,30%);stroke-opacity:0.6;stroke-miterlimit:10;" d="M 0.171152 0.623542 L 0.271947 0.623542 L 0.271947 0.724336 L 0.171152 0.724336 L 0.171152 0.623542 " transform="matrix(600,0,0,600,0,0)"/>
<path style="fill:none;stroke-width:0.003;stroke-linecap:butt;stroke-linejoin:miter;stroke:rgb(30%,70%,30%);stroke-opacity:0.6;stroke-miterlimit:10;" d="M 0.180085 0.125345 C 0.180085 0.130866 0.175605 0.135345 0.170085 0.135345 C 0.164557 0.135345 0.160085 0.130866 0.160085 0.125345 C 0.160085 0.119818 0.164557 0.115345 0.170085 0.115345 C 0.175605 0.115345 0.180085 0.119818 0.180085 0.125345 " transform="matrix(600,0,0,600,0,0)"/>
<path style="fill:none;stroke-width:0.003;stroke-linecap:butt;stroke-linejoin:miter;stroke:rgb(30%,70%,30%);stroke-opacity:0.6;stroke-miterlimit:10;" d="M 0.0428776 0.701667 C 0.0428776 0.707194 0.0383984 0.711667 0.0328776 0.711667 C 0.0273568 0.711667 0.0228776 0.707194 0.0228776 0.701667 C 0.0228776 0.696146 0.0273568 0.691667 0.0328776 0.691667 C 0.0383984 0.691667 0.0428776 0.696146 0.0428776 0.701667 " transform="matrix(600,0,0,600,0,0)"/>
<path style="fill:none;stroke-width:0.003;stroke-linecap:butt;stroke-linejoin:miter;stroke:rgb(30%,70%,30%);stroke-opacity:0.6;stroke-miterlimit:10;" d="M 0.861934 0.225273 C 0.861934 0.230794 0.857454 0.235273 0.851934 0.235273 C 0.846406 0.235273 0.841934 0.230794 0.841934 0.225273 C 0.841934 0.219753 0.846406 0.215273 0.851934 0.215273 C 0.857454 0.215273 0.861934 0.219753 0.861934 0.225273 " transform="matrix(600,0,0,600,0,0)"/>
<path style="fill:none;stroke-width:0.003;stroke-linecap:butt;stroke-linejoin:miter;stroke:rgb(30%,70%,30%);stroke-opacity:0.6;stroke-miterlimit:10;" d="M 0.252819 0.0227214 C 0.252819 0.0282422 0.24834 0.0327214 0.242819 0.0327214 C 0.237298 0.0327214 0.232819 0.0282422 0.232819 0.0227214 C 0.232819 0.0172005 0.237298 0.0127214 0.242819 0.0127214 C 0.24834 0.0127214 0.252819 0.0172005 0.252819 0.0227214 " transform="matrix(600,0,0,600,0,0)"/>
<path style="fill:none;stroke-width:0.001;stroke-linecap:butt;stroke-linejoin:miter;stroke:rgb(10%,10%,10%);stroke-opacity:0.6;stroke-miterlimit:10;" d="M 0.171328 0.439089 L 0.271947 0.623542 " transform="matrix(600,0,0,600,0,0)"/>
<path style="fill:none;stroke-width:0.001;stroke-linecap:butt;stroke-linejoin:miter;stroke:rgb(10%,10%,10%);stroke-opacity:0.6;stroke-miterlimit:10;" d="M 0.171152 0.623542 L 0.171152 0.724336 " transform="matrix(600,0,0,600,0,0)"/>
<path style="fill:none;stroke-width:0.001;stroke-linecap:butt;stroke-linejoin:miter;stroke:rgb(10%,10%,10%);stroke-opacity:0.6;stroke-miterlimit:10;" d="M 0.171328 0.260221 L 0.350202 0.260221 " transform="matrix(600,0,0,600,0,0)"/>
<path style="fill:none;stroke-width:0.001;stroke-linecap:butt;stroke-linejoin:miter;stroke:rgb(10%,10%,10%);stroke-opacity:0.6;stroke-miterlimit:10;" d="M 0.271947 0.623542 L 0.271947 0.724336 " transform="matrix(600,0,0,600,0,0)"/>
<path style="fill:none;stroke-width:0.001;stroke-linecap:butt;stroke-linejoin:miter;stroke:rgb(10%,10%,10%);stroke-opacity:0.6;stroke-miterlimit:10;" d="M 0.242819 0.0227214 L 0.517077 0.0316602 " transform="matrix(600,0,0,600,0,0)"/>
<path style="fill:none;stroke-width:0.001;stroke-linecap:butt;stroke-linejoin:miter;stroke:rgb(10%,10%,10%);stroke-opacity:0.6;stroke-miterlimit:10;" d="M 0.271947 0.724336 L 0.171152 0.724336 " transform="matrix(600,0,0,600,0,0)"/>
<path style="fill:none;stroke-width:0.001;stroke-linecap:butt;stroke-linejoin:miter;stroke:rgb(10%,10%,10%);stroke-opacity:0.6;stroke-miterlimit:10;" d="M 0.242819 0.0227214 L 0.350202 0.260221 " transform="matrix(600,0,0,600,0,0)"/>
<path style="fill:none;stroke-width:0.001;stroke-linecap:butt;stroke-linejoin:miter;stroke:rgb(10%,10%,10%);stroke-opacity:0.6;stroke-miterlimit:10;" d="M 0.242819 0.0227214 L 0.517077 0.129583 " transform="matrix(600,0,0,600,0,0)"/>
<path style="fill:none;stroke-width:0.001;stroke-linecap:butt;stroke-linejoin:miter;stroke:rgb(10%,10%,10%);stroke-opacity:0.6;stroke-miterlimit:10;" d="M 0.286361 0.852454 L 0.389076 0.852454 " transform="matrix(600,0,0,600,0,0)"/>
<path style="fill:none;stroke-width:0.001;stroke-linecap:butt;stroke-linejoin:miter;stroke:rgb(10%,10%,10%);stroke-opacity:0.6;stroke-miterlimit:10;" d="M 0.494622 0.552467 L 0.271947 0.623542 " transform="matrix(600,0,0,600,0,0)"/>
<path style="fill:none;stroke-width:0.001;stroke-linecap:butt;stroke-linejoin:miter;stroke:rgb(10%,10%,10%);stroke-opacity:0.6;stroke-miterlimit:10;" d="M 0.615 0.0316602 L 0.615 0.129583 " transform="matrix(600,0,0,600,0,0)"/>
<path style="fill:none;stroke-width:0.001;stroke-linecap:butt;stroke-linejoin:miter;stroke:rgb(10%,10%,10%);stroke-opacity:0.6;stroke-miterlimit:10;" d="M 0.851934 0.225273 L 0.773867 0.552467 " transform="matrix(600,0,0,600,0,0)"/>
<path style="fill:none;stroke-width:0.001;stroke-linecap:butt;stroke-linejoin:miter;stroke:rgb(10%,10%,10%);stroke-opacity:0.6;stroke-miterlimit:10;" d="M 0.286361 0.955169 L 0.171152 0.724336 " transform="matrix(600,0,0,600,0,0)"/>
<path style="fill:none;stroke-width:0.001;stroke-linecap:butt;stroke-linejoin:miter;stroke:rgb(10%,10%,10%);stroke-opacity:0.6;stroke-miterlimit:10;" d="M 0.350202 0.260221 L 0.350202 0.439089 " transform="matrix(600,0,0,600,0,0)"/>
<path style="fill:none;stroke-width:0.001;stroke-linecap:butt;stroke-linejoin:miter;stroke:rgb(10%,10%,10%);stroke-opacity:0.6;stroke-miterlimit:10;" d="M 0.851934 0.225273 L 0.615 0.0316602 " transform="matrix(600,0,0,600,0,0)"/>
<path style="fill:none;stroke-width:0.001;stroke-linecap:butt;stroke-linejoin:miter;stroke:rgb(10%,10%,10%);stroke-opacity:0.6;stroke-miterlimit:10;" d="M 0.0328776 0.701667 L 0.171328 0.439089 " transform="matrix(600,0,0,600,0,0)"/>
<path style="fill:none;stroke-width:0.001;stroke-linecap:butt;stroke-linejoin:miter;stroke:rgb(10%,10%,10%);stroke-opacity:0.6;stroke-miterlimit:10;" d="M 0.517077 0.0316602 L 0.517077 0.129583 " transform="matrix(600,0,0,600,0,0)"/>
<path style="fill:none;stroke-width:0.001;stroke-linecap:butt;stroke-linejoin:miter;stroke:rgb(10%,10%,10%);stroke-opacity:0.6;stroke-miterlimit:10;" d="M 0.494622 0.831712 L 0.389076 0.955169 " transform="matrix(600,0,0,600,0,0)"/>
<path style="fill:none;stroke-width:0.001;stroke-linecap:butt;stroke-linejoin:miter;stroke:rgb(10%,10%,10%);stroke-opacity:0.6;stroke-miterlimit:10;" d="M 0.615 0.129583 L 0.517077 0.129583 " transform="matrix(600,0,0,600,0,0)"/>
<path style="fill:none;stroke-width:0.001;stroke-linecap:butt;stroke-linejoin:miter;stroke:rgb(10%,10%,10%);stroke-opacity:0.6;stroke-miterlimit:10;" d="M 0.171328 0.439089 L 0.171152 0.623542 " transform="matrix(600,0,0,600,0,0)"/>
<path style="fill:none;stroke-width:0.001;stroke-linecap:butt;stroke-linejoin:miter;stroke:rgb(10%,10%,10%);stroke-opacity:0.6;stroke-miterlimit:10;" d="M 0.494622 0.552467 L 0.773867 0.552467 " transform="matrix(600,0,0,600,0,0)"/>
<path style="fill:none;stroke-width:0.001;stroke-linecap:butt;stroke-linejoin:miter;stroke:rgb(10%,10%,10%);stroke-opacity:0.6;stroke-miterlimit:10;" d="M 0.494622 0.831712 L 0.271947 0.724336 " transform="matrix(600,0,0,600,0,0)"/>
<path style="fill:none;stroke-width:0.001;stroke-linecap:butt;stroke-linejoin:miter;stroke:rgb(10%,10%,10%);stroke-opacity:0.6;stroke-miterlimit:10;" d="M 0.773867 0.552467 L 0.773867 0.831712 " transform="matrix(600,0,0,600,0,0)"/>
<path style="fill:none;stroke-width:0.001;stroke-linecap:butt;stroke-linejoin:miter;stroke:rgb(10%,10%,10%);stroke-opacity:0.6;stroke-miterlimit:10;" d="M 0.171328 0.260221 L 0.171328 0.439089 " transform="matrix(600,0,0,600,0,0)"/>
<path style="fill:none;stroke-width:0.001;stroke-linecap:butt;stroke-linejoin:miter;stroke:rgb(10%,10%,10%);stroke-opacity:0.6;stroke-miterlimit:10;" d="M 0.494622 0.552467 L 0.350202 0.439089 " transform="matrix(600,0,0,600,0,0)"/>
<path style="fill:none;stroke-width:0.001;stroke-linecap:butt;stroke-linejoin:miter;stroke:rgb(10%,10%,10%);stroke-opacity:0.6;stroke-miterlimit:10;" d="M 0.350202 0.439089 L 0.171328 0.439089 " transform="matrix(600,0,0,600,0,0)"/>
<path style="fill:none;stroke-width:0.001;stroke-linecap:butt;stroke-linejoin:miter;stroke:rgb(10%,10%,10%);stroke-opacity:0.6;stroke-miterlimit:10;" d="M 0.350202 0.439089 L 0.271947 0.623542 " transform="matrix(600,0,0,600,0,0)"/>
<path style="fill:none;stroke-width:0.001;stroke-linecap:butt;stroke-linejoin:miter;stroke:rgb(10%,10%,10%);stroke-opacity:0.6;stroke-miterlimit:10;" d="M 0.286361 0.852454 L 0.286361 0.955169 " transform="matrix(600,0,0,600,0,0)"/>
<path style="fill:none;stroke-width:0.001;stroke-linecap:butt;stroke-linejoin:miter;stroke:rgb(10%,10%,10%);stroke-opacity:0.6;stroke-miterlimit:10;" d="M 0.389076 0.852454 L 0.389076 0.955169 " transform="matrix(600,0,0,600,0,0)"/>
<path style="fill:none;stroke-width:0.001;stroke-linecap:butt;stroke-linejoin:miter;stroke:rgb(10%,10%,10%);stroke-opacity:0.6;stroke-miterlimit:10;" d="M 0.389076 0.955169 L 0.286361 0.955169 " transform="matrix(600,0,0,600,0,0)"/>
<path style="fill:none;stroke-width:0.001;stroke-linecap:butt;stroke-linejoin:miter;stroke:rgb(10%,10%,10%);stroke-opacity:0.6;stroke-miterlimit:10;" d="M 0.286361 0.852454 L 0.171152 0.724336 " transform="matrix(600,0,0,600,0,0)"/>
<path style="fill:none;stroke-width:0.001;stroke-linecap:butt;stroke-linejoin:miter;stroke:rgb(10%,10%,10%);stroke-opacity:0.6;stroke-miterlimit:10;" d="M 0.170085 0.125345 L 0.350202 0.260221 " transform="matrix(600,0,0,600,0,0)"/>
<path style="fill:none;stroke-width:0.001;stroke-linecap:butt;stroke-linejoin:miter;stroke:rgb(10%,10%,10%);stroke-opacity:0.6;stroke-miterlimit:10;" d="M 0.389076 0.852454 L 0.271947 0.724336 " transform="matrix(600,0,0,600,0,0)"/>
<path style="fill:none;stroke-width:0.001;stroke-linecap:butt;stroke-linejoin:miter;stroke:rgb(10%,10%,10%);stroke-opacity:0.6;stroke-miterlimit:10;" d="M 0.0328776 0.701667 L 0.171152 0.623542 " transform="matrix(600,0,0,600,0,0)"/>
<path style="fill:none;stroke-width:0.001;stroke-linecap:butt;stroke-linejoin:miter;stroke:rgb(10%,10%,10%);stroke-opacity:0.6;stroke-miterlimit:10;" d="M 0.350202 0.260221 L 0.517077 0.129583 " transform="matrix(600,0,0,600,0,0)"/>
<path style="fill:none;stroke-width:0.001;stroke-linecap:butt;stroke-linejoin:miter;stroke:rgb(10%,10%,10%);stroke-opacity:0.6;stroke-miterlimit:10;" d="M 0.0328776 0.701667 L 0.171152 0.724336 " transform="matrix(600,0,0,600,0,0)"/>
<path style="fill:none;stroke-width:0.001;stroke-linecap:butt;stroke-linejoin:miter;stroke:rgb(10%,10%,10%);stroke-opacity:0.6;stroke-miterlimit:10;" d="M 0.773867 0.831712 L 0.494622 0.831712 " transform="matrix(600,0,0,600,0,0)"/>
<path style="fill:none;stroke-width:0.001;stroke-linecap:butt;stroke-linejoin:miter;stroke:rgb(10%,10%,10%);stroke-opacity:0.6;stroke-miterlimit:10;" d="M 0.494622 0.831712 L 0.389076 0.852454 " transform="matrix(600,0,0,600,0,0)"/>
<path style="fill:none;stroke-width:0.001;stroke-linecap:butt;stroke-linejoin:miter;stroke:rgb(10%,10%,10%);stroke-opacity:0.6;stroke-miterlimit:10;" d="M 0.494622 0.552467 L 0.494622 0.831712 " transform="matrix(600,0,0,600,0,0)"/>
<path style="fill:none;stroke-width:0.001;stroke-linecap:butt;stroke-linejoin:miter;stroke:rgb(10%,10%,10%);stroke-opacity:0.6;stroke-miterlimit:10;" d="M 0.171152 0.623542 L 0.271947 0.623542 " transform="matrix(600,0,0,600,0,0)"/>
<path style="fill:none;stroke-width:0.001;stroke-linecap:butt;stroke-linejoin:miter;stroke:rgb(10%,10%,10%);stroke-opacity:0.6;stroke-miterlimit:10;" d="M 0.494622 0.552467 L 0.350202 0.260221 " transform="matrix(600,0,0,600,0,0)"/>
<path style="fill:none;stroke-width:0.001;stroke-linecap:butt;stroke-linejoin:miter;stroke:rgb(10%,10%,10%);stroke-opacity:0.6;stroke-miterlimit:10;" d="M 0.494622 0.552467 L 0.271947 0.724336 " transform="matrix(600,0,0,600,0,0)"/>
<path style="fill:none;stroke-width:0.001;stroke-linecap:butt;stroke-linejoin:miter;stroke:rgb(10%,10%,10%);stroke-opacity:0.6;stroke-miterlimit:10;" d="M 0.170085 0.125345 L 0.242819 0.0227214 " transform="matrix(600,0,0,600,0,0)"/>
<path style="fill:none;stroke-width:0.001;stroke-linecap:butt;stroke-linejoin:miter;stroke:rgb(10%,10%,10%);stroke-opacity:0.6;stroke-miterlimit:10;" d="M 0.170085 0.125345 L 0.171328 0.260221 " transform="matrix(600,0,0,600,0,0)"/>
<path style="fill:none;stroke-width:0.001;stroke-linecap:butt;stroke-linejoin:miter;stroke:rgb(10%,10%,10%);stroke-opacity:0.6;stroke-miterlimit:10;" d="M 0.286361 0.852454 L 0.271947 0.724336 " transform="matrix(600,0,0,600,0,0)"/>
<path style="fill:none;stroke-width:0.001;stroke-linecap:butt;stroke-linejoin:miter;stroke:rgb(10%,10%,10%);stroke-opacity:0.6;stroke-miterlimit:10;" d="M 0.851934 0.225273 L 0.615 0.129583 " transform="matrix(600,0,0,600,0,0)"/>
<path style="fill:none;stroke-width:0.001;stroke-linecap:butt;stroke-linejoin:miter;stroke:rgb(10%,10%,10%);stroke-opacity:0.6;stroke-miterlimit:10;" d="M 0.517077 0.0316602 L 0.615 0.0316602 " transform="matrix(600,0,0,600,0,0)"/>
<path style="fill:none;stroke-width:0.003;stroke-linecap:butt;stroke-linejoin:miter;stroke:rgb(10%,10%,70%);stroke-opacity:0.6;stroke-miterlimit:10;" d="M 0.532077 0.129583 C 0.532077 0.137865 0.525365 0.144583 0.517077 0.144583 C 0.508796 0.144583 0.502077 0.137865 0.502077 0.129583 C 0.502077 0.121296 0.508796 0.114583 0.517077 0.114583 C 0.525365 0.114583 0.532077 0.121296 0.532077 0.129583 " transform="matrix(600,0,0,600,0,0)"/>
<path style="fill:none;stroke-width:0.003;stroke-linecap:butt;stroke-linejoin:miter;stroke:rgb(10%,10%,70%);stroke-opacity:0.6;stroke-miterlimit:10;" d="M 0.404076 0.852454 C 0.404076 0.860742 0.397357 0.867454 0.389076 0.867454 C 0.380788 0.867454 0.374076 0.860742 0.374076 0.852454 C 0.374076 0.844173 0.380788 0.837454 0.389076 0.837454 C 0.397357 0.837454 0.404076 0.844173 0.404076 0.852454 " transform="matrix(600,0,0,600,0,0)"/>
<path style="fill:none;stroke-width:0.003;stroke-linecap:butt;stroke-linejoin:miter;stroke:rgb(10%,10%,70%);stroke-opacity:0.6;stroke-miterlimit:10;" d="M 0.301361 0.852454 C 0.301361 0.860742 0.294642 0.867454 0.286361 0.867454 C 0.278073 0.867454 0.271361 0.860742 0.271361 0.852454 C 0.271361 0.844173 0.278073 0.837454 0.286361 0.837454 C 0.294642 0.837454 0.301361 0.844173 0.301361 0.852454 " transform="matrix(600,0,0,600,0,0)"/>
<path style="fill:none;stroke-width:0.003;stroke-linecap:butt;stroke-linejoin:miter;stroke:rgb(10%,10%,70%);stroke-opacity:0.6;stroke-miterlimit:10;" d="M 0.509622 0.552467 C 0.509622 0.560755 0.50291 0.567467 0.494622 0.567467 C 0.486341 0.567467 0.479622 0.560755 0.479622 0.552467 C 0.479622 0.544186 0.486341 0.537467 0.494622 0.537467 C 0.50291 0.537467 0.509622 0.544186 0.509622 0.552467 " transform="matrix(600,0,0,600,0,0)"/>
<path style="fill:none;stroke-width:0.003;stroke-linecap:butt;stroke-linejoin:miter;stroke:rgb(70%,10%,10%);stroke-opacity:0.6;stroke-miterlimit:10;" d="M 0.191152 0.623542 C 0.191152 0.63459 0.182201 0.643542 0.171152 0.643542 C 0.160104 0.643542 0.151152 0.63459 0.151152 0.623542 C 0.151152 0.6125 0.160104 0.603542 0.171152 0.603542 C 0.182201 0.603542 0.191152 0.6125 0.191152 0.623542 " transform="matrix(600,0,0,600,0,0)"/>
<path style="fill:none;stroke-width:0.003;stroke-linecap:butt;stroke-linejoin:miter;stroke:rgb(70%,10%,10%);stroke-opacity:0.6;stroke-miterlimit:10;" d="M 0.191152 0.623542 C 0.191152 0.63459 0.182201 0.643542 0.171152 0.643542 C 0.160104 0.643542 0.151152 0.63459 0.151152 0.623542 C 0.151152 0.6125 0.160104 0.603542 0.171152 0.603542 C 0.182201 0.603542 0.191152 0.6125 0.191152 0.623542 " transform="matrix(600,0,0,600,0,0)"/>
<path style="fill:none;stroke-width:0.003;stroke-linecap:butt;stroke-linejoin:miter;stroke:rgb(70%,10%,10%);stroke-opacity:0.6;stroke-miterlimit:10;" d="M 0.191152 0.623542 C 0.191152 0.63459 0.182201 0.643542 0.171152 0.643542 C 0.160104 0.643542 0.151152 0.63459 0.151152 0.623542 C 0.151152 0.6125 0.160104 0.603542 0.171152 0.603542 C 0.182201 0.603542 0.191152 0.6125 0.191152 0.623542 " transform="matrix(600,0,0,600,0,0)"/>
<path style="fill:none;stroke-width:0.003;stroke-linecap:butt;stroke-linejoin:miter;stroke:rgb(70%,10%,10%);stroke-opacity:0.6;stroke-miterlimit:10;" d="M 0.191152 0.623542 C 0.191152 0.63459 0.182201 0.643542 0.171152 0.643542 C 0.160104 0.643542 0.151152 0.63459 0.151152 0.623542 C 0.151152 0.6125 0.160104 0.603542 0.171152 0.603542 C 0.182201 0.603542 0.191152 0.6125 0.191152 0.623542 " transform="matrix(600,0,0,600,0,0)"/>
</g>
</svg>
