<?xml version="1.0" encoding="UTF-8"?>
<svg xmlns="http://www.w3.org/2000/svg" xmlns:xlink="http://www.w3.org/1999/xlink" width="600pt" height="600pt" viewBox="0 0 600 600" version="1.1">
<g id="surface1">
<path style="fill:none;stroke-width:0.003;stroke-linecap:butt;stroke-linejoin:miter;stroke:rgb(70%,30%,30%);stroke-opacity:0.6;stroke-miterlimit:10;" d="M 0.494622 0.552467 L 0.773867 0.552467 L 0.773867 0.831712 L 0.494622 0.831712 L 0.494622 0.552467 " transform="matrix(600,0,0,600,0,0)"/>
<path style="fill:none;stroke-width:0.003;stroke-linecap:butt;stroke-linejoin:miter;stroke:rgb(70%,30%,30%);stroke-opacity:0.6;stroke-miterlimit:10;" d="M 0.286361 0.852454 L 0.389076 0.852454 L 0.389076 0.955169 L 0.286361 0.955169 L 0.286361 0.852454 " transform="matrix(600,0,0,600,0,0)"/>
<path style="fill:none;stroke-width:0.003;stroke-linecap:butt;stroke-linejoin:miter;stroke:rgb(70%,30%,30%);stroke-opacity:0.6;stroke-miterlimit:10;" d="M 0.171328 0.260221 L 0.350202 0.260221 L 0.350202 0.439089 L 0.171328 0.439089 L 0.171328 0.260221 " transform="matrix(600,0,0,600,0,0)"/>
<path style="fill:none;stroke-width:0.003;stroke-linecap:butt;stroke-linejoin:miter;stroke:rgb(70%,30%,30%);stroke-opacity:0.6;stroke-miterlimit:10;" d="M 0.517077 0.0316602 L 0.615 0.0316602 L 0.615 0.129583 L 0.517077 0.129583 L 0.517077 0.0316602 " transform="matrix(600,0,0,600,0,0)"/>
<path style="fill:none;stroke-width:0.003;stroke-linecap:butt;stroke-linejoin:miter;stroke:rgb(70%,30%,30%);stroke-opacity:0.6;stroke-miterlimit:10;" d="M 0.171152 0.623542 L 0.271947 0.623542 L 0.271947 0.724336 L 0.171152 0.724336 L 0.171152 0.623542 " transform="matrix(600,0,0,600,0,0)"/>
<path style="fill:none;stroke-width:0.003;stroke-linecap:butt;stroke-linejoin:miter;stroke:rgb(70%,30%,30%);stroke-opacity:0.6;stroke-miterlimit:10;" d="M 0.591426 0.275827 L 0.674284 0.275827 L 0.674284 0.358685 L 0.591426 0.358685 L 0.591426 0.275827 " transform="matrix(600,0,0,600,0,0)"/>
<path style="fill:none;stroke-width:0.003;stroke-linecap:butt;stroke-linejoin:miter;stroke:rgb(30%,70%,30%);stroke-opacity:0.6;stroke-miterlimit:10;" d="M 0.607741 0.448444 C 0.607741 0.453965 0.603262 0.458444 0.597741 0.458444 C 0.592214 0.458444 0.587741 0.453965 0.587741 0.448444 C 0.587741 0.442917 0.592214 0.438444 0.597741 0.438444 C 0.603262 0.438444 0.607741 0.442917 0.607741 0.448444 " transform="matrix(600,0,0,600,0,0)"/>
<path style="fill:none;stroke-width:0.003;stroke-linecap:butt;stroke-linejoin:miter;stroke:rgb(30%,70%,30%);stroke-opacity:0.6;stroke-miterlimit:10;" d="M 0.18138 0.92026 C 0.18138 0.925781 0.176901 0.93026 0.17138 0.93026 C 0.165853 0.93026 0.16138 0.925781 0.16138 0.92026 C 0.16138 0.914733 0.165853 0.91026 0.17138 0.91026 C 0.176901 0.91026 0.18138 0.914733 0.18138 0.92026 " transform="matrix(600,0,0,600,0,0)"/>
<path style="fill:none;stroke-width:0.003;stroke-linecap:butt;stroke-linejoin:miter;stroke:rgb(30%,70%,30%);stroke-opacity:0.6;stroke-miterlimit:10;" d="M 0.865905 0.686009 C 0.865905 0.69153 0.861432 0.696009 0.855905 0.696009 C 0.850384 0.696009 0.845905 0.69153 0.845905 0.686009 C 0.845905 0.680482 0.850384 0.676009 0.855905 0.676009 C 0.861432 0.676009 0.865905 0.680482 0.865905 0.686009 " transform="matrix(600,0,0,600,0,0)"/>
<path style="fill:none;stroke-width:0.001;stroke-linecap:butt;stroke-linejoin:miter;stroke:rgb(10%,10%,10%);stroke-opacity:0.6;stroke-miterlimit:10;" d="M 0.517077 0.129583 L 0.591426 0.275827 " transform="matrix(600,0,0,600,0,0)"/>
<path style="fill:none;stroke-width:0.001;stroke-linecap:butt;stroke-linejoin:miter;stroke:rgb(10%,10%,10%);stroke-opacity:0.6;stroke-miterlimit:10;" d="M 0.494622 0.552467 L 0.773867 0.552467 " transform="matrix(600,0,0,600,0,0)"/>
<path style="fill:none;stroke-width:0.001;stroke-linecap:butt;stroke-linejoin:miter;stroke:rgb(10%,10%,10%);stroke-opacity:0.6;stroke-miterlimit:10;" d="M 0.494622 0.831712 L 0.271947 0.724336 " transform="matrix(600,0,0,600,0,0)"/>
<path style="fill:none;stroke-width:0.001;stroke-linecap:butt;stroke-linejoin:miter;stroke:rgb(10%,10%,10%);stroke-opacity:0.6;stroke-miterlimit:10;" d="M 0.350202 0.260221 L 0.350202 0.439089 " transform="matrix(600,0,0,600,0,0)"/>
<path style="fill:none;stroke-width:0.001;stroke-linecap:butt;stroke-linejoin:miter;stroke:rgb(10%,10%,10%);stroke-opacity:0.6;stroke-miterlimit:10;" d="M 0.271947 0.724336 L 0.171152 0.724336 " transform="matrix(600,0,0,600,0,0)"/>
<path style="fill:none;stroke-width:0.001;stroke-linecap:butt;stroke-linejoin:miter;stroke:rgb(10%,10%,10%);stroke-opacity:0.6;stroke-miterlimit:10;" d="M 0.494622 0.552467 L 0.350202 0.439089 " transform="matrix(600,0,0,600,0,0)"/>
<path style="fill:none;stroke-width:0.001;stroke-linecap:butt;stroke-linejoin:miter;stroke:rgb(10%,10%,10%);stroke-opacity:0.6;stroke-miterlimit:10;" d="M 0.171328 0.439089 L 0.171152 0.623542 " transform="matrix(600,0,0,600,0,0)"/>
<path style="fill:none;stroke-width:0.001;stroke-linecap:butt;stroke-linejoin:miter;stroke:rgb(10%,10%,10%);stroke-opacity:0.6;stroke-miterlimit:10;" d="M 0.389076 0.852454 L 0.389076 0.955169 " transform="matrix(600,0,0,600,0,0)"/>
<path style="fill:none;stroke-width:0.001;stroke-linecap:butt;stroke-linejoin:miter;stroke:rgb(10%,10%,10%);stroke-opacity:0.6;stroke-miterlimit:10;" d="M 0.773867 0.552467 L 0.674284 0.275827 " transform="matrix(600,0,0,600,0,0)"/>
<path style="fill:none;stroke-width:0.001;stroke-linecap:butt;stroke-linejoin:miter;stroke:rgb(10%,10%,10%);stroke-opacity:0.6;stroke-miterlimit:10;" d="M 0.615 0.129583 L 0.517077 0.129583 " transform="matrix(600,0,0,600,0,0)"/>
<path style="fill:none;stroke-width:0.001;stroke-linecap:butt;stroke-linejoin:miter;stroke:rgb(10%,10%,10%);stroke-opacity:0.6;stroke-miterlimit:10;" d="M 0.171328 0.260221 L 0.171328 0.439089 " transform="matrix(600,0,0,600,0,0)"/>
<path style="fill:none;stroke-width:0.001;stroke-linecap:butt;stroke-linejoin:miter;stroke:rgb(10%,10%,10%);stroke-opacity:0.6;stroke-miterlimit:10;" d="M 0.855905 0.686009 L 0.773867 0.831712 " transform="matrix(600,0,0,600,0,0)"/>
<path style="fill:none;stroke-width:0.001;stroke-linecap:butt;stroke-linejoin:miter;stroke:rgb(10%,10%,10%);stroke-opacity:0.6;stroke-miterlimit:10;" d="M 0.615 0.129583 L 0.674284 0.275827 " transform="matrix(600,0,0,600,0,0)"/>
<path style="fill:none;stroke-width:0.001;stroke-linecap:butt;stroke-linejoin:miter;stroke:rgb(10%,10%,10%);stroke-opacity:0.6;stroke-miterlimit:10;" d="M 0.674284 0.358685 L 0.591426 0.358685 " transform="matrix(600,0,0,600,0,0)"/>
<path style="fill:none;stroke-width:0.001;stroke-linecap:butt;stroke-linejoin:miter;stroke:rgb(10%,10%,10%);stroke-opacity:0.6;stroke-miterlimit:10;" d="M 0.389076 0.852454 L 0.271947 0.724336 " transform="matrix(600,0,0,600,0,0)"/>
<path style="fill:none;stroke-width:0.001;stroke-linecap:butt;stroke-linejoin:miter;stroke:rgb(10%,10%,10%);stroke-opacity:0.6;stroke-miterlimit:10;" d="M 0.350202 0.439089 L 0.171328 0.439089 " transform="matrix(600,0,0,600,0,0)"/>
<path style="fill:none;stroke-width:0.001;stroke-linecap:butt;stroke-linejoin:miter;stroke:rgb(10%,10%,10%);stroke-opacity:0.6;stroke-miterlimit:10;" d="M 0.597741 0.448444 L 0.591426 0.358685 " transform="matrix(600,0,0,600,0,0)"/>
<path style="fill:none;stroke-width:0.001;stroke-linecap:butt;stroke-linejoin:miter;stroke:rgb(10%,10%,10%);stroke-opacity:0.6;stroke-miterlimit:10;" d="M 0.286361 0.852454 L 0.286361 0.955169 " transform="matrix(600,0,0,600,0,0)"/>
<path style="fill:none;stroke-width:0.001;stroke-linecap:butt;stroke-linejoin:miter;stroke:rgb(10%,10%,10%);stroke-opacity:0.6;stroke-miterlimit:10;" d="M 0.350202 0.439089 L 0.591426 0.358685 " transform="matrix(600,0,0,600,0,0)"/>
<path style="fill:none;stroke-width:0.001;stroke-linecap:butt;stroke-linejoin:miter;stroke:rgb(10%,10%,10%);stroke-opacity:0.6;stroke-miterlimit:10;" d="M 0.350202 0.439089 L 0.271947 0.623542 " transform="matrix(600,0,0,600,0,0)"/>
<path style="fill:none;stroke-width:0.001;stroke-linecap:butt;stroke-linejoin:miter;stroke:rgb(10%,10%,10%);stroke-opacity:0.6;stroke-miterlimit:10;" d="M 0.494622 0.831712 L 0.389076 0.852454 " transform="matrix(600,0,0,600,0,0)"/>
<path style="fill:none;stroke-width:0.001;stroke-linecap:butt;stroke-linejoin:miter;stroke:rgb(10%,10%,10%);stroke-opacity:0.6;stroke-miterlimit:10;" d="M 0.773867 0.552467 L 0.773867 0.831712 " transform="matrix(600,0,0,600,0,0)"/>
<path style="fill:none;stroke-width:0.001;stroke-linecap:butt;stroke-linejoin:miter;stroke:rgb(10%,10%,10%);stroke-opacity:0.6;stroke-miterlimit:10;" d="M 0.286361 0.852454 L 0.171152 0.724336 " transform="matrix(600,0,0,600,0,0)"/>
<path style="fill:none;stroke-width:0.001;stroke-linecap:butt;stroke-linejoin:miter;stroke:rgb(10%,10%,10%);stroke-opacity:0.6;stroke-miterlimit:10;" d="M 0.773867 0.831712 L 0.494622 0.831712 " transform="matrix(600,0,0,600,0,0)"/>
<path style="fill:none;stroke-width:0.001;stroke-linecap:butt;stroke-linejoin:miter;stroke:rgb(10%,10%,10%);stroke-opacity:0.6;stroke-miterlimit:10;" d="M 0.350202 0.260221 L 0.517077 0.0316602 " transform="matrix(600,0,0,600,0,0)"/>
<path style="fill:none;stroke-width:0.001;stroke-linecap:butt;stroke-linejoin:miter;stroke:rgb(10%,10%,10%);stroke-opacity:0.6;stroke-miterlimit:10;" d="M 0.494622 0.552467 L 0.494622 0.831712 " transform="matrix(600,0,0,600,0,0)"/>
<path style="fill:none;stroke-width:0.001;stroke-linecap:butt;stroke-linejoin:miter;stroke:rgb(10%,10%,10%);stroke-opacity:0.6;stroke-miterlimit:10;" d="M 0.350202 0.260221 L 0.517077 0.129583 " transform="matrix(600,0,0,600,0,0)"/>
<path style="fill:none;stroke-width:0.001;stroke-linecap:butt;stroke-linejoin:miter;stroke:rgb(10%,10%,10%);stroke-opacity:0.6;stroke-miterlimit:10;" d="M 0.591426 0.275827 L 0.674284 0.275827 " transform="matrix(600,0,0,600,0,0)"/>
<path style="fill:none;stroke-width:0.001;stroke-linecap:butt;stroke-linejoin:miter;stroke:rgb(10%,10%,10%);stroke-opacity:0.6;stroke-miterlimit:10;" d="M 0.494622 0.552467 L 0.271947 0.724336 " transform="matrix(600,0,0,600,0,0)"/>
<path style="fill:none;stroke-width:0.001;stroke-linecap:butt;stroke-linejoin:miter;stroke:rgb(10%,10%,10%);stroke-opacity:0.6;stroke-miterlimit:10;" d="M 0.389076 0.955169 L 0.286361 0.955169 " transform="matrix(600,0,0,600,0,0)"/>
<path style="fill:none;stroke-width:0.001;stroke-linecap:butt;stroke-linejoin:miter;stroke:rgb(10%,10%,10%);stroke-opacity:0.6;stroke-miterlimit:10;" d="M 0.855905 0.686009 L 0.773867 0.552467 " transform="matrix(600,0,0,600,0,0)"/>
<path style="fill:none;stroke-width:0.001;stroke-linecap:butt;stroke-linejoin:miter;stroke:rgb(10%,10%,10%);stroke-opacity:0.6;stroke-miterlimit:10;" d="M 0.615 0.129583 L 0.591426 0.275827 " transform="matrix(600,0,0,600,0,0)"/>
<path style="fill:none;stroke-width:0.001;stroke-linecap:butt;stroke-linejoin:miter;stroke:rgb(10%,10%,10%);stroke-opacity:0.6;stroke-miterlimit:10;" d="M 0.597741 0.448444 L 0.773867 0.552467 " transform="matrix(600,0,0,600,0,0)"/>
<path style="fill:none;stroke-width:0.001;stroke-linecap:butt;stroke-linejoin:miter;stroke:rgb(10%,10%,10%);stroke-opacity:0.6;stroke-miterlimit:10;" d="M 0.597741 0.448444 L 0.350202 0.439089 " transform="matrix(600,0,0,600,0,0)"/>
<path style="fill:none;stroke-width:0.001;stroke-linecap:butt;stroke-linejoin:miter;stroke:rgb(10%,10%,10%);stroke-opacity:0.6;stroke-miterlimit:10;" d="M 0.171152 0.623542 L 0.271947 0.623542 " transform="matrix(600,0,0,600,0,0)"/>
<path style="fill:none;stroke-width:0.001;stroke-linecap:butt;stroke-linejoin:miter;stroke:rgb(10%,10%,10%);stroke-opacity:0.6;stroke-miterlimit:10;" d="M 0.517077 0.0316602 L 0.517077 0.129583 " transform="matrix(600,0,0,600,0,0)"/>
<path style="fill:none;stroke-width:0.001;stroke-linecap:butt;stroke-linejoin:miter;stroke:rgb(10%,10%,10%);stroke-opacity:0.6;stroke-miterlimit:10;" d="M 0.674284 0.275827 L 0.674284 0.358685 " transform="matrix(600,0,0,600,0,0)"/>
<path style="fill:none;stroke-width:0.001;stroke-linecap:butt;stroke-linejoin:miter;stroke:rgb(10%,10%,10%);stroke-opacity:0.6;stroke-miterlimit:10;" d="M 0.597741 0.448444 L 0.674284 0.358685 " transform="matrix(600,0,0,600,0,0)"/>
<path style="fill:none;stroke-width:0.001;stroke-linecap:butt;stroke-linejoin:miter;stroke:rgb(10%,10%,10%);stroke-opacity:0.6;stroke-miterlimit:10;" d="M 0.517077 0.0316602 L 0.615 0.0316602 " transform="matrix(600,0,0,600,0,0)"/>
<path style="fill:none;stroke-width:0.001;stroke-linecap:butt;stroke-linejoin:miter;stroke:rgb(10%,10%,10%);stroke-opacity:0.6;stroke-miterlimit:10;" d="M 0.615 0.0316602 L 0.674284 0.275827 " transform="matrix(600,0,0,600,0,0)"/>
<path style="fill:none;stroke-width:0.001;stroke-linecap:butt;stroke-linejoin:miter;stroke:rgb(10%,10%,10%);stroke-opacity:0.6;stroke-miterlimit:10;" d="M 0.286361 0.852454 L 0.271947 0.724336 " transform="matrix(600,0,0,600,0,0)"/>
<path style="fill:none;stroke-width:0.001;stroke-linecap:butt;stroke-linejoin:miter;stroke:rgb(10%,10%,10%);stroke-opacity:0.6;stroke-miterlimit:10;" d="M 0.271947 0.623542 L 0.271947 0.724336 " transform="matrix(600,0,0,600,0,0)"/>
<path style="fill:none;stroke-width:0.001;stroke-linecap:butt;stroke-linejoin:miter;stroke:rgb(10%,10%,10%);stroke-opacity:0.6;stroke-miterlimit:10;" d="M 0.350202 0.260221 L 0.591426 0.275827 " transform="matrix(600,0,0,600,0,0)"/>
<path style="fill:none;stroke-width:0.001;stroke-linecap:butt;stroke-linejoin:miter;stroke:rgb(10%,10%,10%);stroke-opacity:0.6;stroke-miterlimit:10;" d="M 0.350202 0.260221 L 0.591426 0.358685 " transform="matrix(600,0,0,600,0,0)"/>
<path style="fill:none;stroke-width:0.001;stroke-linecap:butt;stroke-linejoin:miter;stroke:rgb(10%,10%,10%);stroke-opacity:0.6;stroke-miterlimit:10;" d="M 0.591426 0.275827 L 0.591426 0.358685 " transform="matrix(600,0,0,600,0,0)"/>
<path style="fill:none;stroke-width:0.001;stroke-linecap:butt;stroke-linejoin:miter;stroke:rgb(10%,10%,10%);stroke-opacity:0.6;stroke-miterlimit:10;" d="M 0.597741 0.448444 L 0.494622 0.552467 " transform="matrix(600,0,0,600,0,0)"/>
<path style="fill:none;stroke-width:0.001;stroke-linecap:butt;stroke-linejoin:miter;stroke:rgb(10%,10%,10%);stroke-opacity:0.6;stroke-miterlimit:10;" d="M 0.494622 0.552467 L 0.271947 0.623542 " transform="matrix(600,0,0,600,0,0)"/>
<path style="fill:none;stroke-width:0.001;stroke-linecap:butt;stroke-linejoin:miter;stroke:rgb(10%,10%,10%);stroke-opacity:0.6;stroke-miterlimit:10;" d="M 0.171328 0.439089 L 0.271947 0.623542 " transform="matrix(600,0,0,600,0,0)"/>
<path style="fill:none;stroke-width:0.001;stroke-linecap:butt;stroke-linejoin:miter;stroke:rgb(10%,10%,10%);stroke-opacity:0.6;stroke-miterlimit:10;" d="M 0.773867 0.552467 L 0.674284 0.358685 " transform="matrix(600,0,0,600,0,0)"/>
<path style="fill:none;stroke-width:0.001;stroke-linecap:butt;stroke-linejoin:miter;stroke:rgb(10%,10%,10%);stroke-opacity:0.6;stroke-miterlimit:10;" d="M 0.171328 0.260221 L 0.350202 0.260221 " transform="matrix(600,0,0,600,0,0)"/>
<path style="fill:none;stroke-width:0.001;stroke-linecap:butt;stroke-linejoin:miter;stroke:rgb(10%,10%,10%);stroke-opacity:0.6;stroke-miterlimit:10;" d="M 0.17138 0.92026 L 0.286361 0.852454 " transform="matrix(600,0,0,600,0,0)"/>
<path style="fill:none;stroke-width:0.001;stroke-linecap:butt;stroke-linejoin:miter;stroke:rgb(10%,10%,10%);stroke-opacity:0.6;stroke-miterlimit:10;" d="M 0.171152 0.623542 L 0.171152 0.724336 " transform="matrix(600,0,0,600,0,0)"/>
<path style="fill:none;stroke-width:0.001;stroke-linecap:butt;stroke-linejoin:miter;stroke:rgb(10%,10%,10%);stroke-opacity:0.6;stroke-miterlimit:10;" d="M 0.17138 0.92026 L 0.286361 0.955169 " transform="matrix(600,0,0,600,0,0)"/>
<path style="fill:none;stroke-width:0.001;stroke-linecap:butt;stroke-linejoin:miter;stroke:rgb(10%,10%,10%);stroke-opacity:0.6;stroke-miterlimit:10;" d="M 0.286361 0.852454 L 0.389076 0.852454 " transform="matrix(600,0,0,600,0,0)"/>
<path style="fill:none;stroke-width:0.001;stroke-linecap:butt;stroke-linejoin:miter;stroke:rgb(10%,10%,10%);stroke-opacity:0.6;stroke-miterlimit:10;" d="M 0.494622 0.831712 L 0.389076 0.955169 " transform="matrix(600,0,0,600,0,0)"/>
<path style="fill:none;stroke-width:0.001;stroke-linecap:butt;stroke-linejoin:miter;stroke:rgb(10%,10%,10%);stroke-opacity:0.6;stroke-miterlimit:10;" d="M 0.615 0.0316602 L 0.615 0.129583 " transform="matrix(600,0,0,600,0,0)"/>
<path style="fill:none;stroke-width:0.001;stroke-linecap:butt;stroke-linejoin:miter;stroke:rgb(10%,10%,10%);stroke-opacity:0.6;stroke-miterlimit:10;" d="M 0.17138 0.92026 L 0.171152 0.724336 " transform="matrix(600,0,0,600,0,0)"/>
<path style="fill:none;stroke-width:0.003;stroke-linecap:butt;stroke-linejoin:miter;stroke:rgb(10%,10%,70%);stroke-opacity:0.6;stroke-miterlimit:10;" d="M 0.532077 0.129583 C 0.532077 0.137865 0.525365 0.144583 0.517077 0.144583 C 0.508796 0.144583 0.502077 0.137865 0.502077 0.129583 C 0.502077 0.121296 0.508796 0.114583 0.517077 0.114583 C 0.525365 0.114583 0.532077 0.121296 0.532077 0.129583 " transform="matrix(600,0,0,600,0,0)"/>
<path style="fill:none;stroke-width:0.003;stroke-linecap:butt;stroke-linejoin:miter;stroke:rgb(10%,10%,70%);stroke-opacity:0.6;stroke-miterlimit:10;" d="M 0.365202 0.439089 C 0.365202 0.44737 0.358483 0.454089 0.350202 0.454089 C 0.341914 0.454089 0.335202 0.44737 0.335202 0.439089 C 0.335202 0.430801 0.341914 0.424089 0.350202 0.424089 C 0.358483 0.424089 0.365202 0.430801 0.365202 0.439089 " transform="matrix(600,0,0,600,0,0)"/>
<path style="fill:none;stroke-width:0.003;stroke-linecap:butt;stroke-linejoin:miter;stroke:rgb(10%,10%,70%);stroke-opacity:0.6;stroke-miterlimit:10;" d="M 0.186328 0.260221 C 0.186328 0.268503 0.179616 0.275221 0.171328 0.275221 C 0.163047 0.275221 0.156328 0.268503 0.156328 0.260221 C 0.156328 0.251934 0.163047 0.245221 0.171328 0.245221 C 0.179616 0.245221 0.186328 0.251934 0.186328 0.260221 " transform="matrix(600,0,0,600,0,0)"/>
<path style="fill:none;stroke-width:0.003;stroke-linecap:butt;stroke-linejoin:miter;stroke:rgb(70%,10%,10%);stroke-opacity:0.6;stroke-miterlimit:10;" d="M 0.694284 0.275827 C 0.694284 0.286875 0.685332 0.295827 0.674284 0.295827 C 0.663236 0.295827 0.654284 0.286875 0.654284 0.275827 C 0.654284 0.264779 0.663236 0.255827 0.674284 0.255827 C 0.685332 0.255827 0.694284 0.264779 0.694284 0.275827 " transform="matrix(600,0,0,600,0,0)"/>
<path style="fill:none;stroke-width:0.003;stroke-linecap:butt;stroke-linejoin:miter;stroke:rgb(70%,10%,10%);stroke-opacity:0.6;stroke-miterlimit:10;" d="M 0.694284 0.275827 C 0.694284 0.286875 0.685332 0.295827 0.674284 0.295827 C 0.663236 0.295827 0.654284 0.286875 0.654284 0.275827 C 0.654284 0.264779 0.663236 0.255827 0.674284 0.255827 C 0.685332 0.255827 0.694284 0.264779 0.694284 0.275827 " transform="matrix(600,0,0,600,0,0)"/>
<path style="fill:none;stroke-width:0.003;stroke-linecap:butt;stroke-linejoin:miter;stroke:rgb(70%,10%,10%);stroke-opacity:0.6;stroke-miterlimit:10;" d="M 0.694284 0.275827 C 0.694284 0.286875 0.685332 0.295827 0.674284 0.295827 C 0.663236 0.295827 0.654284 0.286875 0.654284 0.275827 C 0.654284 0.264779 0.663236 0.255827 0.674284 0.255827 C 0.685332 0.255827 0.694284 0.264779 0.694284 0.275827 " transform="matrix(600,0,0,600,0,0)"/>
</g>
</svg>
