<?xml version="1.0" encoding="UTF-8"?>
<svg xmlns="http://www.w3.org/2000/svg" xmlns:xlink="http://www.w3.org/1999/xlink" width="600" height="600" viewBox="0 0 600 600">
<path fill="none" stroke-width="0.003" stroke-linecap="butt" stroke-linejoin="miter" stroke="rgb(70%, 30%, 30%)" stroke-opacity="0.6" stroke-miterlimit="10" d="M 0.494622 0.552467 L 0.773867 0.552467 L 0.773867 0.831712 L 0.494622 0.831712 L 0.494622 0.552467 " transform="matrix(600, 0, 0, 600, 0, 0)"/>
<path fill="none" stroke-width="0.003" stroke-linecap="butt" stroke-linejoin="miter" stroke="rgb(70%, 30%, 30%)" stroke-opacity="0.6" stroke-miterlimit="10" d="M 0.286361 0.852454 L 0.389076 0.852454 L 0.389076 0.955169 L 0.286361 0.955169 L 0.286361 0.852454 " transform="matrix(600, 0, 0, 600, 0, 0)"/>
<path fill="none" stroke-width="0.003" stroke-linecap="butt" stroke-linejoin="miter" stroke="rgb(70%, 30%, 30%)" stroke-opacity="0.6" stroke-miterlimit="10" d="M 0.171328 0.260221 L 0.350202 0.260221 L 0.350202 0.439089 L 0.171328 0.439089 L 0.171328 0.260221 " transform="matrix(600, 0, 0, 600, 0, 0)"/>
<path fill="none" stroke-width="0.003" stroke-linecap="butt" stroke-linejoin="miter" stroke="rgb(70%, 30%, 30%)" stroke-opacity="0.6" stroke-miterlimit="10" d="M 0.517077 0.0316602 L 0.615 0.0316602 L 0.615 0.129583 L 0.517077 0.129583 L 0.517077 0.0316602 " transform="matrix(600, 0, 0, 600, 0, 0)"/>
<path fill="none" stroke-width="0.003" stroke-linecap="butt" stroke-linejoin="miter" stroke="rgb(70%, 30%, 30%)" stroke-opacity="0.6" stroke-miterlimit="10" d="M 0.171152 0.623542 L 0.271947 0.623542 L 0.271947 0.724336 L 0.171152 0.724336 L 0.171152 0.623542 " transform="matrix(600, 0, 0, 600, 0, 0)"/>
<path fill="none" stroke-width="0.003" stroke-linecap="butt" stroke-linejoin="miter" stroke="rgb(70%, 30%, 30%)" stroke-opacity="0.6" stroke-miterlimit="10" d="M 0.591426 0.275827 L 0.674284 0.275827 L 0.674284 0.358685 L 0.591426 0.358685 L 0.591426 0.275827 " transform="matrix(600, 0, 0, 600, 0, 0)"/>
<path fill="none" stroke-width="0.003" stroke-linecap="butt" stroke-linejoin="miter" stroke="rgb(30%, 70%, 30%)" stroke-opacity="0.6" stroke-miterlimit="10" d="M 0.607741 0.448444 C 0.607741 0.453965 0.603262 0.458444 0.597741 0.458444 C 0.592214 0.458444 0.587741 0.453965 0.587741 0.448444 C 0.587741 0.442917 0.592214 0.438444 0.597741 0.438444 C 0.603262 0.438444 0.607741 0.442917 0.607741 0.448444 " transform="matrix(600, 0, 0, 600, 0, 0)"/>
<path fill="none" stroke-width="0.003" stroke-linecap="butt" stroke-linejoin="miter" stroke="rgb(30%, 70%, 30%)" stroke-opacity="0.6" stroke-miterlimit="10" d="M 0.18138 0.92026 C 0.18138 0.925781 0.176901 0.93026 0.17138 0.93026 C 0.165853 0.93026 0.16138 0.925781 0.16138 0.92026 C 0.16138 0.914733 0.165853 0.91026 0.17138 0.91026 C 0.176901 0.91026 0.18138 0.914733 0.18138 0.92026 " transform="matrix(600, 0, 0, 600, 0, 0)"/>
<path fill="none" stroke-width="0.003" stroke-linecap="butt" stroke-linejoin="miter" stroke="rgb(30%, 70%, 30%)" stroke-opacity="0.6" stroke-miterlimit="10" d="M 0.865905 0.686009 C 0.865905 0.69153 0.861432 0.696009 0.855905 0.696009 C 0.850384 0.696009 0.845905 0.69153 0.845905 0.686009 C 0.845905 0.680482 0.850384 0.676009 0.855905 0.676009 C 0.861432 0.676009 0.865905 0.680482 0.865905 0.686009 " transform="matrix(600, 0, 0, 600, 0, 0)"/>
<path fill="none" stroke-width="0.003" stroke-linecap="butt" stroke-linejoin="miter" stroke="rgb(30%, 70%, 30%)" stroke-opacity="0.6" stroke-miterlimit="10" d="M 0.996081 0.578757 C 0.996081 0.584277 0.991608 0.588757 0.986081 0.588757 C 0.98056 0.588757 0.976081 0.584277 0.976081 0.578757 C 0.976081 0.573229 0.98056 0.568757 0.986081 0.568757 C 0.991608 0.568757 0.996081 0.573229 0.996081 0.578757 " transform="matrix(600, 0, 0, 600, 0, 0)"/>
<path fill="none" stroke-width="0.003" stroke-linecap="butt" stroke-linejoin="miter" stroke="rgb(30%, 70%, 30%)" stroke-opacity="0.6" stroke-miterlimit="10" d="M 0.357884 0.124023 C 0.357884 0.129544 0.353405 0.134023 0.347884 0.134023 C 0.342357 0.134023 0.337884 0.129544 0.337884 0.124023 C 0.337884 0.118496 0.342357 0.114023 0.347884 0.114023 C 0.353405 0.114023 0.357884 0.118496 0.357884 0.124023 " transform="matrix(600, 0, 0, 600, 0, 0)"/>
<path fill="none" stroke-width="0.001" stroke-linecap="butt" stroke-linejoin="miter" stroke="rgb(10%, 10%, 10%)" stroke-opacity="0.6" stroke-miterlimit="10" d="M 0.615 0.0316602 L 0.674284 0.275827 " transform="matrix(600, 0, 0, 600, 0, 0)"/>
<path fill="none" stroke-width="0.001" stroke-linecap="butt" stroke-linejoin="miter" stroke="rgb(10%, 10%, 10%)" stroke-opacity="0.6" stroke-miterlimit="10" d="M 0.674284 0.275827 L 0.674284 0.358685 " transform="matrix(600, 0, 0, 600, 0, 0)"/>
<path fill="none" stroke-width="0.001" stroke-linecap="butt" stroke-linejoin="miter" stroke="rgb(10%, 10%, 10%)" stroke-opacity="0.6" stroke-miterlimit="10" d="M 0.986081 0.578757 L 0.773867 0.831712 " transform="matrix(600, 0, 0, 600, 0, 0)"/>
<path fill="none" stroke-width="0.001" stroke-linecap="butt" stroke-linejoin="miter" stroke="rgb(10%, 10%, 10%)" stroke-opacity="0.6" stroke-miterlimit="10" d="M 0.171152 0.623542 L 0.271947 0.623542 " transform="matrix(600, 0, 0, 600, 0, 0)"/>
<path fill="none" stroke-width="0.001" stroke-linecap="butt" stroke-linejoin="miter" stroke="rgb(10%, 10%, 10%)" stroke-opacity="0.6" stroke-miterlimit="10" d="M 0.773867 0.552467 L 0.674284 0.358685 " transform="matrix(600, 0, 0, 600, 0, 0)"/>
<path fill="none" stroke-width="0.001" stroke-linecap="butt" stroke-linejoin="miter" stroke="rgb(10%, 10%, 10%)" stroke-opacity="0.6" stroke-miterlimit="10" d="M 0.271947 0.623542 L 0.271947 0.724336 " transform="matrix(600, 0, 0, 600, 0, 0)"/>
<path fill="none" stroke-width="0.001" stroke-linecap="butt" stroke-linejoin="miter" stroke="rgb(10%, 10%, 10%)" stroke-opacity="0.6" stroke-miterlimit="10" d="M 0.350202 0.260221 L 0.591426 0.275827 " transform="matrix(600, 0, 0, 600, 0, 0)"/>
<path fill="none" stroke-width="0.001" stroke-linecap="butt" stroke-linejoin="miter" stroke="rgb(10%, 10%, 10%)" stroke-opacity="0.6" stroke-miterlimit="10" d="M 0.597741 0.448444 L 0.494622 0.552467 " transform="matrix(600, 0, 0, 600, 0, 0)"/>
<path fill="none" stroke-width="0.001" stroke-linecap="butt" stroke-linejoin="miter" stroke="rgb(10%, 10%, 10%)" stroke-opacity="0.6" stroke-miterlimit="10" d="M 0.350202 0.260221 L 0.591426 0.358685 " transform="matrix(600, 0, 0, 600, 0, 0)"/>
<path fill="none" stroke-width="0.001" stroke-linecap="butt" stroke-linejoin="miter" stroke="rgb(10%, 10%, 10%)" stroke-opacity="0.6" stroke-miterlimit="10" d="M 0.517077 0.0316602 L 0.615 0.0316602 " transform="matrix(600, 0, 0, 600, 0, 0)"/>
<path fill="none" stroke-width="0.001" stroke-linecap="butt" stroke-linejoin="miter" stroke="rgb(10%, 10%, 10%)" stroke-opacity="0.6" stroke-miterlimit="10" d="M 0.494622 0.552467 L 0.271947 0.623542 " transform="matrix(600, 0, 0, 600, 0, 0)"/>
<path fill="none" stroke-width="0.001" stroke-linecap="butt" stroke-linejoin="miter" stroke="rgb(10%, 10%, 10%)" stroke-opacity="0.6" stroke-miterlimit="10" d="M 0.17138 0.92026 L 0.286361 0.852454 " transform="matrix(600, 0, 0, 600, 0, 0)"/>
<path fill="none" stroke-width="0.001" stroke-linecap="butt" stroke-linejoin="miter" stroke="rgb(10%, 10%, 10%)" stroke-opacity="0.6" stroke-miterlimit="10" d="M 0.674284 0.358685 L 0.591426 0.358685 " transform="matrix(600, 0, 0, 600, 0, 0)"/>
<path fill="none" stroke-width="0.001" stroke-linecap="butt" stroke-linejoin="miter" stroke="rgb(10%, 10%, 10%)" stroke-opacity="0.6" stroke-miterlimit="10" d="M 0.17138 0.92026 L 0.286361 0.955169 " transform="matrix(600, 0, 0, 600, 0, 0)"/>
<path fill="none" stroke-width="0.001" stroke-linecap="butt" stroke-linejoin="miter" stroke="rgb(10%, 10%, 10%)" stroke-opacity="0.6" stroke-miterlimit="10" d="M 0.286361 0.852454 L 0.271947 0.724336 " transform="matrix(600, 0, 0, 600, 0, 0)"/>
<path fill="none" stroke-width="0.001" stroke-linecap="butt" stroke-linejoin="miter" stroke="rgb(10%, 10%, 10%)" stroke-opacity="0.6" stroke-miterlimit="10" d="M 0.171328 0.260221 L 0.350202 0.260221 " transform="matrix(600, 0, 0, 600, 0, 0)"/>
<path fill="none" stroke-width="0.001" stroke-linecap="butt" stroke-linejoin="miter" stroke="rgb(10%, 10%, 10%)" stroke-opacity="0.6" stroke-miterlimit="10" d="M 0.591426 0.275827 L 0.591426 0.358685 " transform="matrix(600, 0, 0, 600, 0, 0)"/>
<path fill="none" stroke-width="0.001" stroke-linecap="butt" stroke-linejoin="miter" stroke="rgb(10%, 10%, 10%)" stroke-opacity="0.6" stroke-miterlimit="10" d="M 0.17138 0.92026 L 0.171152 0.724336 " transform="matrix(600, 0, 0, 600, 0, 0)"/>
<path fill="none" stroke-width="0.001" stroke-linecap="butt" stroke-linejoin="miter" stroke="rgb(10%, 10%, 10%)" stroke-opacity="0.6" stroke-miterlimit="10" d="M 0.171328 0.439089 L 0.271947 0.623542 " transform="matrix(600, 0, 0, 600, 0, 0)"/>
<path fill="none" stroke-width="0.001" stroke-linecap="butt" stroke-linejoin="miter" stroke="rgb(10%, 10%, 10%)" stroke-opacity="0.6" stroke-miterlimit="10" d="M 0.615 0.0316602 L 0.615 0.129583 " transform="matrix(600, 0, 0, 600, 0, 0)"/>
<path fill="none" stroke-width="0.001" stroke-linecap="butt" stroke-linejoin="miter" stroke="rgb(10%, 10%, 10%)" stroke-opacity="0.6" stroke-miterlimit="10" d="M 0.517077 0.129583 L 0.591426 0.275827 " transform="matrix(600, 0, 0, 600, 0, 0)"/>
<path fill="none" stroke-width="0.001" stroke-linecap="butt" stroke-linejoin="miter" stroke="rgb(10%, 10%, 10%)" stroke-opacity="0.6" stroke-miterlimit="10" d="M 0.494622 0.552467 L 0.773867 0.552467 " transform="matrix(600, 0, 0, 600, 0, 0)"/>
<path fill="none" stroke-width="0.001" stroke-linecap="butt" stroke-linejoin="miter" stroke="rgb(10%, 10%, 10%)" stroke-opacity="0.6" stroke-miterlimit="10" d="M 0.986081 0.578757 L 0.773867 0.552467 " transform="matrix(600, 0, 0, 600, 0, 0)"/>
<path fill="none" stroke-width="0.001" stroke-linecap="butt" stroke-linejoin="miter" stroke="rgb(10%, 10%, 10%)" stroke-opacity="0.6" stroke-miterlimit="10" d="M 0.347884 0.124023 L 0.350202 0.260221 " transform="matrix(600, 0, 0, 600, 0, 0)"/>
<path fill="none" stroke-width="0.001" stroke-linecap="butt" stroke-linejoin="miter" stroke="rgb(10%, 10%, 10%)" stroke-opacity="0.6" stroke-miterlimit="10" d="M 0.171152 0.623542 L 0.171152 0.724336 " transform="matrix(600, 0, 0, 600, 0, 0)"/>
<path fill="none" stroke-width="0.001" stroke-linecap="butt" stroke-linejoin="miter" stroke="rgb(10%, 10%, 10%)" stroke-opacity="0.6" stroke-miterlimit="10" d="M 0.347884 0.124023 L 0.517077 0.0316602 " transform="matrix(600, 0, 0, 600, 0, 0)"/>
<path fill="none" stroke-width="0.001" stroke-linecap="butt" stroke-linejoin="miter" stroke="rgb(10%, 10%, 10%)" stroke-opacity="0.6" stroke-miterlimit="10" d="M 0.271947 0.724336 L 0.171152 0.724336 " transform="matrix(600, 0, 0, 600, 0, 0)"/>
<path fill="none" stroke-width="0.001" stroke-linecap="butt" stroke-linejoin="miter" stroke="rgb(10%, 10%, 10%)" stroke-opacity="0.6" stroke-miterlimit="10" d="M 0.350202 0.260221 L 0.350202 0.439089 " transform="matrix(600, 0, 0, 600, 0, 0)"/>
<path fill="none" stroke-width="0.001" stroke-linecap="butt" stroke-linejoin="miter" stroke="rgb(10%, 10%, 10%)" stroke-opacity="0.6" stroke-miterlimit="10" d="M 0.494622 0.831712 L 0.389076 0.955169 " transform="matrix(600, 0, 0, 600, 0, 0)"/>
<path fill="none" stroke-width="0.001" stroke-linecap="butt" stroke-linejoin="miter" stroke="rgb(10%, 10%, 10%)" stroke-opacity="0.6" stroke-miterlimit="10" d="M 0.347884 0.124023 L 0.517077 0.129583 " transform="matrix(600, 0, 0, 600, 0, 0)"/>
<path fill="none" stroke-width="0.001" stroke-linecap="butt" stroke-linejoin="miter" stroke="rgb(10%, 10%, 10%)" stroke-opacity="0.6" stroke-miterlimit="10" d="M 0.286361 0.852454 L 0.389076 0.852454 " transform="matrix(600, 0, 0, 600, 0, 0)"/>
<path fill="none" stroke-width="0.001" stroke-linecap="butt" stroke-linejoin="miter" stroke="rgb(10%, 10%, 10%)" stroke-opacity="0.6" stroke-miterlimit="10" d="M 0.494622 0.552467 L 0.350202 0.439089 " transform="matrix(600, 0, 0, 600, 0, 0)"/>
<path fill="none" stroke-width="0.001" stroke-linecap="butt" stroke-linejoin="miter" stroke="rgb(10%, 10%, 10%)" stroke-opacity="0.6" stroke-miterlimit="10" d="M 0.389076 0.852454 L 0.389076 0.955169 " transform="matrix(600, 0, 0, 600, 0, 0)"/>
<path fill="none" stroke-width="0.001" stroke-linecap="butt" stroke-linejoin="miter" stroke="rgb(10%, 10%, 10%)" stroke-opacity="0.6" stroke-miterlimit="10" d="M 0.855905 0.686009 L 0.773867 0.831712 " transform="matrix(600, 0, 0, 600, 0, 0)"/>
<path fill="none" stroke-width="0.001" stroke-linecap="butt" stroke-linejoin="miter" stroke="rgb(10%, 10%, 10%)" stroke-opacity="0.6" stroke-miterlimit="10" d="M 0.517077 0.0316602 L 0.517077 0.129583 " transform="matrix(600, 0, 0, 600, 0, 0)"/>
<path fill="none" stroke-width="0.001" stroke-linecap="butt" stroke-linejoin="miter" stroke="rgb(10%, 10%, 10%)" stroke-opacity="0.6" stroke-miterlimit="10" d="M 0.494622 0.831712 L 0.271947 0.724336 " transform="matrix(600, 0, 0, 600, 0, 0)"/>
<path fill="none" stroke-width="0.001" stroke-linecap="butt" stroke-linejoin="miter" stroke="rgb(10%, 10%, 10%)" stroke-opacity="0.6" stroke-miterlimit="10" d="M 0.615 0.129583 L 0.517077 0.129583 " transform="matrix(600, 0, 0, 600, 0, 0)"/>
<path fill="none" stroke-width="0.001" stroke-linecap="butt" stroke-linejoin="miter" stroke="rgb(10%, 10%, 10%)" stroke-opacity="0.6" stroke-miterlimit="10" d="M 0.615 0.129583 L 0.674284 0.275827 " transform="matrix(600, 0, 0, 600, 0, 0)"/>
<path fill="none" stroke-width="0.001" stroke-linecap="butt" stroke-linejoin="miter" stroke="rgb(10%, 10%, 10%)" stroke-opacity="0.6" stroke-miterlimit="10" d="M 0.171328 0.260221 L 0.171328 0.439089 " transform="matrix(600, 0, 0, 600, 0, 0)"/>
<path fill="none" stroke-width="0.001" stroke-linecap="butt" stroke-linejoin="miter" stroke="rgb(10%, 10%, 10%)" stroke-opacity="0.6" stroke-miterlimit="10" d="M 0.389076 0.852454 L 0.271947 0.724336 " transform="matrix(600, 0, 0, 600, 0, 0)"/>
<path fill="none" stroke-width="0.001" stroke-linecap="butt" stroke-linejoin="miter" stroke="rgb(10%, 10%, 10%)" stroke-opacity="0.6" stroke-miterlimit="10" d="M 0.597741 0.448444 L 0.591426 0.358685 " transform="matrix(600, 0, 0, 600, 0, 0)"/>
<path fill="none" stroke-width="0.001" stroke-linecap="butt" stroke-linejoin="miter" stroke="rgb(10%, 10%, 10%)" stroke-opacity="0.6" stroke-miterlimit="10" d="M 0.773867 0.552467 L 0.773867 0.831712 " transform="matrix(600, 0, 0, 600, 0, 0)"/>
<path fill="none" stroke-width="0.001" stroke-linecap="butt" stroke-linejoin="miter" stroke="rgb(10%, 10%, 10%)" stroke-opacity="0.6" stroke-miterlimit="10" d="M 0.350202 0.439089 L 0.171328 0.439089 " transform="matrix(600, 0, 0, 600, 0, 0)"/>
<path fill="none" stroke-width="0.001" stroke-linecap="butt" stroke-linejoin="miter" stroke="rgb(10%, 10%, 10%)" stroke-opacity="0.6" stroke-miterlimit="10" d="M 0.171328 0.439089 L 0.171152 0.623542 " transform="matrix(600, 0, 0, 600, 0, 0)"/>
<path fill="none" stroke-width="0.001" stroke-linecap="butt" stroke-linejoin="miter" stroke="rgb(10%, 10%, 10%)" stroke-opacity="0.6" stroke-miterlimit="10" d="M 0.350202 0.439089 L 0.271947 0.623542 " transform="matrix(600, 0, 0, 600, 0, 0)"/>
<path fill="none" stroke-width="0.001" stroke-linecap="butt" stroke-linejoin="miter" stroke="rgb(10%, 10%, 10%)" stroke-opacity="0.6" stroke-miterlimit="10" d="M 0.350202 0.439089 L 0.591426 0.358685 " transform="matrix(600, 0, 0, 600, 0, 0)"/>
<path fill="none" stroke-width="0.001" stroke-linecap="butt" stroke-linejoin="miter" stroke="rgb(10%, 10%, 10%)" stroke-opacity="0.6" stroke-miterlimit="10" d="M 0.347884 0.124023 L 0.171328 0.260221 " transform="matrix(600, 0, 0, 600, 0, 0)"/>
<path fill="none" stroke-width="0.001" stroke-linecap="butt" stroke-linejoin="miter" stroke="rgb(10%, 10%, 10%)" stroke-opacity="0.6" stroke-miterlimit="10" d="M 0.494622 0.552467 L 0.494622 0.831712 " transform="matrix(600, 0, 0, 600, 0, 0)"/>
<path fill="none" stroke-width="0.001" stroke-linecap="butt" stroke-linejoin="miter" stroke="rgb(10%, 10%, 10%)" stroke-opacity="0.6" stroke-miterlimit="10" d="M 0.286361 0.852454 L 0.286361 0.955169 " transform="matrix(600, 0, 0, 600, 0, 0)"/>
<path fill="none" stroke-width="0.001" stroke-linecap="butt" stroke-linejoin="miter" stroke="rgb(10%, 10%, 10%)" stroke-opacity="0.6" stroke-miterlimit="10" d="M 0.494622 0.831712 L 0.389076 0.852454 " transform="matrix(600, 0, 0, 600, 0, 0)"/>
<path fill="none" stroke-width="0.001" stroke-linecap="butt" stroke-linejoin="miter" stroke="rgb(10%, 10%, 10%)" stroke-opacity="0.6" stroke-miterlimit="10" d="M 0.350202 0.260221 L 0.517077 0.129583 " transform="matrix(600, 0, 0, 600, 0, 0)"/>
<path fill="none" stroke-width="0.001" stroke-linecap="butt" stroke-linejoin="miter" stroke="rgb(10%, 10%, 10%)" stroke-opacity="0.6" stroke-miterlimit="10" d="M 0.597741 0.448444 L 0.773867 0.552467 " transform="matrix(600, 0, 0, 600, 0, 0)"/>
<path fill="none" stroke-width="0.001" stroke-linecap="butt" stroke-linejoin="miter" stroke="rgb(10%, 10%, 10%)" stroke-opacity="0.6" stroke-miterlimit="10" d="M 0.855905 0.686009 L 0.986081 0.578757 " transform="matrix(600, 0, 0, 600, 0, 0)"/>
<path fill="none" stroke-width="0.001" stroke-linecap="butt" stroke-linejoin="miter" stroke="rgb(10%, 10%, 10%)" stroke-opacity="0.6" stroke-miterlimit="10" d="M 0.615 0.129583 L 0.591426 0.275827 " transform="matrix(600, 0, 0, 600, 0, 0)"/>
<path fill="none" stroke-width="0.001" stroke-linecap="butt" stroke-linejoin="miter" stroke="rgb(10%, 10%, 10%)" stroke-opacity="0.6" stroke-miterlimit="10" d="M 0.494622 0.552467 L 0.271947 0.724336 " transform="matrix(600, 0, 0, 600, 0, 0)"/>
<path fill="none" stroke-width="0.001" stroke-linecap="butt" stroke-linejoin="miter" stroke="rgb(10%, 10%, 10%)" stroke-opacity="0.6" stroke-miterlimit="10" d="M 0.855905 0.686009 L 0.773867 0.552467 " transform="matrix(600, 0, 0, 600, 0, 0)"/>
<path fill="none" stroke-width="0.001" stroke-linecap="butt" stroke-linejoin="miter" stroke="rgb(10%, 10%, 10%)" stroke-opacity="0.6" stroke-miterlimit="10" d="M 0.286361 0.852454 L 0.171152 0.724336 " transform="matrix(600, 0, 0, 600, 0, 0)"/>
<path fill="none" stroke-width="0.001" stroke-linecap="butt" stroke-linejoin="miter" stroke="rgb(10%, 10%, 10%)" stroke-opacity="0.6" stroke-miterlimit="10" d="M 0.773867 0.831712 L 0.494622 0.831712 " transform="matrix(600, 0, 0, 600, 0, 0)"/>
<path fill="none" stroke-width="0.001" stroke-linecap="butt" stroke-linejoin="miter" stroke="rgb(10%, 10%, 10%)" stroke-opacity="0.6" stroke-miterlimit="10" d="M 0.597741 0.448444 L 0.350202 0.439089 " transform="matrix(600, 0, 0, 600, 0, 0)"/>
<path fill="none" stroke-width="0.001" stroke-linecap="butt" stroke-linejoin="miter" stroke="rgb(10%, 10%, 10%)" stroke-opacity="0.6" stroke-miterlimit="10" d="M 0.389076 0.955169 L 0.286361 0.955169 " transform="matrix(600, 0, 0, 600, 0, 0)"/>
<path fill="none" stroke-width="0.001" stroke-linecap="butt" stroke-linejoin="miter" stroke="rgb(10%, 10%, 10%)" stroke-opacity="0.6" stroke-miterlimit="10" d="M 0.597741 0.448444 L 0.674284 0.358685 " transform="matrix(600, 0, 0, 600, 0, 0)"/>
<path fill="none" stroke-width="0.001" stroke-linecap="butt" stroke-linejoin="miter" stroke="rgb(10%, 10%, 10%)" stroke-opacity="0.6" stroke-miterlimit="10" d="M 0.591426 0.275827 L 0.674284 0.275827 " transform="matrix(600, 0, 0, 600, 0, 0)"/>
<path fill="none" stroke-width="0.003" stroke-linecap="butt" stroke-linejoin="miter" stroke="rgb(10%, 10%, 70%)" stroke-opacity="0.6" stroke-miterlimit="10" d="M 0.18638 0.92026 C 0.18638 0.928542 0.179661 0.93526 0.17138 0.93526 C 0.163092 0.93526 0.15638 0.928542 0.15638 0.92026 C 0.15638 0.911973 0.163092 0.90526 0.17138 0.90526 C 0.179661 0.90526 0.18638 0.911973 0.18638 0.92026 " transform="matrix(600, 0, 0, 600, 0, 0)"/>
<path fill="none" stroke-width="0.003" stroke-linecap="butt" stroke-linejoin="miter" stroke="rgb(10%, 10%, 70%)" stroke-opacity="0.6" stroke-miterlimit="10" d="M 0.186328 0.439089 C 0.186328 0.44737 0.179616 0.454089 0.171328 0.454089 C 0.163047 0.454089 0.156328 0.44737 0.156328 0.439089 C 0.156328 0.430801 0.163047 0.424089 0.171328 0.424089 C 0.179616 0.424089 0.186328 0.430801 0.186328 0.439089 " transform="matrix(600, 0, 0, 600, 0, 0)"/>
<path fill="none" stroke-width="0.003" stroke-linecap="butt" stroke-linejoin="miter" stroke="rgb(10%, 10%, 70%)" stroke-opacity="0.6" stroke-miterlimit="10" d="M 0.788867 0.552467 C 0.788867 0.560755 0.782148 0.567467 0.773867 0.567467 C 0.765579 0.567467 0.758867 0.560755 0.758867 0.552467 C 0.758867 0.544186 0.765579 0.537467 0.773867 0.537467 C 0.782148 0.537467 0.788867 0.544186 0.788867 0.552467 " transform="matrix(600, 0, 0, 600, 0, 0)"/>
<path fill="none" stroke-width="0.003" stroke-linecap="butt" stroke-linejoin="miter" stroke="rgb(70%, 10%, 10%)" stroke-opacity="0.6" stroke-miterlimit="10" d="M 0.635 0.129583 C 0.635 0.140632 0.626048 0.149583 0.615 0.149583 C 0.603958 0.149583 0.595 0.140632 0.595 0.129583 C 0.595 0.118535 0.603958 0.109583 0.615 0.109583 C 0.626048 0.109583 0.635 0.118535 0.635 0.129583 " transform="matrix(600, 0, 0, 600, 0, 0)"/>
<path fill="none" stroke-width="0.003" stroke-linecap="butt" stroke-linejoin="miter" stroke="rgb(70%, 10%, 10%)" stroke-opacity="0.6" stroke-miterlimit="10" d="M 0.635 0.129583 C 0.635 0.140632 0.626048 0.149583 0.615 0.149583 C 0.603958 0.149583 0.595 0.140632 0.595 0.129583 C 0.595 0.118535 0.603958 0.109583 0.615 0.109583 C 0.626048 0.109583 0.635 0.118535 0.635 0.129583 " transform="matrix(600, 0, 0, 600, 0, 0)"/>
<path fill="none" stroke-width="0.003" stroke-linecap="butt" stroke-linejoin="miter" stroke="rgb(70%, 10%, 10%)" stroke-opacity="0.6" stroke-miterlimit="10" d="M 0.635 0.129583 C 0.635 0.140632 0.626048 0.149583 0.615 0.149583 C 0.603958 0.149583 0.595 0.140632 0.595 0.129583 C 0.595 0.118535 0.603958 0.109583 0.615 0.109583 C 0.626048 0.109583 0.635 0.118535 0.635 0.129583 " transform="matrix(600, 0, 0, 600, 0, 0)"/>
</svg>
