<?xml version="1.0" encoding="UTF-8"?>
<svg xmlns="http://www.w3.org/2000/svg" xmlns:xlink="http://www.w3.org/1999/xlink" width="600pt" height="600pt" viewBox="0 0 600 600" version="1.1">
<g id="surface1">
<path style="fill:none;stroke-width:0.003;stroke-linecap:butt;stroke-linejoin:miter;stroke:rgb(70%,30%,30%);stroke-opacity:0.6;stroke-miterlimit:10;" d="M 0.661348 0.138789 L 0.922585 0.138789 L 0.922585 0.400026 L 0.661348 0.400026 L 0.661348 0.138789 " transform="matrix(600,0,0,600,0,0)"/>
<path style="fill:none;stroke-width:0.003;stroke-linecap:butt;stroke-linejoin:miter;stroke:rgb(70%,30%,30%);stroke-opacity:0.6;stroke-miterlimit:10;" d="M 0.40806 0.138984 L 0.554909 0.138984 L 0.554909 0.285833 L 0.40806 0.285833 L 0.40806 0.138984 " transform="matrix(600,0,0,600,0,0)"/>
<path style="fill:none;stroke-width:0.003;stroke-linecap:butt;stroke-linejoin:miter;stroke:rgb(70%,30%,30%);stroke-opacity:0.6;stroke-miterlimit:10;" d="M 0.0386784 0.623223 L 0.283691 0.623223 L 0.283691 0.868236 L 0.0386784 0.868236 L 0.0386784 0.623223 " transform="matrix(600,0,0,600,0,0)"/>
<path style="fill:none;stroke-width:0.003;stroke-linecap:butt;stroke-linejoin:miter;stroke:rgb(70%,30%,30%);stroke-opacity:0.6;stroke-miterlimit:10;" d="M 0.386829 0.421224 L 0.603984 0.421224 L 0.603984 0.638379 L 0.386829 0.638379 L 0.386829 0.421224 " transform="matrix(600,0,0,600,0,0)"/>
<path style="fill:none;stroke-width:0.003;stroke-linecap:butt;stroke-linejoin:miter;stroke:rgb(70%,30%,30%);stroke-opacity:0.6;stroke-miterlimit:10;" d="M 0.469857 0.703255 L 0.739909 0.703255 L 0.739909 0.973307 L 0.469857 0.973307 L 0.469857 0.703255 " transform="matrix(600,0,0,600,0,0)"/>
<path style="fill:none;stroke-width:0.003;stroke-linecap:butt;stroke-linejoin:miter;stroke:rgb(70%,30%,30%);stroke-opacity:0.6;stroke-miterlimit:10;" d="M 0.0304622 0.26349 L 0.147956 0.26349 L 0.147956 0.380983 L 0.0304622 0.380983 L 0.0304622 0.26349 " transform="matrix(600,0,0,600,0,0)"/>
<path style="fill:none;stroke-width:0.003;stroke-linecap:butt;stroke-linejoin:miter;stroke:rgb(70%,30%,30%);stroke-opacity:0.6;stroke-miterlimit:10;" d="M 0.775117 0.505234 L 0.935762 0.505234 L 0.935762 0.665879 L 0.775117 0.665879 L 0.775117 0.505234 " transform="matrix(600,0,0,600,0,0)"/>
<path style="fill:none;stroke-width:0.003;stroke-linecap:butt;stroke-linejoin:miter;stroke:rgb(70%,30%,30%);stroke-opacity:0.6;stroke-miterlimit:10;" d="M 0.0152214 0.0749089 L 0.139961 0.0749089 L 0.139961 0.199648 L 0.0152214 0.199648 L 0.0152214 0.0749089 " transform="matrix(600,0,0,600,0,0)"/>
<path style="fill:none;stroke-width:0.003;stroke-linecap:butt;stroke-linejoin:miter;stroke:rgb(30%,70%,30%);stroke-opacity:0.6;stroke-miterlimit:10;" d="M 0.99485 0.301452 C 0.99485 0.306973 0.990371 0.311452 0.98485 0.311452 C 0.979323 0.311452 0.97485 0.306973 0.97485 0.301452 C 0.97485 0.295931 0.979323 0.291452 0.98485 0.291452 C 0.990371 0.291452 0.99485 0.295931 0.99485 0.301452 " transform="matrix(600,0,0,600,0,0)"/>
<path style="fill:none;stroke-width:0.003;stroke-linecap:butt;stroke-linejoin:miter;stroke:rgb(30%,70%,30%);stroke-opacity:0.6;stroke-miterlimit:10;" d="M 0.286211 0.417845 C 0.286211 0.423366 0.281732 0.427845 0.276211 0.427845 C 0.27069 0.427845 0.266211 0.423366 0.266211 0.417845 C 0.266211 0.412324 0.27069 0.407845 0.276211 0.407845 C 0.281732 0.407845 0.286211 0.412324 0.286211 0.417845 " transform="matrix(600,0,0,600,0,0)"/>
<path style="fill:none;stroke-width:0.003;stroke-linecap:butt;stroke-linejoin:miter;stroke:rgb(30%,70%,30%);stroke-opacity:0.6;stroke-miterlimit:10;" d="M 0.179473 0.950495 C 0.179473 0.956022 0.174993 0.960495 0.169473 0.960495 C 0.163952 0.960495 0.159473 0.956022 0.159473 0.950495 C 0.159473 0.944974 0.163952 0.940495 0.169473 0.940495 C 0.174993 0.940495 0.179473 0.944974 0.179473 0.950495 " transform="matrix(600,0,0,600,0,0)"/>
<path style="fill:none;stroke-width:0.003;stroke-linecap:butt;stroke-linejoin:miter;stroke:rgb(30%,70%,30%);stroke-opacity:0.6;stroke-miterlimit:10;" d="M 0.672487 0.0237305 C 0.672487 0.0292578 0.668008 0.0337305 0.662487 0.0337305 C 0.65696 0.0337305 0.652487 0.0292578 0.652487 0.0237305 C 0.652487 0.0182096 0.65696 0.0137305 0.662487 0.0137305 C 0.668008 0.0137305 0.672487 0.0182096 0.672487 0.0237305 " transform="matrix(600,0,0,600,0,0)"/>
<path style="fill:none;stroke-width:0.003;stroke-linecap:butt;stroke-linejoin:miter;stroke:rgb(30%,70%,30%);stroke-opacity:0.6;stroke-miterlimit:10;" d="M 0.0492188 0.552682 C 0.0492188 0.558203 0.0447461 0.562682 0.0392188 0.562682 C 0.0336979 0.562682 0.0292188 0.558203 0.0292188 0.552682 C 0.0292188 0.547161 0.0336979 0.542682 0.0392188 0.542682 C 0.0447461 0.542682 0.0492188 0.547161 0.0492188 0.552682 " transform="matrix(600,0,0,600,0,0)"/>
<path style="fill:none;stroke-width:0.003;stroke-linecap:butt;stroke-linejoin:miter;stroke:rgb(30%,70%,30%);stroke-opacity:0.6;stroke-miterlimit:10;" d="M 0.0920573 0.452865 C 0.0920573 0.458385 0.0875781 0.462865 0.0820573 0.462865 C 0.0765365 0.462865 0.0720573 0.458385 0.0720573 0.452865 C 0.0720573 0.447337 0.0765365 0.442865 0.0820573 0.442865 C 0.0875781 0.442865 0.0920573 0.447337 0.0920573 0.452865 " transform="matrix(600,0,0,600,0,0)"/>
<path style="fill:none;stroke-width:0.003;stroke-linecap:butt;stroke-linejoin:miter;stroke:rgb(30%,70%,30%);stroke-opacity:0.6;stroke-miterlimit:10;" d="M 0.232923 0.556491 C 0.232923 0.562012 0.228444 0.566491 0.222923 0.566491 C 0.217396 0.566491 0.212923 0.562012 0.212923 0.556491 C 0.212923 0.550964 0.217396 0.546491 0.222923 0.546491 C 0.228444 0.546491 0.232923 0.550964 0.232923 0.556491 " transform="matrix(600,0,0,600,0,0)"/>
<path style="fill:none;stroke-width:0.003;stroke-linecap:butt;stroke-linejoin:miter;stroke:rgb(30%,70%,30%);stroke-opacity:0.6;stroke-miterlimit:10;" d="M 0.215456 0.124466 C 0.215456 0.129993 0.210977 0.134466 0.205456 0.134466 C 0.199928 0.134466 0.195456 0.129993 0.195456 0.124466 C 0.195456 0.118945 0.199928 0.114466 0.205456 0.114466 C 0.210977 0.114466 0.215456 0.118945 0.215456 0.124466 " transform="matrix(600,0,0,600,0,0)"/>
<path style="fill:none;stroke-width:0.003;stroke-linecap:butt;stroke-linejoin:miter;stroke:rgb(30%,70%,30%);stroke-opacity:0.6;stroke-miterlimit:10;" d="M 0.28944 0.924896 C 0.28944 0.930417 0.284961 0.934896 0.27944 0.934896 C 0.273913 0.934896 0.26944 0.930417 0.26944 0.924896 C 0.26944 0.919368 0.273913 0.914896 0.27944 0.914896 C 0.284961 0.914896 0.28944 0.919368 0.28944 0.924896 " transform="matrix(600,0,0,600,0,0)"/>
<path style="fill:none;stroke-width:0.003;stroke-linecap:butt;stroke-linejoin:miter;stroke:rgb(30%,70%,30%);stroke-opacity:0.6;stroke-miterlimit:10;" d="M 0.275482 0.211816 C 0.275482 0.217344 0.271003 0.221816 0.265482 0.221816 C 0.259961 0.221816 0.255482 0.217344 0.255482 0.211816 C 0.255482 0.206296 0.259961 0.201816 0.265482 0.201816 C 0.271003 0.201816 0.275482 0.206296 0.275482 0.211816 " transform="matrix(600,0,0,600,0,0)"/>
<path style="fill:none;stroke-width:0.003;stroke-linecap:butt;stroke-linejoin:miter;stroke:rgb(30%,70%,30%);stroke-opacity:0.6;stroke-miterlimit:10;" d="M 0.905482 0.821471 C 0.905482 0.826992 0.901009 0.831471 0.895482 0.831471 C 0.889961 0.831471 0.885482 0.826992 0.885482 0.821471 C 0.885482 0.815944 0.889961 0.811471 0.895482 0.811471 C 0.901009 0.811471 0.905482 0.815944 0.905482 0.821471 " transform="matrix(600,0,0,600,0,0)"/>
<path style="fill:none;stroke-width:0.003;stroke-linecap:butt;stroke-linejoin:miter;stroke:rgb(30%,70%,30%);stroke-opacity:0.6;stroke-miterlimit:10;" d="M 0.6889 0.628418 C 0.6889 0.633939 0.684421 0.638418 0.6789 0.638418 C 0.673379 0.638418 0.6689 0.633939 0.6689 0.628418 C 0.6689 0.622891 0.673379 0.618418 0.6789 0.618418 C 0.684421 0.618418 0.6889 0.622891 0.6889 0.628418 " transform="matrix(600,0,0,600,0,0)"/>
<path style="fill:none;stroke-width:0.003;stroke-linecap:butt;stroke-linejoin:miter;stroke:rgb(30%,70%,30%);stroke-opacity:0.6;stroke-miterlimit:10;" d="M 0.462969 0.335977 C 0.462969 0.341497 0.45849 0.345977 0.452969 0.345977 C 0.447441 0.345977 0.442969 0.341497 0.442969 0.335977 C 0.442969 0.330449 0.447441 0.325977 0.452969 0.325977 C 0.45849 0.325977 0.462969 0.330449 0.462969 0.335977 " transform="matrix(600,0,0,600,0,0)"/>
<path style="fill:none;stroke-width:0.003;stroke-linecap:butt;stroke-linejoin:miter;stroke:rgb(30%,70%,30%);stroke-opacity:0.6;stroke-miterlimit:10;" d="M 0.974805 0.983118 C 0.974805 0.988639 0.970332 0.993118 0.964805 0.993118 C 0.959284 0.993118 0.954805 0.988639 0.954805 0.983118 C 0.954805 0.977591 0.959284 0.973118 0.964805 0.973118 C 0.970332 0.973118 0.974805 0.977591 0.974805 0.983118 " transform="matrix(600,0,0,600,0,0)"/>
<path style="fill:none;stroke-width:0.003;stroke-linecap:butt;stroke-linejoin:miter;stroke:rgb(30%,70%,30%);stroke-opacity:0.6;stroke-miterlimit:10;" d="M 0.320911 0.0918164 C 0.320911 0.0973438 0.316432 0.101816 0.310911 0.101816 C 0.305384 0.101816 0.300911 0.0973438 0.300911 0.0918164 C 0.300911 0.0862956 0.305384 0.0818164 0.310911 0.0818164 C 0.316432 0.0818164 0.320911 0.0862956 0.320911 0.0918164 " transform="matrix(600,0,0,600,0,0)"/>
<path style="fill:none;stroke-width:0.003;stroke-linecap:butt;stroke-linejoin:miter;stroke:rgb(30%,70%,30%);stroke-opacity:0.6;stroke-miterlimit:10;" d="M 0.777845 0.0590885 C 0.777845 0.0646094 0.773366 0.0690885 0.767845 0.0690885 C 0.762318 0.0690885 0.757845 0.0646094 0.757845 0.0590885 C 0.757845 0.0535612 0.762318 0.0490885 0.767845 0.0490885 C 0.773366 0.0490885 0.777845 0.0535612 0.777845 0.0590885 " transform="matrix(600,0,0,600,0,0)"/>
<path style="fill:none;stroke-width:0.003;stroke-linecap:butt;stroke-linejoin:miter;stroke:rgb(30%,70%,30%);stroke-opacity:0.6;stroke-miterlimit:10;" d="M 0.944948 0.0217253 C 0.944948 0.0272461 0.940475 0.0317253 0.934948 0.0317253 C 0.929427 0.0317253 0.924948 0.0272461 0.924948 0.0217253 C 0.924948 0.0161979 0.929427 0.0117253 0.934948 0.0117253 C 0.940475 0.0117253 0.944948 0.0161979 0.944948 0.0217253 " transform="matrix(600,0,0,600,0,0)"/>
<path style="fill:none;stroke-width:0.003;stroke-linecap:butt;stroke-linejoin:miter;stroke:rgb(30%,70%,30%);stroke-opacity:0.6;stroke-miterlimit:10;" d="M 0.359206 0.714173 C 0.359206 0.719694 0.354727 0.724173 0.349206 0.724173 C 0.343678 0.724173 0.339206 0.719694 0.339206 0.714173 C 0.339206 0.708646 0.343678 0.704173 0.349206 0.704173 C 0.354727 0.704173 0.359206 0.708646 0.359206 0.714173 " transform="matrix(600,0,0,600,0,0)"/>
<path style="fill:none;stroke-width:0.003;stroke-linecap:butt;stroke-linejoin:miter;stroke:rgb(30%,70%,30%);stroke-opacity:0.6;stroke-miterlimit:10;" d="M 0.505866 0.039349 C 0.505866 0.0448698 0.501387 0.049349 0.495866 0.049349 C 0.490339 0.049349 0.485866 0.0448698 0.485866 0.039349 C 0.485866 0.0338216 0.490339 0.029349 0.495866 0.029349 C 0.501387 0.029349 0.505866 0.0338216 0.505866 0.039349 " transform="matrix(600,0,0,600,0,0)"/>
<path style="fill:none;stroke-width:0.003;stroke-linecap:butt;stroke-linejoin:miter;stroke:rgb(30%,70%,30%);stroke-opacity:0.6;stroke-miterlimit:10;" d="M 0.0492773 0.960729 C 0.0492773 0.96625 0.0447982 0.970729 0.0392773 0.970729 C 0.0337565 0.970729 0.0292773 0.96625 0.0292773 0.960729 C 0.0292773 0.955208 0.0337565 0.950729 0.0392773 0.950729 C 0.0447982 0.950729 0.0492773 0.955208 0.0492773 0.960729 " transform="matrix(600,0,0,600,0,0)"/>
<path style="fill:none;stroke-width:0.003;stroke-linecap:butt;stroke-linejoin:miter;stroke:rgb(30%,70%,30%);stroke-opacity:0.6;stroke-miterlimit:10;" d="M 0.39332 0.918828 C 0.39332 0.924349 0.388848 0.928828 0.38332 0.928828 C 0.377799 0.928828 0.37332 0.924349 0.37332 0.918828 C 0.37332 0.913301 0.377799 0.908828 0.38332 0.908828 C 0.388848 0.908828 0.39332 0.913301 0.39332 0.918828 " transform="matrix(600,0,0,600,0,0)"/>
<path style="fill:none;stroke-width:0.003;stroke-linecap:butt;stroke-linejoin:miter;stroke:rgb(30%,70%,30%);stroke-opacity:0.6;stroke-miterlimit:10;" d="M 0.980404 0.461471 C 0.980404 0.466992 0.975924 0.471471 0.970404 0.471471 C 0.964883 0.471471 0.960404 0.466992 0.960404 0.461471 C 0.960404 0.455951 0.964883 0.451471 0.970404 0.451471 C 0.975924 0.451471 0.980404 0.455951 0.980404 0.461471 " transform="matrix(600,0,0,600,0,0)"/>
<path style="fill:none;stroke-width:0.003;stroke-linecap:butt;stroke-linejoin:miter;stroke:rgb(30%,70%,30%);stroke-opacity:0.6;stroke-miterlimit:10;" d="M 0.428203 0.818171 C 0.428203 0.823691 0.423724 0.828171 0.418203 0.828171 C 0.412676 0.828171 0.408203 0.823691 0.408203 0.818171 C 0.408203 0.81265 0.412676 0.808171 0.418203 0.808171 C 0.423724 0.808171 0.428203 0.81265 0.428203 0.818171 " transform="matrix(600,0,0,600,0,0)"/>
<path style="fill:none;stroke-width:0.003;stroke-linecap:butt;stroke-linejoin:miter;stroke:rgb(30%,70%,30%);stroke-opacity:0.6;stroke-miterlimit:10;" d="M 0.991224 0.134948 C 0.991224 0.140475 0.986751 0.144948 0.981224 0.144948 C 0.975703 0.144948 0.971224 0.140475 0.971224 0.134948 C 0.971224 0.129427 0.975703 0.124948 0.981224 0.124948 C 0.986751 0.124948 0.991224 0.129427 0.991224 0.134948 " transform="matrix(600,0,0,600,0,0)"/>
<path style="fill:none;stroke-width:0.003;stroke-linecap:butt;stroke-linejoin:miter;stroke:rgb(30%,70%,30%);stroke-opacity:0.6;stroke-miterlimit:10;" d="M 0.992936 0.883672 C 0.992936 0.889193 0.988464 0.893672 0.982936 0.893672 C 0.977415 0.893672 0.972936 0.889193 0.972936 0.883672 C 0.972936 0.878145 0.977415 0.873672 0.982936 0.873672 C 0.988464 0.873672 0.992936 0.878145 0.992936 0.883672 " transform="matrix(600,0,0,600,0,0)"/>
<path style="fill:none;stroke-width:0.001;stroke-linecap:butt;stroke-linejoin:miter;stroke:rgb(10%,10%,10%);stroke-opacity:0.6;stroke-miterlimit:10;" d="M 0.40806 0.285833 L 0.386829 0.421224 " transform="matrix(600,0,0,600,0,0)"/>
<path style="fill:none;stroke-width:0.001;stroke-linecap:butt;stroke-linejoin:miter;stroke:rgb(10%,10%,10%);stroke-opacity:0.6;stroke-miterlimit:10;" d="M 0.0386784 0.623223 L 0.0386784 0.868236 " transform="matrix(600,0,0,600,0,0)"/>
<path style="fill:none;stroke-width:0.001;stroke-linecap:butt;stroke-linejoin:miter;stroke:rgb(10%,10%,10%);stroke-opacity:0.6;stroke-miterlimit:10;" d="M 0.922585 0.400026 L 0.935762 0.505234 " transform="matrix(600,0,0,600,0,0)"/>
<path style="fill:none;stroke-width:0.001;stroke-linecap:butt;stroke-linejoin:miter;stroke:rgb(10%,10%,10%);stroke-opacity:0.6;stroke-miterlimit:10;" d="M 0.895482 0.821471 L 0.739909 0.973307 " transform="matrix(600,0,0,600,0,0)"/>
<path style="fill:none;stroke-width:0.001;stroke-linecap:butt;stroke-linejoin:miter;stroke:rgb(10%,10%,10%);stroke-opacity:0.6;stroke-miterlimit:10;" d="M 0.895482 0.821471 L 0.775117 0.665879 " transform="matrix(600,0,0,600,0,0)"/>
<path style="fill:none;stroke-width:0.001;stroke-linecap:butt;stroke-linejoin:miter;stroke:rgb(10%,10%,10%);stroke-opacity:0.6;stroke-miterlimit:10;" d="M 0.982936 0.883672 L 0.935762 0.665879 " transform="matrix(600,0,0,600,0,0)"/>
<path style="fill:none;stroke-width:0.001;stroke-linecap:butt;stroke-linejoin:miter;stroke:rgb(10%,10%,10%);stroke-opacity:0.6;stroke-miterlimit:10;" d="M 0.40806 0.138984 L 0.40806 0.285833 " transform="matrix(600,0,0,600,0,0)"/>
<path style="fill:none;stroke-width:0.001;stroke-linecap:butt;stroke-linejoin:miter;stroke:rgb(10%,10%,10%);stroke-opacity:0.6;stroke-miterlimit:10;" d="M 0.603984 0.638379 L 0.739909 0.703255 " transform="matrix(600,0,0,600,0,0)"/>
<path style="fill:none;stroke-width:0.001;stroke-linecap:butt;stroke-linejoin:miter;stroke:rgb(10%,10%,10%);stroke-opacity:0.6;stroke-miterlimit:10;" d="M 0.386829 0.638379 L 0.469857 0.703255 " transform="matrix(600,0,0,600,0,0)"/>
<path style="fill:none;stroke-width:0.001;stroke-linecap:butt;stroke-linejoin:miter;stroke:rgb(10%,10%,10%);stroke-opacity:0.6;stroke-miterlimit:10;" d="M 0.554909 0.285833 L 0.603984 0.421224 " transform="matrix(600,0,0,600,0,0)"/>
<path style="fill:none;stroke-width:0.001;stroke-linecap:butt;stroke-linejoin:miter;stroke:rgb(10%,10%,10%);stroke-opacity:0.6;stroke-miterlimit:10;" d="M 0.283691 0.623223 L 0.386829 0.421224 " transform="matrix(600,0,0,600,0,0)"/>
<path style="fill:none;stroke-width:0.001;stroke-linecap:butt;stroke-linejoin:miter;stroke:rgb(10%,10%,10%);stroke-opacity:0.6;stroke-miterlimit:10;" d="M 0.418203 0.818171 L 0.283691 0.868236 " transform="matrix(600,0,0,600,0,0)"/>
<path style="fill:none;stroke-width:0.001;stroke-linecap:butt;stroke-linejoin:miter;stroke:rgb(10%,10%,10%);stroke-opacity:0.6;stroke-miterlimit:10;" d="M 0.418203 0.818171 L 0.469857 0.973307 " transform="matrix(600,0,0,600,0,0)"/>
<path style="fill:none;stroke-width:0.001;stroke-linecap:butt;stroke-linejoin:miter;stroke:rgb(10%,10%,10%);stroke-opacity:0.6;stroke-miterlimit:10;" d="M 0.98485 0.301452 L 0.981224 0.134948 " transform="matrix(600,0,0,600,0,0)"/>
<path style="fill:none;stroke-width:0.001;stroke-linecap:butt;stroke-linejoin:miter;stroke:rgb(10%,10%,10%);stroke-opacity:0.6;stroke-miterlimit:10;" d="M 0.0392188 0.552682 L 0.0304622 0.380983 " transform="matrix(600,0,0,600,0,0)"/>
<path style="fill:none;stroke-width:0.001;stroke-linecap:butt;stroke-linejoin:miter;stroke:rgb(10%,10%,10%);stroke-opacity:0.6;stroke-miterlimit:10;" d="M 0.469857 0.703255 L 0.739909 0.703255 " transform="matrix(600,0,0,600,0,0)"/>
<path style="fill:none;stroke-width:0.001;stroke-linecap:butt;stroke-linejoin:miter;stroke:rgb(10%,10%,10%);stroke-opacity:0.6;stroke-miterlimit:10;" d="M 0.38332 0.918828 L 0.418203 0.818171 " transform="matrix(600,0,0,600,0,0)"/>
<path style="fill:none;stroke-width:0.001;stroke-linecap:butt;stroke-linejoin:miter;stroke:rgb(10%,10%,10%);stroke-opacity:0.6;stroke-miterlimit:10;" d="M 0.662487 0.0237305 L 0.767845 0.0590885 " transform="matrix(600,0,0,600,0,0)"/>
<path style="fill:none;stroke-width:0.001;stroke-linecap:butt;stroke-linejoin:miter;stroke:rgb(10%,10%,10%);stroke-opacity:0.6;stroke-miterlimit:10;" d="M 0.0304622 0.380983 L 0.0152214 0.199648 " transform="matrix(600,0,0,600,0,0)"/>
<path style="fill:none;stroke-width:0.001;stroke-linecap:butt;stroke-linejoin:miter;stroke:rgb(10%,10%,10%);stroke-opacity:0.6;stroke-miterlimit:10;" d="M 0.767845 0.0590885 L 0.934948 0.0217253 " transform="matrix(600,0,0,600,0,0)"/>
<path style="fill:none;stroke-width:0.001;stroke-linecap:butt;stroke-linejoin:miter;stroke:rgb(10%,10%,10%);stroke-opacity:0.6;stroke-miterlimit:10;" d="M 0.147956 0.380983 L 0.0304622 0.380983 " transform="matrix(600,0,0,600,0,0)"/>
<path style="fill:none;stroke-width:0.001;stroke-linecap:butt;stroke-linejoin:miter;stroke:rgb(10%,10%,10%);stroke-opacity:0.6;stroke-miterlimit:10;" d="M 0.767845 0.0590885 L 0.661348 0.138789 " transform="matrix(600,0,0,600,0,0)"/>
<path style="fill:none;stroke-width:0.001;stroke-linecap:butt;stroke-linejoin:miter;stroke:rgb(10%,10%,10%);stroke-opacity:0.6;stroke-miterlimit:10;" d="M 0.739909 0.703255 L 0.739909 0.973307 " transform="matrix(600,0,0,600,0,0)"/>
<path style="fill:none;stroke-width:0.001;stroke-linecap:butt;stroke-linejoin:miter;stroke:rgb(10%,10%,10%);stroke-opacity:0.6;stroke-miterlimit:10;" d="M 0.739909 0.703255 L 0.775117 0.665879 " transform="matrix(600,0,0,600,0,0)"/>
<path style="fill:none;stroke-width:0.001;stroke-linecap:butt;stroke-linejoin:miter;stroke:rgb(10%,10%,10%);stroke-opacity:0.6;stroke-miterlimit:10;" d="M 0.495866 0.039349 L 0.554909 0.138984 " transform="matrix(600,0,0,600,0,0)"/>
<path style="fill:none;stroke-width:0.001;stroke-linecap:butt;stroke-linejoin:miter;stroke:rgb(10%,10%,10%);stroke-opacity:0.6;stroke-miterlimit:10;" d="M 0.603984 0.421224 L 0.603984 0.638379 " transform="matrix(600,0,0,600,0,0)"/>
<path style="fill:none;stroke-width:0.001;stroke-linecap:butt;stroke-linejoin:miter;stroke:rgb(10%,10%,10%);stroke-opacity:0.6;stroke-miterlimit:10;" d="M 0.222923 0.556491 L 0.283691 0.623223 " transform="matrix(600,0,0,600,0,0)"/>
<path style="fill:none;stroke-width:0.001;stroke-linecap:butt;stroke-linejoin:miter;stroke:rgb(10%,10%,10%);stroke-opacity:0.6;stroke-miterlimit:10;" d="M 0.452969 0.335977 L 0.603984 0.421224 " transform="matrix(600,0,0,600,0,0)"/>
<path style="fill:none;stroke-width:0.001;stroke-linecap:butt;stroke-linejoin:miter;stroke:rgb(10%,10%,10%);stroke-opacity:0.6;stroke-miterlimit:10;" d="M 0.970404 0.461471 L 0.935762 0.505234 " transform="matrix(600,0,0,600,0,0)"/>
<path style="fill:none;stroke-width:0.001;stroke-linecap:butt;stroke-linejoin:miter;stroke:rgb(10%,10%,10%);stroke-opacity:0.6;stroke-miterlimit:10;" d="M 0.205456 0.124466 L 0.310911 0.0918164 " transform="matrix(600,0,0,600,0,0)"/>
<path style="fill:none;stroke-width:0.001;stroke-linecap:butt;stroke-linejoin:miter;stroke:rgb(10%,10%,10%);stroke-opacity:0.6;stroke-miterlimit:10;" d="M 0.934948 0.0217253 L 0.922585 0.138789 " transform="matrix(600,0,0,600,0,0)"/>
<path style="fill:none;stroke-width:0.001;stroke-linecap:butt;stroke-linejoin:miter;stroke:rgb(10%,10%,10%);stroke-opacity:0.6;stroke-miterlimit:10;" d="M 0.276211 0.417845 L 0.386829 0.421224 " transform="matrix(600,0,0,600,0,0)"/>
<path style="fill:none;stroke-width:0.001;stroke-linecap:butt;stroke-linejoin:miter;stroke:rgb(10%,10%,10%);stroke-opacity:0.6;stroke-miterlimit:10;" d="M 0.6789 0.628418 L 0.603984 0.638379 " transform="matrix(600,0,0,600,0,0)"/>
<path style="fill:none;stroke-width:0.001;stroke-linecap:butt;stroke-linejoin:miter;stroke:rgb(10%,10%,10%);stroke-opacity:0.6;stroke-miterlimit:10;" d="M 0.169473 0.950495 L 0.0386784 0.868236 " transform="matrix(600,0,0,600,0,0)"/>
<path style="fill:none;stroke-width:0.001;stroke-linecap:butt;stroke-linejoin:miter;stroke:rgb(10%,10%,10%);stroke-opacity:0.6;stroke-miterlimit:10;" d="M 0.276211 0.417845 L 0.147956 0.26349 " transform="matrix(600,0,0,600,0,0)"/>
<path style="fill:none;stroke-width:0.001;stroke-linecap:butt;stroke-linejoin:miter;stroke:rgb(10%,10%,10%);stroke-opacity:0.6;stroke-miterlimit:10;" d="M 0.38332 0.918828 L 0.283691 0.868236 " transform="matrix(600,0,0,600,0,0)"/>
<path style="fill:none;stroke-width:0.001;stroke-linecap:butt;stroke-linejoin:miter;stroke:rgb(10%,10%,10%);stroke-opacity:0.6;stroke-miterlimit:10;" d="M 0.452969 0.335977 L 0.554909 0.285833 " transform="matrix(600,0,0,600,0,0)"/>
<path style="fill:none;stroke-width:0.001;stroke-linecap:butt;stroke-linejoin:miter;stroke:rgb(10%,10%,10%);stroke-opacity:0.6;stroke-miterlimit:10;" d="M 0.265482 0.211816 L 0.310911 0.0918164 " transform="matrix(600,0,0,600,0,0)"/>
<path style="fill:none;stroke-width:0.001;stroke-linecap:butt;stroke-linejoin:miter;stroke:rgb(10%,10%,10%);stroke-opacity:0.6;stroke-miterlimit:10;" d="M 0.775117 0.505234 L 0.935762 0.505234 " transform="matrix(600,0,0,600,0,0)"/>
<path style="fill:none;stroke-width:0.001;stroke-linecap:butt;stroke-linejoin:miter;stroke:rgb(10%,10%,10%);stroke-opacity:0.6;stroke-miterlimit:10;" d="M 0.38332 0.918828 L 0.469857 0.973307 " transform="matrix(600,0,0,600,0,0)"/>
<path style="fill:none;stroke-width:0.001;stroke-linecap:butt;stroke-linejoin:miter;stroke:rgb(10%,10%,10%);stroke-opacity:0.6;stroke-miterlimit:10;" d="M 0.0304622 0.26349 L 0.147956 0.26349 " transform="matrix(600,0,0,600,0,0)"/>
<path style="fill:none;stroke-width:0.001;stroke-linecap:butt;stroke-linejoin:miter;stroke:rgb(10%,10%,10%);stroke-opacity:0.6;stroke-miterlimit:10;" d="M 0.895482 0.821471 L 0.982936 0.883672 " transform="matrix(600,0,0,600,0,0)"/>
<path style="fill:none;stroke-width:0.001;stroke-linecap:butt;stroke-linejoin:miter;stroke:rgb(10%,10%,10%);stroke-opacity:0.6;stroke-miterlimit:10;" d="M 0.139961 0.199648 L 0.0152214 0.199648 " transform="matrix(600,0,0,600,0,0)"/>
<path style="fill:none;stroke-width:0.001;stroke-linecap:butt;stroke-linejoin:miter;stroke:rgb(10%,10%,10%);stroke-opacity:0.6;stroke-miterlimit:10;" d="M 0.0304622 0.26349 L 0.139961 0.199648 " transform="matrix(600,0,0,600,0,0)"/>
<path style="fill:none;stroke-width:0.001;stroke-linecap:butt;stroke-linejoin:miter;stroke:rgb(10%,10%,10%);stroke-opacity:0.6;stroke-miterlimit:10;" d="M 0.0392773 0.960729 L 0.0386784 0.868236 " transform="matrix(600,0,0,600,0,0)"/>
<path style="fill:none;stroke-width:0.001;stroke-linecap:butt;stroke-linejoin:miter;stroke:rgb(10%,10%,10%);stroke-opacity:0.6;stroke-miterlimit:10;" d="M 0.935762 0.505234 L 0.935762 0.665879 " transform="matrix(600,0,0,600,0,0)"/>
<path style="fill:none;stroke-width:0.001;stroke-linecap:butt;stroke-linejoin:miter;stroke:rgb(10%,10%,10%);stroke-opacity:0.6;stroke-miterlimit:10;" d="M 0.922585 0.400026 L 0.775117 0.505234 " transform="matrix(600,0,0,600,0,0)"/>
<path style="fill:none;stroke-width:0.001;stroke-linecap:butt;stroke-linejoin:miter;stroke:rgb(10%,10%,10%);stroke-opacity:0.6;stroke-miterlimit:10;" d="M 0.661348 0.138789 L 0.554909 0.285833 " transform="matrix(600,0,0,600,0,0)"/>
<path style="fill:none;stroke-width:0.001;stroke-linecap:butt;stroke-linejoin:miter;stroke:rgb(10%,10%,10%);stroke-opacity:0.6;stroke-miterlimit:10;" d="M 0.895482 0.821471 L 0.739909 0.703255 " transform="matrix(600,0,0,600,0,0)"/>
<path style="fill:none;stroke-width:0.001;stroke-linecap:butt;stroke-linejoin:miter;stroke:rgb(10%,10%,10%);stroke-opacity:0.6;stroke-miterlimit:10;" d="M 0.895482 0.821471 L 0.935762 0.665879 " transform="matrix(600,0,0,600,0,0)"/>
<path style="fill:none;stroke-width:0.001;stroke-linecap:butt;stroke-linejoin:miter;stroke:rgb(10%,10%,10%);stroke-opacity:0.6;stroke-miterlimit:10;" d="M 0.935762 0.665879 L 0.775117 0.665879 " transform="matrix(600,0,0,600,0,0)"/>
<path style="fill:none;stroke-width:0.001;stroke-linecap:butt;stroke-linejoin:miter;stroke:rgb(10%,10%,10%);stroke-opacity:0.6;stroke-miterlimit:10;" d="M 0.147956 0.26349 L 0.147956 0.380983 " transform="matrix(600,0,0,600,0,0)"/>
<path style="fill:none;stroke-width:0.001;stroke-linecap:butt;stroke-linejoin:miter;stroke:rgb(10%,10%,10%);stroke-opacity:0.6;stroke-miterlimit:10;" d="M 0.603984 0.638379 L 0.469857 0.703255 " transform="matrix(600,0,0,600,0,0)"/>
<path style="fill:none;stroke-width:0.001;stroke-linecap:butt;stroke-linejoin:miter;stroke:rgb(10%,10%,10%);stroke-opacity:0.6;stroke-miterlimit:10;" d="M 0.970404 0.461471 L 0.922585 0.400026 " transform="matrix(600,0,0,600,0,0)"/>
<path style="fill:none;stroke-width:0.001;stroke-linecap:butt;stroke-linejoin:miter;stroke:rgb(10%,10%,10%);stroke-opacity:0.6;stroke-miterlimit:10;" d="M 0.775117 0.505234 L 0.775117 0.665879 " transform="matrix(600,0,0,600,0,0)"/>
<path style="fill:none;stroke-width:0.001;stroke-linecap:butt;stroke-linejoin:miter;stroke:rgb(10%,10%,10%);stroke-opacity:0.6;stroke-miterlimit:10;" d="M 0.662487 0.0237305 L 0.554909 0.138984 " transform="matrix(600,0,0,600,0,0)"/>
<path style="fill:none;stroke-width:0.001;stroke-linecap:butt;stroke-linejoin:miter;stroke:rgb(10%,10%,10%);stroke-opacity:0.6;stroke-miterlimit:10;" d="M 0.222923 0.556491 L 0.147956 0.380983 " transform="matrix(600,0,0,600,0,0)"/>
<path style="fill:none;stroke-width:0.001;stroke-linecap:butt;stroke-linejoin:miter;stroke:rgb(10%,10%,10%);stroke-opacity:0.6;stroke-miterlimit:10;" d="M 0.205456 0.124466 L 0.139961 0.199648 " transform="matrix(600,0,0,600,0,0)"/>
<path style="fill:none;stroke-width:0.001;stroke-linecap:butt;stroke-linejoin:miter;stroke:rgb(10%,10%,10%);stroke-opacity:0.6;stroke-miterlimit:10;" d="M 0.27944 0.924896 L 0.38332 0.918828 " transform="matrix(600,0,0,600,0,0)"/>
<path style="fill:none;stroke-width:0.001;stroke-linecap:butt;stroke-linejoin:miter;stroke:rgb(10%,10%,10%);stroke-opacity:0.6;stroke-miterlimit:10;" d="M 0.0304622 0.26349 L 0.0304622 0.380983 " transform="matrix(600,0,0,600,0,0)"/>
<path style="fill:none;stroke-width:0.001;stroke-linecap:butt;stroke-linejoin:miter;stroke:rgb(10%,10%,10%);stroke-opacity:0.6;stroke-miterlimit:10;" d="M 0.205456 0.124466 L 0.265482 0.211816 " transform="matrix(600,0,0,600,0,0)"/>
<path style="fill:none;stroke-width:0.001;stroke-linecap:butt;stroke-linejoin:miter;stroke:rgb(10%,10%,10%);stroke-opacity:0.6;stroke-miterlimit:10;" d="M 0.349206 0.714173 L 0.469857 0.703255 " transform="matrix(600,0,0,600,0,0)"/>
<path style="fill:none;stroke-width:0.001;stroke-linecap:butt;stroke-linejoin:miter;stroke:rgb(10%,10%,10%);stroke-opacity:0.6;stroke-miterlimit:10;" d="M 0.276211 0.417845 L 0.40806 0.285833 " transform="matrix(600,0,0,600,0,0)"/>
<path style="fill:none;stroke-width:0.001;stroke-linecap:butt;stroke-linejoin:miter;stroke:rgb(10%,10%,10%);stroke-opacity:0.6;stroke-miterlimit:10;" d="M 0.0820573 0.452865 L 0.0304622 0.380983 " transform="matrix(600,0,0,600,0,0)"/>
<path style="fill:none;stroke-width:0.001;stroke-linecap:butt;stroke-linejoin:miter;stroke:rgb(10%,10%,10%);stroke-opacity:0.6;stroke-miterlimit:10;" d="M 0.265482 0.211816 L 0.147956 0.26349 " transform="matrix(600,0,0,600,0,0)"/>
<path style="fill:none;stroke-width:0.001;stroke-linecap:butt;stroke-linejoin:miter;stroke:rgb(10%,10%,10%);stroke-opacity:0.6;stroke-miterlimit:10;" d="M 0.265482 0.211816 L 0.139961 0.199648 " transform="matrix(600,0,0,600,0,0)"/>
<path style="fill:none;stroke-width:0.001;stroke-linecap:butt;stroke-linejoin:miter;stroke:rgb(10%,10%,10%);stroke-opacity:0.6;stroke-miterlimit:10;" d="M 0.6789 0.628418 L 0.775117 0.665879 " transform="matrix(600,0,0,600,0,0)"/>
<path style="fill:none;stroke-width:0.001;stroke-linecap:butt;stroke-linejoin:miter;stroke:rgb(10%,10%,10%);stroke-opacity:0.6;stroke-miterlimit:10;" d="M 0.981224 0.134948 L 0.922585 0.138789 " transform="matrix(600,0,0,600,0,0)"/>
<path style="fill:none;stroke-width:0.001;stroke-linecap:butt;stroke-linejoin:miter;stroke:rgb(10%,10%,10%);stroke-opacity:0.6;stroke-miterlimit:10;" d="M 0.0152214 0.0749089 L 0.139961 0.0749089 " transform="matrix(600,0,0,600,0,0)"/>
<path style="fill:none;stroke-width:0.001;stroke-linecap:butt;stroke-linejoin:miter;stroke:rgb(10%,10%,10%);stroke-opacity:0.6;stroke-miterlimit:10;" d="M 0.349206 0.714173 L 0.283691 0.623223 " transform="matrix(600,0,0,600,0,0)"/>
<path style="fill:none;stroke-width:0.001;stroke-linecap:butt;stroke-linejoin:miter;stroke:rgb(10%,10%,10%);stroke-opacity:0.6;stroke-miterlimit:10;" d="M 0.554909 0.138984 L 0.554909 0.285833 " transform="matrix(600,0,0,600,0,0)"/>
<path style="fill:none;stroke-width:0.001;stroke-linecap:butt;stroke-linejoin:miter;stroke:rgb(10%,10%,10%);stroke-opacity:0.6;stroke-miterlimit:10;" d="M 0.98485 0.301452 L 0.922585 0.400026 " transform="matrix(600,0,0,600,0,0)"/>
<path style="fill:none;stroke-width:0.001;stroke-linecap:butt;stroke-linejoin:miter;stroke:rgb(10%,10%,10%);stroke-opacity:0.6;stroke-miterlimit:10;" d="M 0.661348 0.138789 L 0.922585 0.138789 " transform="matrix(600,0,0,600,0,0)"/>
<path style="fill:none;stroke-width:0.001;stroke-linecap:butt;stroke-linejoin:miter;stroke:rgb(10%,10%,10%);stroke-opacity:0.6;stroke-miterlimit:10;" d="M 0.934948 0.0217253 L 0.981224 0.134948 " transform="matrix(600,0,0,600,0,0)"/>
<path style="fill:none;stroke-width:0.001;stroke-linecap:butt;stroke-linejoin:miter;stroke:rgb(10%,10%,10%);stroke-opacity:0.6;stroke-miterlimit:10;" d="M 0.922585 0.138789 L 0.922585 0.400026 " transform="matrix(600,0,0,600,0,0)"/>
<path style="fill:none;stroke-width:0.001;stroke-linecap:butt;stroke-linejoin:miter;stroke:rgb(10%,10%,10%);stroke-opacity:0.6;stroke-miterlimit:10;" d="M 0.0392188 0.552682 L 0.222923 0.556491 " transform="matrix(600,0,0,600,0,0)"/>
<path style="fill:none;stroke-width:0.001;stroke-linecap:butt;stroke-linejoin:miter;stroke:rgb(10%,10%,10%);stroke-opacity:0.6;stroke-miterlimit:10;" d="M 0.662487 0.0237305 L 0.934948 0.0217253 " transform="matrix(600,0,0,600,0,0)"/>
<path style="fill:none;stroke-width:0.001;stroke-linecap:butt;stroke-linejoin:miter;stroke:rgb(10%,10%,10%);stroke-opacity:0.6;stroke-miterlimit:10;" d="M 0.222923 0.556491 L 0.0386784 0.623223 " transform="matrix(600,0,0,600,0,0)"/>
<path style="fill:none;stroke-width:0.001;stroke-linecap:butt;stroke-linejoin:miter;stroke:rgb(10%,10%,10%);stroke-opacity:0.6;stroke-miterlimit:10;" d="M 0.554909 0.285833 L 0.40806 0.285833 " transform="matrix(600,0,0,600,0,0)"/>
<path style="fill:none;stroke-width:0.001;stroke-linecap:butt;stroke-linejoin:miter;stroke:rgb(10%,10%,10%);stroke-opacity:0.6;stroke-miterlimit:10;" d="M 0.662487 0.0237305 L 0.661348 0.138789 " transform="matrix(600,0,0,600,0,0)"/>
<path style="fill:none;stroke-width:0.001;stroke-linecap:butt;stroke-linejoin:miter;stroke:rgb(10%,10%,10%);stroke-opacity:0.6;stroke-miterlimit:10;" d="M 0.452969 0.335977 L 0.386829 0.421224 " transform="matrix(600,0,0,600,0,0)"/>
<path style="fill:none;stroke-width:0.001;stroke-linecap:butt;stroke-linejoin:miter;stroke:rgb(10%,10%,10%);stroke-opacity:0.6;stroke-miterlimit:10;" d="M 0.0392188 0.552682 L 0.0386784 0.623223 " transform="matrix(600,0,0,600,0,0)"/>
<path style="fill:none;stroke-width:0.001;stroke-linecap:butt;stroke-linejoin:miter;stroke:rgb(10%,10%,10%);stroke-opacity:0.6;stroke-miterlimit:10;" d="M 0.276211 0.417845 L 0.265482 0.211816 " transform="matrix(600,0,0,600,0,0)"/>
<path style="fill:none;stroke-width:0.001;stroke-linecap:butt;stroke-linejoin:miter;stroke:rgb(10%,10%,10%);stroke-opacity:0.6;stroke-miterlimit:10;" d="M 0.922585 0.400026 L 0.661348 0.400026 " transform="matrix(600,0,0,600,0,0)"/>
<path style="fill:none;stroke-width:0.001;stroke-linecap:butt;stroke-linejoin:miter;stroke:rgb(10%,10%,10%);stroke-opacity:0.6;stroke-miterlimit:10;" d="M 0.169473 0.950495 L 0.27944 0.924896 " transform="matrix(600,0,0,600,0,0)"/>
<path style="fill:none;stroke-width:0.001;stroke-linecap:butt;stroke-linejoin:miter;stroke:rgb(10%,10%,10%);stroke-opacity:0.6;stroke-miterlimit:10;" d="M 0.418203 0.818171 L 0.469857 0.703255 " transform="matrix(600,0,0,600,0,0)"/>
<path style="fill:none;stroke-width:0.001;stroke-linecap:butt;stroke-linejoin:miter;stroke:rgb(10%,10%,10%);stroke-opacity:0.6;stroke-miterlimit:10;" d="M 0.0152214 0.0749089 L 0.0152214 0.199648 " transform="matrix(600,0,0,600,0,0)"/>
<path style="fill:none;stroke-width:0.001;stroke-linecap:butt;stroke-linejoin:miter;stroke:rgb(10%,10%,10%);stroke-opacity:0.6;stroke-miterlimit:10;" d="M 0.139961 0.0749089 L 0.139961 0.199648 " transform="matrix(600,0,0,600,0,0)"/>
<path style="fill:none;stroke-width:0.001;stroke-linecap:butt;stroke-linejoin:miter;stroke:rgb(10%,10%,10%);stroke-opacity:0.6;stroke-miterlimit:10;" d="M 0.265482 0.211816 L 0.40806 0.285833 " transform="matrix(600,0,0,600,0,0)"/>
<path style="fill:none;stroke-width:0.001;stroke-linecap:butt;stroke-linejoin:miter;stroke:rgb(10%,10%,10%);stroke-opacity:0.6;stroke-miterlimit:10;" d="M 0.661348 0.138789 L 0.661348 0.400026 " transform="matrix(600,0,0,600,0,0)"/>
<path style="fill:none;stroke-width:0.001;stroke-linecap:butt;stroke-linejoin:miter;stroke:rgb(10%,10%,10%);stroke-opacity:0.6;stroke-miterlimit:10;" d="M 0.6789 0.628418 L 0.603984 0.421224 " transform="matrix(600,0,0,600,0,0)"/>
<path style="fill:none;stroke-width:0.001;stroke-linecap:butt;stroke-linejoin:miter;stroke:rgb(10%,10%,10%);stroke-opacity:0.6;stroke-miterlimit:10;" d="M 0.169473 0.950495 L 0.283691 0.868236 " transform="matrix(600,0,0,600,0,0)"/>
<path style="fill:none;stroke-width:0.001;stroke-linecap:butt;stroke-linejoin:miter;stroke:rgb(10%,10%,10%);stroke-opacity:0.6;stroke-miterlimit:10;" d="M 0.0820573 0.452865 L 0.222923 0.556491 " transform="matrix(600,0,0,600,0,0)"/>
<path style="fill:none;stroke-width:0.001;stroke-linecap:butt;stroke-linejoin:miter;stroke:rgb(10%,10%,10%);stroke-opacity:0.6;stroke-miterlimit:10;" d="M 0.662487 0.0237305 L 0.495866 0.039349 " transform="matrix(600,0,0,600,0,0)"/>
<path style="fill:none;stroke-width:0.001;stroke-linecap:butt;stroke-linejoin:miter;stroke:rgb(10%,10%,10%);stroke-opacity:0.6;stroke-miterlimit:10;" d="M 0.310911 0.0918164 L 0.495866 0.039349 " transform="matrix(600,0,0,600,0,0)"/>
<path style="fill:none;stroke-width:0.001;stroke-linecap:butt;stroke-linejoin:miter;stroke:rgb(10%,10%,10%);stroke-opacity:0.6;stroke-miterlimit:10;" d="M 0.603984 0.421224 L 0.775117 0.505234 " transform="matrix(600,0,0,600,0,0)"/>
<path style="fill:none;stroke-width:0.001;stroke-linecap:butt;stroke-linejoin:miter;stroke:rgb(10%,10%,10%);stroke-opacity:0.6;stroke-miterlimit:10;" d="M 0.661348 0.400026 L 0.603984 0.421224 " transform="matrix(600,0,0,600,0,0)"/>
<path style="fill:none;stroke-width:0.001;stroke-linecap:butt;stroke-linejoin:miter;stroke:rgb(10%,10%,10%);stroke-opacity:0.6;stroke-miterlimit:10;" d="M 0.169473 0.950495 L 0.0392773 0.960729 " transform="matrix(600,0,0,600,0,0)"/>
<path style="fill:none;stroke-width:0.001;stroke-linecap:butt;stroke-linejoin:miter;stroke:rgb(10%,10%,10%);stroke-opacity:0.6;stroke-miterlimit:10;" d="M 0.27944 0.924896 L 0.283691 0.868236 " transform="matrix(600,0,0,600,0,0)"/>
<path style="fill:none;stroke-width:0.001;stroke-linecap:butt;stroke-linejoin:miter;stroke:rgb(10%,10%,10%);stroke-opacity:0.6;stroke-miterlimit:10;" d="M 0.27944 0.924896 L 0.469857 0.973307 " transform="matrix(600,0,0,600,0,0)"/>
<path style="fill:none;stroke-width:0.001;stroke-linecap:butt;stroke-linejoin:miter;stroke:rgb(10%,10%,10%);stroke-opacity:0.6;stroke-miterlimit:10;" d="M 0.6789 0.628418 L 0.775117 0.505234 " transform="matrix(600,0,0,600,0,0)"/>
<path style="fill:none;stroke-width:0.001;stroke-linecap:butt;stroke-linejoin:miter;stroke:rgb(10%,10%,10%);stroke-opacity:0.6;stroke-miterlimit:10;" d="M 0.40806 0.138984 L 0.554909 0.138984 " transform="matrix(600,0,0,600,0,0)"/>
<path style="fill:none;stroke-width:0.001;stroke-linecap:butt;stroke-linejoin:miter;stroke:rgb(10%,10%,10%);stroke-opacity:0.6;stroke-miterlimit:10;" d="M 0.964805 0.983118 L 0.739909 0.973307 " transform="matrix(600,0,0,600,0,0)"/>
<path style="fill:none;stroke-width:0.001;stroke-linecap:butt;stroke-linejoin:miter;stroke:rgb(10%,10%,10%);stroke-opacity:0.6;stroke-miterlimit:10;" d="M 0.222923 0.556491 L 0.386829 0.421224 " transform="matrix(600,0,0,600,0,0)"/>
<path style="fill:none;stroke-width:0.001;stroke-linecap:butt;stroke-linejoin:miter;stroke:rgb(10%,10%,10%);stroke-opacity:0.6;stroke-miterlimit:10;" d="M 0.349206 0.714173 L 0.418203 0.818171 " transform="matrix(600,0,0,600,0,0)"/>
<path style="fill:none;stroke-width:0.001;stroke-linecap:butt;stroke-linejoin:miter;stroke:rgb(10%,10%,10%);stroke-opacity:0.6;stroke-miterlimit:10;" d="M 0.205456 0.124466 L 0.139961 0.0749089 " transform="matrix(600,0,0,600,0,0)"/>
<path style="fill:none;stroke-width:0.001;stroke-linecap:butt;stroke-linejoin:miter;stroke:rgb(10%,10%,10%);stroke-opacity:0.6;stroke-miterlimit:10;" d="M 0.661348 0.400026 L 0.554909 0.285833 " transform="matrix(600,0,0,600,0,0)"/>
<path style="fill:none;stroke-width:0.001;stroke-linecap:butt;stroke-linejoin:miter;stroke:rgb(10%,10%,10%);stroke-opacity:0.6;stroke-miterlimit:10;" d="M 0.349206 0.714173 L 0.386829 0.638379 " transform="matrix(600,0,0,600,0,0)"/>
<path style="fill:none;stroke-width:0.001;stroke-linecap:butt;stroke-linejoin:miter;stroke:rgb(10%,10%,10%);stroke-opacity:0.6;stroke-miterlimit:10;" d="M 0.0304622 0.26349 L 0.0152214 0.199648 " transform="matrix(600,0,0,600,0,0)"/>
<path style="fill:none;stroke-width:0.001;stroke-linecap:butt;stroke-linejoin:miter;stroke:rgb(10%,10%,10%);stroke-opacity:0.6;stroke-miterlimit:10;" d="M 0.0820573 0.452865 L 0.147956 0.380983 " transform="matrix(600,0,0,600,0,0)"/>
<path style="fill:none;stroke-width:0.001;stroke-linecap:butt;stroke-linejoin:miter;stroke:rgb(10%,10%,10%);stroke-opacity:0.6;stroke-miterlimit:10;" d="M 0.661348 0.400026 L 0.775117 0.505234 " transform="matrix(600,0,0,600,0,0)"/>
<path style="fill:none;stroke-width:0.001;stroke-linecap:butt;stroke-linejoin:miter;stroke:rgb(10%,10%,10%);stroke-opacity:0.6;stroke-miterlimit:10;" d="M 0.6789 0.628418 L 0.739909 0.703255 " transform="matrix(600,0,0,600,0,0)"/>
<path style="fill:none;stroke-width:0.001;stroke-linecap:butt;stroke-linejoin:miter;stroke:rgb(10%,10%,10%);stroke-opacity:0.6;stroke-miterlimit:10;" d="M 0.283691 0.868236 L 0.0386784 0.868236 " transform="matrix(600,0,0,600,0,0)"/>
<path style="fill:none;stroke-width:0.001;stroke-linecap:butt;stroke-linejoin:miter;stroke:rgb(10%,10%,10%);stroke-opacity:0.6;stroke-miterlimit:10;" d="M 0.0386784 0.623223 L 0.0304622 0.380983 " transform="matrix(600,0,0,600,0,0)"/>
<path style="fill:none;stroke-width:0.001;stroke-linecap:butt;stroke-linejoin:miter;stroke:rgb(10%,10%,10%);stroke-opacity:0.6;stroke-miterlimit:10;" d="M 0.495866 0.039349 L 0.40806 0.138984 " transform="matrix(600,0,0,600,0,0)"/>
<path style="fill:none;stroke-width:0.001;stroke-linecap:butt;stroke-linejoin:miter;stroke:rgb(10%,10%,10%);stroke-opacity:0.6;stroke-miterlimit:10;" d="M 0.276211 0.417845 L 0.222923 0.556491 " transform="matrix(600,0,0,600,0,0)"/>
<path style="fill:none;stroke-width:0.001;stroke-linecap:butt;stroke-linejoin:miter;stroke:rgb(10%,10%,10%);stroke-opacity:0.6;stroke-miterlimit:10;" d="M 0.283691 0.623223 L 0.386829 0.638379 " transform="matrix(600,0,0,600,0,0)"/>
<path style="fill:none;stroke-width:0.001;stroke-linecap:butt;stroke-linejoin:miter;stroke:rgb(10%,10%,10%);stroke-opacity:0.6;stroke-miterlimit:10;" d="M 0.265482 0.211816 L 0.40806 0.138984 " transform="matrix(600,0,0,600,0,0)"/>
<path style="fill:none;stroke-width:0.001;stroke-linecap:butt;stroke-linejoin:miter;stroke:rgb(10%,10%,10%);stroke-opacity:0.6;stroke-miterlimit:10;" d="M 0.98485 0.301452 L 0.922585 0.138789 " transform="matrix(600,0,0,600,0,0)"/>
<path style="fill:none;stroke-width:0.001;stroke-linecap:butt;stroke-linejoin:miter;stroke:rgb(10%,10%,10%);stroke-opacity:0.6;stroke-miterlimit:10;" d="M 0.767845 0.0590885 L 0.922585 0.138789 " transform="matrix(600,0,0,600,0,0)"/>
<path style="fill:none;stroke-width:0.001;stroke-linecap:butt;stroke-linejoin:miter;stroke:rgb(10%,10%,10%);stroke-opacity:0.6;stroke-miterlimit:10;" d="M 0.0392188 0.552682 L 0.0820573 0.452865 " transform="matrix(600,0,0,600,0,0)"/>
<path style="fill:none;stroke-width:0.001;stroke-linecap:butt;stroke-linejoin:miter;stroke:rgb(10%,10%,10%);stroke-opacity:0.6;stroke-miterlimit:10;" d="M 0.169473 0.950495 L 0.469857 0.973307 " transform="matrix(600,0,0,600,0,0)"/>
<path style="fill:none;stroke-width:0.001;stroke-linecap:butt;stroke-linejoin:miter;stroke:rgb(10%,10%,10%);stroke-opacity:0.6;stroke-miterlimit:10;" d="M 0.386829 0.421224 L 0.603984 0.421224 " transform="matrix(600,0,0,600,0,0)"/>
<path style="fill:none;stroke-width:0.001;stroke-linecap:butt;stroke-linejoin:miter;stroke:rgb(10%,10%,10%);stroke-opacity:0.6;stroke-miterlimit:10;" d="M 0.349206 0.714173 L 0.283691 0.868236 " transform="matrix(600,0,0,600,0,0)"/>
<path style="fill:none;stroke-width:0.001;stroke-linecap:butt;stroke-linejoin:miter;stroke:rgb(10%,10%,10%);stroke-opacity:0.6;stroke-miterlimit:10;" d="M 0.970404 0.461471 L 0.935762 0.665879 " transform="matrix(600,0,0,600,0,0)"/>
<path style="fill:none;stroke-width:0.001;stroke-linecap:butt;stroke-linejoin:miter;stroke:rgb(10%,10%,10%);stroke-opacity:0.6;stroke-miterlimit:10;" d="M 0.310911 0.0918164 L 0.139961 0.0749089 " transform="matrix(600,0,0,600,0,0)"/>
<path style="fill:none;stroke-width:0.001;stroke-linecap:butt;stroke-linejoin:miter;stroke:rgb(10%,10%,10%);stroke-opacity:0.6;stroke-miterlimit:10;" d="M 0.0386784 0.623223 L 0.283691 0.623223 " transform="matrix(600,0,0,600,0,0)"/>
<path style="fill:none;stroke-width:0.001;stroke-linecap:butt;stroke-linejoin:miter;stroke:rgb(10%,10%,10%);stroke-opacity:0.6;stroke-miterlimit:10;" d="M 0.661348 0.138789 L 0.554909 0.138984 " transform="matrix(600,0,0,600,0,0)"/>
<path style="fill:none;stroke-width:0.001;stroke-linecap:butt;stroke-linejoin:miter;stroke:rgb(10%,10%,10%);stroke-opacity:0.6;stroke-miterlimit:10;" d="M 0.739909 0.973307 L 0.469857 0.973307 " transform="matrix(600,0,0,600,0,0)"/>
<path style="fill:none;stroke-width:0.001;stroke-linecap:butt;stroke-linejoin:miter;stroke:rgb(10%,10%,10%);stroke-opacity:0.6;stroke-miterlimit:10;" d="M 0.276211 0.417845 L 0.147956 0.380983 " transform="matrix(600,0,0,600,0,0)"/>
<path style="fill:none;stroke-width:0.001;stroke-linecap:butt;stroke-linejoin:miter;stroke:rgb(10%,10%,10%);stroke-opacity:0.6;stroke-miterlimit:10;" d="M 0.603984 0.638379 L 0.386829 0.638379 " transform="matrix(600,0,0,600,0,0)"/>
<path style="fill:none;stroke-width:0.001;stroke-linecap:butt;stroke-linejoin:miter;stroke:rgb(10%,10%,10%);stroke-opacity:0.6;stroke-miterlimit:10;" d="M 0.147956 0.26349 L 0.139961 0.199648 " transform="matrix(600,0,0,600,0,0)"/>
<path style="fill:none;stroke-width:0.001;stroke-linecap:butt;stroke-linejoin:miter;stroke:rgb(10%,10%,10%);stroke-opacity:0.6;stroke-miterlimit:10;" d="M 0.283691 0.623223 L 0.283691 0.868236 " transform="matrix(600,0,0,600,0,0)"/>
<path style="fill:none;stroke-width:0.001;stroke-linecap:butt;stroke-linejoin:miter;stroke:rgb(10%,10%,10%);stroke-opacity:0.6;stroke-miterlimit:10;" d="M 0.895482 0.821471 L 0.964805 0.983118 " transform="matrix(600,0,0,600,0,0)"/>
<path style="fill:none;stroke-width:0.001;stroke-linecap:butt;stroke-linejoin:miter;stroke:rgb(10%,10%,10%);stroke-opacity:0.6;stroke-miterlimit:10;" d="M 0.452969 0.335977 L 0.40806 0.285833 " transform="matrix(600,0,0,600,0,0)"/>
<path style="fill:none;stroke-width:0.001;stroke-linecap:butt;stroke-linejoin:miter;stroke:rgb(10%,10%,10%);stroke-opacity:0.6;stroke-miterlimit:10;" d="M 0.310911 0.0918164 L 0.40806 0.138984 " transform="matrix(600,0,0,600,0,0)"/>
<path style="fill:none;stroke-width:0.001;stroke-linecap:butt;stroke-linejoin:miter;stroke:rgb(10%,10%,10%);stroke-opacity:0.6;stroke-miterlimit:10;" d="M 0.418203 0.818171 L 0.739909 0.703255 " transform="matrix(600,0,0,600,0,0)"/>
<path style="fill:none;stroke-width:0.001;stroke-linecap:butt;stroke-linejoin:miter;stroke:rgb(10%,10%,10%);stroke-opacity:0.6;stroke-miterlimit:10;" d="M 0.98485 0.301452 L 0.970404 0.461471 " transform="matrix(600,0,0,600,0,0)"/>
<path style="fill:none;stroke-width:0.001;stroke-linecap:butt;stroke-linejoin:miter;stroke:rgb(10%,10%,10%);stroke-opacity:0.6;stroke-miterlimit:10;" d="M 0.386829 0.421224 L 0.386829 0.638379 " transform="matrix(600,0,0,600,0,0)"/>
<path style="fill:none;stroke-width:0.001;stroke-linecap:butt;stroke-linejoin:miter;stroke:rgb(10%,10%,10%);stroke-opacity:0.6;stroke-miterlimit:10;" d="M 0.964805 0.983118 L 0.982936 0.883672 " transform="matrix(600,0,0,600,0,0)"/>
<path style="fill:none;stroke-width:0.003;stroke-linecap:butt;stroke-linejoin:miter;stroke:rgb(10%,10%,70%);stroke-opacity:0.6;stroke-miterlimit:10;" d="M 0.569909 0.138984 C 0.569909 0.147266 0.563197 0.153984 0.554909 0.153984 C 0.546628 0.153984 0.539909 0.147266 0.539909 0.138984 C 0.539909 0.130697 0.546628 0.123984 0.554909 0.123984 C 0.563197 0.123984 0.569909 0.130697 0.569909 0.138984 " transform="matrix(600,0,0,600,0,0)"/>
<path style="fill:none;stroke-width:0.003;stroke-linecap:butt;stroke-linejoin:miter;stroke:rgb(10%,10%,70%);stroke-opacity:0.6;stroke-miterlimit:10;" d="M 0.677487 0.0237305 C 0.677487 0.0320182 0.670768 0.0387305 0.662487 0.0387305 C 0.654199 0.0387305 0.647487 0.0320182 0.647487 0.0237305 C 0.647487 0.0154492 0.654199 0.00873047 0.662487 0.00873047 C 0.670768 0.00873047 0.677487 0.0154492 0.677487 0.0237305 " transform="matrix(600,0,0,600,0,0)"/>
<path style="fill:none;stroke-width:0.003;stroke-linecap:butt;stroke-linejoin:miter;stroke:rgb(10%,10%,70%);stroke-opacity:0.6;stroke-miterlimit:10;" d="M 0.510866 0.039349 C 0.510866 0.0476302 0.504147 0.054349 0.495866 0.054349 C 0.487578 0.054349 0.480866 0.0476302 0.480866 0.039349 C 0.480866 0.0310612 0.487578 0.024349 0.495866 0.024349 C 0.504147 0.024349 0.510866 0.0310612 0.510866 0.039349 " transform="matrix(600,0,0,600,0,0)"/>
<path style="fill:none;stroke-width:0.003;stroke-linecap:butt;stroke-linejoin:miter;stroke:rgb(10%,10%,70%);stroke-opacity:0.6;stroke-miterlimit:10;" d="M 0.676348 0.138789 C 0.676348 0.147077 0.669629 0.153789 0.661348 0.153789 C 0.65306 0.153789 0.646348 0.147077 0.646348 0.138789 C 0.646348 0.130508 0.65306 0.123789 0.661348 0.123789 C 0.669629 0.123789 0.676348 0.130508 0.676348 0.138789 " transform="matrix(600,0,0,600,0,0)"/>
<path style="fill:none;stroke-width:0.003;stroke-linecap:butt;stroke-linejoin:miter;stroke:rgb(10%,10%,70%);stroke-opacity:0.6;stroke-miterlimit:10;" d="M 0.42306 0.138984 C 0.42306 0.147266 0.416348 0.153984 0.40806 0.153984 C 0.399779 0.153984 0.39306 0.147266 0.39306 0.138984 C 0.39306 0.130697 0.399779 0.123984 0.40806 0.123984 C 0.416348 0.123984 0.42306 0.130697 0.42306 0.138984 " transform="matrix(600,0,0,600,0,0)"/>
<path style="fill:none;stroke-width:0.003;stroke-linecap:butt;stroke-linejoin:miter;stroke:rgb(10%,10%,70%);stroke-opacity:0.6;stroke-miterlimit:10;" d="M 0.569909 0.285833 C 0.569909 0.294115 0.563197 0.300833 0.554909 0.300833 C 0.546628 0.300833 0.539909 0.294115 0.539909 0.285833 C 0.539909 0.277546 0.546628 0.270833 0.554909 0.270833 C 0.563197 0.270833 0.569909 0.277546 0.569909 0.285833 " transform="matrix(600,0,0,600,0,0)"/>
<path style="fill:none;stroke-width:0.003;stroke-linecap:butt;stroke-linejoin:miter;stroke:rgb(10%,10%,70%);stroke-opacity:0.6;stroke-miterlimit:10;" d="M 0.280482 0.211816 C 0.280482 0.220104 0.273763 0.226816 0.265482 0.226816 C 0.257194 0.226816 0.250482 0.220104 0.250482 0.211816 C 0.250482 0.203535 0.257194 0.196816 0.265482 0.196816 C 0.273763 0.196816 0.280482 0.203535 0.280482 0.211816 " transform="matrix(600,0,0,600,0,0)"/>
<path style="fill:none;stroke-width:0.003;stroke-linecap:butt;stroke-linejoin:miter;stroke:rgb(10%,10%,70%);stroke-opacity:0.6;stroke-miterlimit:10;" d="M 0.467969 0.335977 C 0.467969 0.344258 0.46125 0.350977 0.452969 0.350977 C 0.444681 0.350977 0.437969 0.344258 0.437969 0.335977 C 0.437969 0.327689 0.444681 0.320977 0.452969 0.320977 C 0.46125 0.320977 0.467969 0.327689 0.467969 0.335977 " transform="matrix(600,0,0,600,0,0)"/>
<path style="fill:none;stroke-width:0.003;stroke-linecap:butt;stroke-linejoin:miter;stroke:rgb(10%,10%,70%);stroke-opacity:0.6;stroke-miterlimit:10;" d="M 0.325911 0.0918164 C 0.325911 0.100104 0.319193 0.106816 0.310911 0.106816 C 0.302624 0.106816 0.295911 0.100104 0.295911 0.0918164 C 0.295911 0.0835352 0.302624 0.0768164 0.310911 0.0768164 C 0.319193 0.0768164 0.325911 0.0835352 0.325911 0.0918164 " transform="matrix(600,0,0,600,0,0)"/>
<path style="fill:none;stroke-width:0.003;stroke-linecap:butt;stroke-linejoin:miter;stroke:rgb(10%,10%,70%);stroke-opacity:0.6;stroke-miterlimit:10;" d="M 0.782845 0.0590885 C 0.782845 0.0673698 0.776126 0.0740885 0.767845 0.0740885 C 0.759557 0.0740885 0.752845 0.0673698 0.752845 0.0590885 C 0.752845 0.0508008 0.759557 0.0440885 0.767845 0.0440885 C 0.776126 0.0440885 0.782845 0.0508008 0.782845 0.0590885 " transform="matrix(600,0,0,600,0,0)"/>
<path style="fill:none;stroke-width:0.003;stroke-linecap:butt;stroke-linejoin:miter;stroke:rgb(10%,10%,70%);stroke-opacity:0.6;stroke-miterlimit:10;" d="M 0.949948 0.0217253 C 0.949948 0.0300065 0.943236 0.0367253 0.934948 0.0367253 C 0.926667 0.0367253 0.919948 0.0300065 0.919948 0.0217253 C 0.919948 0.0134375 0.926667 0.00672526 0.934948 0.00672526 C 0.943236 0.00672526 0.949948 0.0134375 0.949948 0.0217253 " transform="matrix(600,0,0,600,0,0)"/>
<path style="fill:none;stroke-width:0.003;stroke-linecap:butt;stroke-linejoin:miter;stroke:rgb(10%,10%,70%);stroke-opacity:0.6;stroke-miterlimit:10;" d="M 0.937585 0.138789 C 0.937585 0.147077 0.930866 0.153789 0.922585 0.153789 C 0.914303 0.153789 0.907585 0.147077 0.907585 0.138789 C 0.907585 0.130508 0.914303 0.123789 0.922585 0.123789 C 0.930866 0.123789 0.937585 0.130508 0.937585 0.138789 " transform="matrix(600,0,0,600,0,0)"/>
<path style="fill:none;stroke-width:0.003;stroke-linecap:butt;stroke-linejoin:miter;stroke:rgb(10%,10%,70%);stroke-opacity:0.6;stroke-miterlimit:10;" d="M 0.676348 0.400026 C 0.676348 0.408314 0.669629 0.415026 0.661348 0.415026 C 0.65306 0.415026 0.646348 0.408314 0.646348 0.400026 C 0.646348 0.391745 0.65306 0.385026 0.661348 0.385026 C 0.669629 0.385026 0.676348 0.391745 0.676348 0.400026 " transform="matrix(600,0,0,600,0,0)"/>
<path style="fill:none;stroke-width:0.003;stroke-linecap:butt;stroke-linejoin:miter;stroke:rgb(10%,10%,70%);stroke-opacity:0.6;stroke-miterlimit:10;" d="M 0.42306 0.285833 C 0.42306 0.294115 0.416348 0.300833 0.40806 0.300833 C 0.399779 0.300833 0.39306 0.294115 0.39306 0.285833 C 0.39306 0.277546 0.399779 0.270833 0.40806 0.270833 C 0.416348 0.270833 0.42306 0.277546 0.42306 0.285833 " transform="matrix(600,0,0,600,0,0)"/>
<path style="fill:none;stroke-width:0.003;stroke-linecap:butt;stroke-linejoin:miter;stroke:rgb(10%,10%,70%);stroke-opacity:0.6;stroke-miterlimit:10;" d="M 0.618984 0.421224 C 0.618984 0.429505 0.612266 0.436224 0.603984 0.436224 C 0.595703 0.436224 0.588984 0.429505 0.588984 0.421224 C 0.588984 0.412943 0.595703 0.406224 0.603984 0.406224 C 0.612266 0.406224 0.618984 0.412943 0.618984 0.421224 " transform="matrix(600,0,0,600,0,0)"/>
<path style="fill:none;stroke-width:0.003;stroke-linecap:butt;stroke-linejoin:miter;stroke:rgb(70%,10%,10%);stroke-opacity:0.6;stroke-miterlimit:10;" d="M 0.574909 0.138984 C 0.574909 0.150026 0.565957 0.158984 0.554909 0.158984 C 0.543867 0.158984 0.534909 0.150026 0.534909 0.138984 C 0.534909 0.127936 0.543867 0.118984 0.554909 0.118984 C 0.565957 0.118984 0.574909 0.127936 0.574909 0.138984 " transform="matrix(600,0,0,600,0,0)"/>
<path style="fill:none;stroke-width:0.003;stroke-linecap:butt;stroke-linejoin:miter;stroke:rgb(70%,10%,10%);stroke-opacity:0.6;stroke-miterlimit:10;" d="M 0.955762 0.665879 C 0.955762 0.676921 0.946803 0.685879 0.935762 0.685879 C 0.924714 0.685879 0.915762 0.676921 0.915762 0.665879 C 0.915762 0.654831 0.924714 0.645879 0.935762 0.645879 C 0.946803 0.645879 0.955762 0.654831 0.955762 0.665879 " transform="matrix(600,0,0,600,0,0)"/>
<path style="fill:none;stroke-width:0.003;stroke-linecap:butt;stroke-linejoin:miter;stroke:rgb(70%,10%,70%);stroke-opacity:0.6;stroke-miterlimit:10;" d="M 0.960762 0.665879 C 0.960762 0.679688 0.949564 0.690879 0.935762 0.690879 C 0.921953 0.690879 0.910762 0.679688 0.910762 0.665879 C 0.910762 0.65207 0.921953 0.640879 0.935762 0.640879 C 0.949564 0.640879 0.960762 0.65207 0.960762 0.665879 " transform="matrix(600,0,0,600,0,0)"/>
<path style="fill:none;stroke-width:0.003;stroke-linecap:butt;stroke-linejoin:miter;stroke:rgb(70%,10%,70%);stroke-opacity:0.6;stroke-miterlimit:10;" d="M 0.960762 0.665879 C 0.960762 0.679688 0.949564 0.690879 0.935762 0.690879 C 0.921953 0.690879 0.910762 0.679688 0.910762 0.665879 C 0.910762 0.65207 0.921953 0.640879 0.935762 0.640879 C 0.949564 0.640879 0.960762 0.65207 0.960762 0.665879 " transform="matrix(600,0,0,600,0,0)"/>
<path style="fill:none;stroke-width:0.003;stroke-linecap:butt;stroke-linejoin:miter;stroke:rgb(70%,10%,70%);stroke-opacity:0.6;stroke-miterlimit:10;" d="M 0.960762 0.665879 C 0.960762 0.679688 0.949564 0.690879 0.935762 0.690879 C 0.921953 0.690879 0.910762 0.679688 0.910762 0.665879 C 0.910762 0.65207 0.921953 0.640879 0.935762 0.640879 C 0.949564 0.640879 0.960762 0.65207 0.960762 0.665879 " transform="matrix(600,0,0,600,0,0)"/>
<path style="fill:none;stroke-width:0.003;stroke-linecap:butt;stroke-linejoin:miter;stroke:rgb(70%,10%,70%);stroke-opacity:0.6;stroke-miterlimit:10;" d="M 0.960762 0.665879 C 0.960762 0.679688 0.949564 0.690879 0.935762 0.690879 C 0.921953 0.690879 0.910762 0.679688 0.910762 0.665879 C 0.910762 0.65207 0.921953 0.640879 0.935762 0.640879 C 0.949564 0.640879 0.960762 0.65207 0.960762 0.665879 " transform="matrix(600,0,0,600,0,0)"/>
</g>
</svg>
