<?xml version="1.0" encoding="UTF-8"?>
<svg xmlns="http://www.w3.org/2000/svg" xmlns:xlink="http://www.w3.org/1999/xlink" width="600" height="600" viewBox="0 0 600 600">
<path fill="none" stroke-width="0.003" stroke-linecap="butt" stroke-linejoin="miter" stroke="rgb(70%, 30%, 30%)" stroke-opacity="0.6" stroke-miterlimit="10" d="M 0.494622 0.552467 L 0.773867 0.552467 L 0.773867 0.831712 L 0.494622 0.831712 L 0.494622 0.552467 " transform="matrix(600, 0, 0, 600, 0, 0)"/>
<path fill="none" stroke-width="0.003" stroke-linecap="butt" stroke-linejoin="miter" stroke="rgb(70%, 30%, 30%)" stroke-opacity="0.6" stroke-miterlimit="10" d="M 0.286361 0.852454 L 0.389076 0.852454 L 0.389076 0.955169 L 0.286361 0.955169 L 0.286361 0.852454 " transform="matrix(600, 0, 0, 600, 0, 0)"/>
<path fill="none" stroke-width="0.003" stroke-linecap="butt" stroke-linejoin="miter" stroke="rgb(70%, 30%, 30%)" stroke-opacity="0.6" stroke-miterlimit="10" d="M 0.171328 0.260221 L 0.350202 0.260221 L 0.350202 0.439089 L 0.171328 0.439089 L 0.171328 0.260221 " transform="matrix(600, 0, 0, 600, 0, 0)"/>
<path fill="none" stroke-width="0.003" stroke-linecap="butt" stroke-linejoin="miter" stroke="rgb(70%, 30%, 30%)" stroke-opacity="0.6" stroke-miterlimit="10" d="M 0.517077 0.0316602 L 0.615 0.0316602 L 0.615 0.129583 L 0.517077 0.129583 L 0.517077 0.0316602 " transform="matrix(600, 0, 0, 600, 0, 0)"/>
<path fill="none" stroke-width="0.003" stroke-linecap="butt" stroke-linejoin="miter" stroke="rgb(70%, 30%, 30%)" stroke-opacity="0.6" stroke-miterlimit="10" d="M 0.171152 0.623542 L 0.271947 0.623542 L 0.271947 0.724336 L 0.171152 0.724336 L 0.171152 0.623542 " transform="matrix(600, 0, 0, 600, 0, 0)"/>
<path fill="none" stroke-width="0.003" stroke-linecap="butt" stroke-linejoin="miter" stroke="rgb(70%, 30%, 30%)" stroke-opacity="0.6" stroke-miterlimit="10" d="M 0.591426 0.275827 L 0.674284 0.275827 L 0.674284 0.358685 L 0.591426 0.358685 L 0.591426 0.275827 " transform="matrix(600, 0, 0, 600, 0, 0)"/>
<path fill="none" stroke-width="0.003" stroke-linecap="butt" stroke-linejoin="miter" stroke="rgb(70%, 30%, 30%)" stroke-opacity="0.6" stroke-miterlimit="10" d="M 0.791139 0.00179036 L 0.8964 0.00179036 L 0.8964 0.107051 L 0.791139 0.107051 L 0.791139 0.00179036 " transform="matrix(600, 0, 0, 600, 0, 0)"/>
<path fill="none" stroke-width="0.003" stroke-linecap="butt" stroke-linejoin="miter" stroke="rgb(30%, 70%, 30%)" stroke-opacity="0.6" stroke-miterlimit="10" d="M 0.735189 0.943483 C 0.735189 0.94901 0.73071 0.953483 0.725189 0.953483 C 0.719668 0.953483 0.715189 0.94901 0.715189 0.943483 C 0.715189 0.937962 0.719668 0.933483 0.725189 0.933483 C 0.73071 0.933483 0.735189 0.937962 0.735189 0.943483 " transform="matrix(600, 0, 0, 600, 0, 0)"/>
<path fill="none" stroke-width="0.003" stroke-linecap="butt" stroke-linejoin="miter" stroke="rgb(30%, 70%, 30%)" stroke-opacity="0.6" stroke-miterlimit="10" d="M 0.0732747 0.663997 C 0.0732747 0.669518 0.0687956 0.673997 0.0632747 0.673997 C 0.0577474 0.673997 0.0532747 0.669518 0.0532747 0.663997 C 0.0532747 0.658477 0.0577474 0.653997 0.0632747 0.653997 C 0.0687956 0.653997 0.0732747 0.658477 0.0732747 0.663997 " transform="matrix(600, 0, 0, 600, 0, 0)"/>
<path fill="none" stroke-width="0.003" stroke-linecap="butt" stroke-linejoin="miter" stroke="rgb(30%, 70%, 30%)" stroke-opacity="0.6" stroke-miterlimit="10" d="M 0.346855 0.0816406 C 0.346855 0.0871615 0.342376 0.0916406 0.336855 0.0916406 C 0.331335 0.0916406 0.326855 0.0871615 0.326855 0.0816406 C 0.326855 0.0761198 0.331335 0.0716406 0.336855 0.0716406 C 0.342376 0.0716406 0.346855 0.0761198 0.346855 0.0816406 " transform="matrix(600, 0, 0, 600, 0, 0)"/>
<path fill="none" stroke-width="0.003" stroke-linecap="butt" stroke-linejoin="miter" stroke="rgb(30%, 70%, 30%)" stroke-opacity="0.6" stroke-miterlimit="10" d="M 0.0634375 0.0366016 C 0.0634375 0.0421224 0.0589583 0.0466016 0.0534375 0.0466016 C 0.0479102 0.0466016 0.0434375 0.0421224 0.0434375 0.0366016 C 0.0434375 0.0310807 0.0479102 0.0266016 0.0534375 0.0266016 C 0.0589583 0.0266016 0.0634375 0.0310807 0.0634375 0.0366016 " transform="matrix(600, 0, 0, 600, 0, 0)"/>
<path fill="none" stroke-width="0.003" stroke-linecap="butt" stroke-linejoin="miter" stroke="rgb(30%, 70%, 30%)" stroke-opacity="0.6" stroke-miterlimit="10" d="M 0.235241 0.50651 C 0.235241 0.512031 0.230768 0.51651 0.225241 0.51651 C 0.21972 0.51651 0.215241 0.512031 0.215241 0.50651 C 0.215241 0.500983 0.21972 0.49651 0.225241 0.49651 C 0.230768 0.49651 0.235241 0.500983 0.235241 0.50651 " transform="matrix(600, 0, 0, 600, 0, 0)"/>
<path fill="none" stroke-width="0.003" stroke-linecap="butt" stroke-linejoin="miter" stroke="rgb(30%, 70%, 30%)" stroke-opacity="0.6" stroke-miterlimit="10" d="M 0.40028 0.223639 C 0.40028 0.229167 0.395801 0.233639 0.39028 0.233639 C 0.384753 0.233639 0.38028 0.229167 0.38028 0.223639 C 0.38028 0.218118 0.384753 0.213639 0.39028 0.213639 C 0.395801 0.213639 0.40028 0.218118 0.40028 0.223639 " transform="matrix(600, 0, 0, 600, 0, 0)"/>
<path fill="none" stroke-width="0.001" stroke-linecap="butt" stroke-linejoin="miter" stroke="rgb(10%, 10%, 10%)" stroke-opacity="0.6" stroke-miterlimit="10" d="M 0.350202 0.439089 L 0.591426 0.358685 " transform="matrix(600, 0, 0, 600, 0, 0)"/>
<path fill="none" stroke-width="0.001" stroke-linecap="butt" stroke-linejoin="miter" stroke="rgb(10%, 10%, 10%)" stroke-opacity="0.6" stroke-miterlimit="10" d="M 0.773867 0.831712 L 0.494622 0.831712 " transform="matrix(600, 0, 0, 600, 0, 0)"/>
<path fill="none" stroke-width="0.001" stroke-linecap="butt" stroke-linejoin="miter" stroke="rgb(10%, 10%, 10%)" stroke-opacity="0.6" stroke-miterlimit="10" d="M 0.517077 0.0316602 L 0.615 0.0316602 " transform="matrix(600, 0, 0, 600, 0, 0)"/>
<path fill="none" stroke-width="0.001" stroke-linecap="butt" stroke-linejoin="miter" stroke="rgb(10%, 10%, 10%)" stroke-opacity="0.6" stroke-miterlimit="10" d="M 0.773867 0.552467 L 0.674284 0.358685 " transform="matrix(600, 0, 0, 600, 0, 0)"/>
<path fill="none" stroke-width="0.001" stroke-linecap="butt" stroke-linejoin="miter" stroke="rgb(10%, 10%, 10%)" stroke-opacity="0.6" stroke-miterlimit="10" d="M 0.171328 0.260221 L 0.350202 0.260221 " transform="matrix(600, 0, 0, 600, 0, 0)"/>
<path fill="none" stroke-width="0.001" stroke-linecap="butt" stroke-linejoin="miter" stroke="rgb(10%, 10%, 10%)" stroke-opacity="0.6" stroke-miterlimit="10" d="M 0.39028 0.223639 L 0.517077 0.129583 " transform="matrix(600, 0, 0, 600, 0, 0)"/>
<path fill="none" stroke-width="0.001" stroke-linecap="butt" stroke-linejoin="miter" stroke="rgb(10%, 10%, 10%)" stroke-opacity="0.6" stroke-miterlimit="10" d="M 0.225241 0.50651 L 0.271947 0.623542 " transform="matrix(600, 0, 0, 600, 0, 0)"/>
<path fill="none" stroke-width="0.001" stroke-linecap="butt" stroke-linejoin="miter" stroke="rgb(10%, 10%, 10%)" stroke-opacity="0.6" stroke-miterlimit="10" d="M 0.0632747 0.663997 L 0.171328 0.439089 " transform="matrix(600, 0, 0, 600, 0, 0)"/>
<path fill="none" stroke-width="0.001" stroke-linecap="butt" stroke-linejoin="miter" stroke="rgb(10%, 10%, 10%)" stroke-opacity="0.6" stroke-miterlimit="10" d="M 0.350202 0.260221 L 0.350202 0.439089 " transform="matrix(600, 0, 0, 600, 0, 0)"/>
<path fill="none" stroke-width="0.001" stroke-linecap="butt" stroke-linejoin="miter" stroke="rgb(10%, 10%, 10%)" stroke-opacity="0.6" stroke-miterlimit="10" d="M 0.517077 0.0316602 L 0.517077 0.129583 " transform="matrix(600, 0, 0, 600, 0, 0)"/>
<path fill="none" stroke-width="0.001" stroke-linecap="butt" stroke-linejoin="miter" stroke="rgb(10%, 10%, 10%)" stroke-opacity="0.6" stroke-miterlimit="10" d="M 0.517077 0.0316602 L 0.791139 0.00179036 " transform="matrix(600, 0, 0, 600, 0, 0)"/>
<path fill="none" stroke-width="0.001" stroke-linecap="butt" stroke-linejoin="miter" stroke="rgb(10%, 10%, 10%)" stroke-opacity="0.6" stroke-miterlimit="10" d="M 0.171328 0.260221 L 0.171328 0.439089 " transform="matrix(600, 0, 0, 600, 0, 0)"/>
<path fill="none" stroke-width="0.001" stroke-linecap="butt" stroke-linejoin="miter" stroke="rgb(10%, 10%, 10%)" stroke-opacity="0.6" stroke-miterlimit="10" d="M 0.615 0.129583 L 0.791139 0.107051 " transform="matrix(600, 0, 0, 600, 0, 0)"/>
<path fill="none" stroke-width="0.001" stroke-linecap="butt" stroke-linejoin="miter" stroke="rgb(10%, 10%, 10%)" stroke-opacity="0.6" stroke-miterlimit="10" d="M 0.494622 0.831712 L 0.389076 0.955169 " transform="matrix(600, 0, 0, 600, 0, 0)"/>
<path fill="none" stroke-width="0.001" stroke-linecap="butt" stroke-linejoin="miter" stroke="rgb(10%, 10%, 10%)" stroke-opacity="0.6" stroke-miterlimit="10" d="M 0.725189 0.943483 L 0.494622 0.831712 " transform="matrix(600, 0, 0, 600, 0, 0)"/>
<path fill="none" stroke-width="0.001" stroke-linecap="butt" stroke-linejoin="miter" stroke="rgb(10%, 10%, 10%)" stroke-opacity="0.6" stroke-miterlimit="10" d="M 0.350202 0.439089 L 0.171328 0.439089 " transform="matrix(600, 0, 0, 600, 0, 0)"/>
<path fill="none" stroke-width="0.001" stroke-linecap="butt" stroke-linejoin="miter" stroke="rgb(10%, 10%, 10%)" stroke-opacity="0.6" stroke-miterlimit="10" d="M 0.389076 0.955169 L 0.286361 0.955169 " transform="matrix(600, 0, 0, 600, 0, 0)"/>
<path fill="none" stroke-width="0.001" stroke-linecap="butt" stroke-linejoin="miter" stroke="rgb(10%, 10%, 10%)" stroke-opacity="0.6" stroke-miterlimit="10" d="M 0.615 0.129583 L 0.591426 0.275827 " transform="matrix(600, 0, 0, 600, 0, 0)"/>
<path fill="none" stroke-width="0.001" stroke-linecap="butt" stroke-linejoin="miter" stroke="rgb(10%, 10%, 10%)" stroke-opacity="0.6" stroke-miterlimit="10" d="M 0.171152 0.623542 L 0.271947 0.623542 " transform="matrix(600, 0, 0, 600, 0, 0)"/>
<path fill="none" stroke-width="0.001" stroke-linecap="butt" stroke-linejoin="miter" stroke="rgb(10%, 10%, 10%)" stroke-opacity="0.6" stroke-miterlimit="10" d="M 0.286361 0.852454 L 0.271947 0.724336 " transform="matrix(600, 0, 0, 600, 0, 0)"/>
<path fill="none" stroke-width="0.001" stroke-linecap="butt" stroke-linejoin="miter" stroke="rgb(10%, 10%, 10%)" stroke-opacity="0.6" stroke-miterlimit="10" d="M 0.494622 0.552467 L 0.591426 0.358685 " transform="matrix(600, 0, 0, 600, 0, 0)"/>
<path fill="none" stroke-width="0.001" stroke-linecap="butt" stroke-linejoin="miter" stroke="rgb(10%, 10%, 10%)" stroke-opacity="0.6" stroke-miterlimit="10" d="M 0.171152 0.623542 L 0.171152 0.724336 " transform="matrix(600, 0, 0, 600, 0, 0)"/>
<path fill="none" stroke-width="0.001" stroke-linecap="butt" stroke-linejoin="miter" stroke="rgb(10%, 10%, 10%)" stroke-opacity="0.6" stroke-miterlimit="10" d="M 0.271947 0.623542 L 0.271947 0.724336 " transform="matrix(600, 0, 0, 600, 0, 0)"/>
<path fill="none" stroke-width="0.001" stroke-linecap="butt" stroke-linejoin="miter" stroke="rgb(10%, 10%, 10%)" stroke-opacity="0.6" stroke-miterlimit="10" d="M 0.615 0.0316602 L 0.615 0.129583 " transform="matrix(600, 0, 0, 600, 0, 0)"/>
<path fill="none" stroke-width="0.001" stroke-linecap="butt" stroke-linejoin="miter" stroke="rgb(10%, 10%, 10%)" stroke-opacity="0.6" stroke-miterlimit="10" d="M 0.674284 0.275827 L 0.791139 0.107051 " transform="matrix(600, 0, 0, 600, 0, 0)"/>
<path fill="none" stroke-width="0.001" stroke-linecap="butt" stroke-linejoin="miter" stroke="rgb(10%, 10%, 10%)" stroke-opacity="0.6" stroke-miterlimit="10" d="M 0.674284 0.358685 L 0.8964 0.107051 " transform="matrix(600, 0, 0, 600, 0, 0)"/>
<path fill="none" stroke-width="0.001" stroke-linecap="butt" stroke-linejoin="miter" stroke="rgb(10%, 10%, 10%)" stroke-opacity="0.6" stroke-miterlimit="10" d="M 0.271947 0.724336 L 0.171152 0.724336 " transform="matrix(600, 0, 0, 600, 0, 0)"/>
<path fill="none" stroke-width="0.001" stroke-linecap="butt" stroke-linejoin="miter" stroke="rgb(10%, 10%, 10%)" stroke-opacity="0.6" stroke-miterlimit="10" d="M 0.615 0.129583 L 0.517077 0.129583 " transform="matrix(600, 0, 0, 600, 0, 0)"/>
<path fill="none" stroke-width="0.001" stroke-linecap="butt" stroke-linejoin="miter" stroke="rgb(10%, 10%, 10%)" stroke-opacity="0.6" stroke-miterlimit="10" d="M 0.0534375 0.0366016 L 0.171328 0.260221 " transform="matrix(600, 0, 0, 600, 0, 0)"/>
<path fill="none" stroke-width="0.001" stroke-linecap="butt" stroke-linejoin="miter" stroke="rgb(10%, 10%, 10%)" stroke-opacity="0.6" stroke-miterlimit="10" d="M 0.225241 0.50651 L 0.171152 0.623542 " transform="matrix(600, 0, 0, 600, 0, 0)"/>
<path fill="none" stroke-width="0.001" stroke-linecap="butt" stroke-linejoin="miter" stroke="rgb(10%, 10%, 10%)" stroke-opacity="0.6" stroke-miterlimit="10" d="M 0.336855 0.0816406 L 0.350202 0.260221 " transform="matrix(600, 0, 0, 600, 0, 0)"/>
<path fill="none" stroke-width="0.001" stroke-linecap="butt" stroke-linejoin="miter" stroke="rgb(10%, 10%, 10%)" stroke-opacity="0.6" stroke-miterlimit="10" d="M 0.791139 0.00179036 L 0.8964 0.00179036 " transform="matrix(600, 0, 0, 600, 0, 0)"/>
<path fill="none" stroke-width="0.001" stroke-linecap="butt" stroke-linejoin="miter" stroke="rgb(10%, 10%, 10%)" stroke-opacity="0.6" stroke-miterlimit="10" d="M 0.0632747 0.663997 L 0.171152 0.724336 " transform="matrix(600, 0, 0, 600, 0, 0)"/>
<path fill="none" stroke-width="0.001" stroke-linecap="butt" stroke-linejoin="miter" stroke="rgb(10%, 10%, 10%)" stroke-opacity="0.6" stroke-miterlimit="10" d="M 0.350202 0.439089 L 0.271947 0.623542 " transform="matrix(600, 0, 0, 600, 0, 0)"/>
<path fill="none" stroke-width="0.001" stroke-linecap="butt" stroke-linejoin="miter" stroke="rgb(10%, 10%, 10%)" stroke-opacity="0.6" stroke-miterlimit="10" d="M 0.591426 0.275827 L 0.674284 0.275827 " transform="matrix(600, 0, 0, 600, 0, 0)"/>
<path fill="none" stroke-width="0.001" stroke-linecap="butt" stroke-linejoin="miter" stroke="rgb(10%, 10%, 10%)" stroke-opacity="0.6" stroke-miterlimit="10" d="M 0.494622 0.552467 L 0.271947 0.724336 " transform="matrix(600, 0, 0, 600, 0, 0)"/>
<path fill="none" stroke-width="0.001" stroke-linecap="butt" stroke-linejoin="miter" stroke="rgb(10%, 10%, 10%)" stroke-opacity="0.6" stroke-miterlimit="10" d="M 0.8964 0.00179036 L 0.8964 0.107051 " transform="matrix(600, 0, 0, 600, 0, 0)"/>
<path fill="none" stroke-width="0.001" stroke-linecap="butt" stroke-linejoin="miter" stroke="rgb(10%, 10%, 10%)" stroke-opacity="0.6" stroke-miterlimit="10" d="M 0.674284 0.275827 L 0.674284 0.358685 " transform="matrix(600, 0, 0, 600, 0, 0)"/>
<path fill="none" stroke-width="0.001" stroke-linecap="butt" stroke-linejoin="miter" stroke="rgb(10%, 10%, 10%)" stroke-opacity="0.6" stroke-miterlimit="10" d="M 0.615 0.0316602 L 0.791139 0.107051 " transform="matrix(600, 0, 0, 600, 0, 0)"/>
<path fill="none" stroke-width="0.001" stroke-linecap="butt" stroke-linejoin="miter" stroke="rgb(10%, 10%, 10%)" stroke-opacity="0.6" stroke-miterlimit="10" d="M 0.791139 0.00179036 L 0.791139 0.107051 " transform="matrix(600, 0, 0, 600, 0, 0)"/>
<path fill="none" stroke-width="0.001" stroke-linecap="butt" stroke-linejoin="miter" stroke="rgb(10%, 10%, 10%)" stroke-opacity="0.6" stroke-miterlimit="10" d="M 0.591426 0.275827 L 0.591426 0.358685 " transform="matrix(600, 0, 0, 600, 0, 0)"/>
<path fill="none" stroke-width="0.001" stroke-linecap="butt" stroke-linejoin="miter" stroke="rgb(10%, 10%, 10%)" stroke-opacity="0.6" stroke-miterlimit="10" d="M 0.350202 0.260221 L 0.591426 0.358685 " transform="matrix(600, 0, 0, 600, 0, 0)"/>
<path fill="none" stroke-width="0.001" stroke-linecap="butt" stroke-linejoin="miter" stroke="rgb(10%, 10%, 10%)" stroke-opacity="0.6" stroke-miterlimit="10" d="M 0.225241 0.50651 L 0.171328 0.439089 " transform="matrix(600, 0, 0, 600, 0, 0)"/>
<path fill="none" stroke-width="0.001" stroke-linecap="butt" stroke-linejoin="miter" stroke="rgb(10%, 10%, 10%)" stroke-opacity="0.6" stroke-miterlimit="10" d="M 0.674284 0.358685 L 0.591426 0.358685 " transform="matrix(600, 0, 0, 600, 0, 0)"/>
<path fill="none" stroke-width="0.001" stroke-linecap="butt" stroke-linejoin="miter" stroke="rgb(10%, 10%, 10%)" stroke-opacity="0.6" stroke-miterlimit="10" d="M 0.286361 0.955169 L 0.171152 0.724336 " transform="matrix(600, 0, 0, 600, 0, 0)"/>
<path fill="none" stroke-width="0.001" stroke-linecap="butt" stroke-linejoin="miter" stroke="rgb(10%, 10%, 10%)" stroke-opacity="0.6" stroke-miterlimit="10" d="M 0.494622 0.552467 L 0.674284 0.358685 " transform="matrix(600, 0, 0, 600, 0, 0)"/>
<path fill="none" stroke-width="0.001" stroke-linecap="butt" stroke-linejoin="miter" stroke="rgb(10%, 10%, 10%)" stroke-opacity="0.6" stroke-miterlimit="10" d="M 0.517077 0.129583 L 0.591426 0.275827 " transform="matrix(600, 0, 0, 600, 0, 0)"/>
<path fill="none" stroke-width="0.001" stroke-linecap="butt" stroke-linejoin="miter" stroke="rgb(10%, 10%, 10%)" stroke-opacity="0.6" stroke-miterlimit="10" d="M 0.336855 0.0816406 L 0.0534375 0.0366016 " transform="matrix(600, 0, 0, 600, 0, 0)"/>
<path fill="none" stroke-width="0.001" stroke-linecap="butt" stroke-linejoin="miter" stroke="rgb(10%, 10%, 10%)" stroke-opacity="0.6" stroke-miterlimit="10" d="M 0.171328 0.439089 L 0.171152 0.623542 " transform="matrix(600, 0, 0, 600, 0, 0)"/>
<path fill="none" stroke-width="0.001" stroke-linecap="butt" stroke-linejoin="miter" stroke="rgb(10%, 10%, 10%)" stroke-opacity="0.6" stroke-miterlimit="10" d="M 0.674284 0.275827 L 0.8964 0.107051 " transform="matrix(600, 0, 0, 600, 0, 0)"/>
<path fill="none" stroke-width="0.001" stroke-linecap="butt" stroke-linejoin="miter" stroke="rgb(10%, 10%, 10%)" stroke-opacity="0.6" stroke-miterlimit="10" d="M 0.39028 0.223639 L 0.591426 0.358685 " transform="matrix(600, 0, 0, 600, 0, 0)"/>
<path fill="none" stroke-width="0.001" stroke-linecap="butt" stroke-linejoin="miter" stroke="rgb(10%, 10%, 10%)" stroke-opacity="0.6" stroke-miterlimit="10" d="M 0.286361 0.852454 L 0.171152 0.724336 " transform="matrix(600, 0, 0, 600, 0, 0)"/>
<path fill="none" stroke-width="0.001" stroke-linecap="butt" stroke-linejoin="miter" stroke="rgb(10%, 10%, 10%)" stroke-opacity="0.6" stroke-miterlimit="10" d="M 0.389076 0.852454 L 0.271947 0.724336 " transform="matrix(600, 0, 0, 600, 0, 0)"/>
<path fill="none" stroke-width="0.001" stroke-linecap="butt" stroke-linejoin="miter" stroke="rgb(10%, 10%, 10%)" stroke-opacity="0.6" stroke-miterlimit="10" d="M 0.336855 0.0816406 L 0.517077 0.129583 " transform="matrix(600, 0, 0, 600, 0, 0)"/>
<path fill="none" stroke-width="0.001" stroke-linecap="butt" stroke-linejoin="miter" stroke="rgb(10%, 10%, 10%)" stroke-opacity="0.6" stroke-miterlimit="10" d="M 0.494622 0.831712 L 0.389076 0.852454 " transform="matrix(600, 0, 0, 600, 0, 0)"/>
<path fill="none" stroke-width="0.001" stroke-linecap="butt" stroke-linejoin="miter" stroke="rgb(10%, 10%, 10%)" stroke-opacity="0.6" stroke-miterlimit="10" d="M 0.725189 0.943483 L 0.773867 0.831712 " transform="matrix(600, 0, 0, 600, 0, 0)"/>
<path fill="none" stroke-width="0.001" stroke-linecap="butt" stroke-linejoin="miter" stroke="rgb(10%, 10%, 10%)" stroke-opacity="0.6" stroke-miterlimit="10" d="M 0.336855 0.0816406 L 0.39028 0.223639 " transform="matrix(600, 0, 0, 600, 0, 0)"/>
<path fill="none" stroke-width="0.001" stroke-linecap="butt" stroke-linejoin="miter" stroke="rgb(10%, 10%, 10%)" stroke-opacity="0.6" stroke-miterlimit="10" d="M 0.336855 0.0816406 L 0.171328 0.260221 " transform="matrix(600, 0, 0, 600, 0, 0)"/>
<path fill="none" stroke-width="0.001" stroke-linecap="butt" stroke-linejoin="miter" stroke="rgb(10%, 10%, 10%)" stroke-opacity="0.6" stroke-miterlimit="10" d="M 0.615 0.0316602 L 0.791139 0.00179036 " transform="matrix(600, 0, 0, 600, 0, 0)"/>
<path fill="none" stroke-width="0.001" stroke-linecap="butt" stroke-linejoin="miter" stroke="rgb(10%, 10%, 10%)" stroke-opacity="0.6" stroke-miterlimit="10" d="M 0.8964 0.107051 L 0.791139 0.107051 " transform="matrix(600, 0, 0, 600, 0, 0)"/>
<path fill="none" stroke-width="0.001" stroke-linecap="butt" stroke-linejoin="miter" stroke="rgb(10%, 10%, 10%)" stroke-opacity="0.6" stroke-miterlimit="10" d="M 0.494622 0.552467 L 0.271947 0.623542 " transform="matrix(600, 0, 0, 600, 0, 0)"/>
<path fill="none" stroke-width="0.001" stroke-linecap="butt" stroke-linejoin="miter" stroke="rgb(10%, 10%, 10%)" stroke-opacity="0.6" stroke-miterlimit="10" d="M 0.39028 0.223639 L 0.350202 0.260221 " transform="matrix(600, 0, 0, 600, 0, 0)"/>
<path fill="none" stroke-width="0.001" stroke-linecap="butt" stroke-linejoin="miter" stroke="rgb(10%, 10%, 10%)" stroke-opacity="0.6" stroke-miterlimit="10" d="M 0.286361 0.852454 L 0.389076 0.852454 " transform="matrix(600, 0, 0, 600, 0, 0)"/>
<path fill="none" stroke-width="0.001" stroke-linecap="butt" stroke-linejoin="miter" stroke="rgb(10%, 10%, 10%)" stroke-opacity="0.6" stroke-miterlimit="10" d="M 0.494622 0.552467 L 0.773867 0.552467 " transform="matrix(600, 0, 0, 600, 0, 0)"/>
<path fill="none" stroke-width="0.001" stroke-linecap="butt" stroke-linejoin="miter" stroke="rgb(10%, 10%, 10%)" stroke-opacity="0.6" stroke-miterlimit="10" d="M 0.494622 0.552467 L 0.350202 0.439089 " transform="matrix(600, 0, 0, 600, 0, 0)"/>
<path fill="none" stroke-width="0.001" stroke-linecap="butt" stroke-linejoin="miter" stroke="rgb(10%, 10%, 10%)" stroke-opacity="0.6" stroke-miterlimit="10" d="M 0.225241 0.50651 L 0.350202 0.439089 " transform="matrix(600, 0, 0, 600, 0, 0)"/>
<path fill="none" stroke-width="0.001" stroke-linecap="butt" stroke-linejoin="miter" stroke="rgb(10%, 10%, 10%)" stroke-opacity="0.6" stroke-miterlimit="10" d="M 0.615 0.129583 L 0.674284 0.275827 " transform="matrix(600, 0, 0, 600, 0, 0)"/>
<path fill="none" stroke-width="0.001" stroke-linecap="butt" stroke-linejoin="miter" stroke="rgb(10%, 10%, 10%)" stroke-opacity="0.6" stroke-miterlimit="10" d="M 0.286361 0.852454 L 0.286361 0.955169 " transform="matrix(600, 0, 0, 600, 0, 0)"/>
<path fill="none" stroke-width="0.001" stroke-linecap="butt" stroke-linejoin="miter" stroke="rgb(10%, 10%, 10%)" stroke-opacity="0.6" stroke-miterlimit="10" d="M 0.725189 0.943483 L 0.389076 0.955169 " transform="matrix(600, 0, 0, 600, 0, 0)"/>
<path fill="none" stroke-width="0.001" stroke-linecap="butt" stroke-linejoin="miter" stroke="rgb(10%, 10%, 10%)" stroke-opacity="0.6" stroke-miterlimit="10" d="M 0.39028 0.223639 L 0.591426 0.275827 " transform="matrix(600, 0, 0, 600, 0, 0)"/>
<path fill="none" stroke-width="0.001" stroke-linecap="butt" stroke-linejoin="miter" stroke="rgb(10%, 10%, 10%)" stroke-opacity="0.6" stroke-miterlimit="10" d="M 0.389076 0.852454 L 0.389076 0.955169 " transform="matrix(600, 0, 0, 600, 0, 0)"/>
<path fill="none" stroke-width="0.001" stroke-linecap="butt" stroke-linejoin="miter" stroke="rgb(10%, 10%, 10%)" stroke-opacity="0.6" stroke-miterlimit="10" d="M 0.494622 0.831712 L 0.271947 0.724336 " transform="matrix(600, 0, 0, 600, 0, 0)"/>
<path fill="none" stroke-width="0.001" stroke-linecap="butt" stroke-linejoin="miter" stroke="rgb(10%, 10%, 10%)" stroke-opacity="0.6" stroke-miterlimit="10" d="M 0.336855 0.0816406 L 0.517077 0.0316602 " transform="matrix(600, 0, 0, 600, 0, 0)"/>
<path fill="none" stroke-width="0.001" stroke-linecap="butt" stroke-linejoin="miter" stroke="rgb(10%, 10%, 10%)" stroke-opacity="0.6" stroke-miterlimit="10" d="M 0.494622 0.552467 L 0.494622 0.831712 " transform="matrix(600, 0, 0, 600, 0, 0)"/>
<path fill="none" stroke-width="0.001" stroke-linecap="butt" stroke-linejoin="miter" stroke="rgb(10%, 10%, 10%)" stroke-opacity="0.6" stroke-miterlimit="10" d="M 0.773867 0.552467 L 0.773867 0.831712 " transform="matrix(600, 0, 0, 600, 0, 0)"/>
<path fill="none" stroke-width="0.001" stroke-linecap="butt" stroke-linejoin="miter" stroke="rgb(10%, 10%, 10%)" stroke-opacity="0.6" stroke-miterlimit="10" d="M 0.0632747 0.663997 L 0.171152 0.623542 " transform="matrix(600, 0, 0, 600, 0, 0)"/>
<path fill="none" stroke-width="0.003" stroke-linecap="butt" stroke-linejoin="miter" stroke="rgb(10%, 10%, 70%)" stroke-opacity="0.6" stroke-miterlimit="10" d="M 0.186328 0.260221 C 0.186328 0.268503 0.179616 0.275221 0.171328 0.275221 C 0.163047 0.275221 0.156328 0.268503 0.156328 0.260221 C 0.156328 0.251934 0.163047 0.245221 0.171328 0.245221 C 0.179616 0.245221 0.186328 0.251934 0.186328 0.260221 " transform="matrix(600, 0, 0, 600, 0, 0)"/>
<path fill="none" stroke-width="0.003" stroke-linecap="butt" stroke-linejoin="miter" stroke="rgb(10%, 10%, 70%)" stroke-opacity="0.6" stroke-miterlimit="10" d="M 0.509622 0.552467 C 0.509622 0.560755 0.50291 0.567467 0.494622 0.567467 C 0.486341 0.567467 0.479622 0.560755 0.479622 0.552467 C 0.479622 0.544186 0.486341 0.537467 0.494622 0.537467 C 0.50291 0.537467 0.509622 0.544186 0.509622 0.552467 " transform="matrix(600, 0, 0, 600, 0, 0)"/>
<path fill="none" stroke-width="0.003" stroke-linecap="butt" stroke-linejoin="miter" stroke="rgb(10%, 10%, 70%)" stroke-opacity="0.6" stroke-miterlimit="10" d="M 0.63 0.0316602 C 0.63 0.0399414 0.623288 0.0466602 0.615 0.0466602 C 0.606719 0.0466602 0.6 0.0399414 0.6 0.0316602 C 0.6 0.0233789 0.606719 0.0166602 0.615 0.0166602 C 0.623288 0.0166602 0.63 0.0233789 0.63 0.0316602 " transform="matrix(600, 0, 0, 600, 0, 0)"/>
<path fill="none" stroke-width="0.003" stroke-linecap="butt" stroke-linejoin="miter" stroke="rgb(70%, 10%, 10%)" stroke-opacity="0.6" stroke-miterlimit="10" d="M 0.409076 0.955169 C 0.409076 0.966217 0.400117 0.975169 0.389076 0.975169 C 0.378027 0.975169 0.369076 0.966217 0.369076 0.955169 C 0.369076 0.944128 0.378027 0.935169 0.389076 0.935169 C 0.400117 0.935169 0.409076 0.944128 0.409076 0.955169 " transform="matrix(600, 0, 0, 600, 0, 0)"/>
<path fill="none" stroke-width="0.003" stroke-linecap="butt" stroke-linejoin="miter" stroke="rgb(70%, 10%, 10%)" stroke-opacity="0.6" stroke-miterlimit="10" d="M 0.409076 0.955169 C 0.409076 0.966217 0.400117 0.975169 0.389076 0.975169 C 0.378027 0.975169 0.369076 0.966217 0.369076 0.955169 C 0.369076 0.944128 0.378027 0.935169 0.389076 0.935169 C 0.400117 0.935169 0.409076 0.944128 0.409076 0.955169 " transform="matrix(600, 0, 0, 600, 0, 0)"/>
<path fill="none" stroke-width="0.003" stroke-linecap="butt" stroke-linejoin="miter" stroke="rgb(70%, 10%, 10%)" stroke-opacity="0.6" stroke-miterlimit="10" d="M 0.409076 0.955169 C 0.409076 0.966217 0.400117 0.975169 0.389076 0.975169 C 0.378027 0.975169 0.369076 0.966217 0.369076 0.955169 C 0.369076 0.944128 0.378027 0.935169 0.389076 0.935169 C 0.400117 0.935169 0.409076 0.944128 0.409076 0.955169 " transform="matrix(600, 0, 0, 600, 0, 0)"/>
</svg>
